{"glyphs":{"0":{"ha":781,"x_min":78,"x_max":702,"o":"m 702 572 l 702 422 q 680 217 702 300 q 618 83 659 134 q 520 9 577 32 q 391 -14 463 -14 q 286 1 334 -14 q 199 46 237 15 q 134 129 161 78 q 92 252 106 180 q 78 422 78 325 l 78 572 q 100 776 78 694 q 163 908 122 858 q 261 979 203 958 q 389 1001 318 1001 q 495 987 447 1001 q 582 943 544 973 q 647 863 620 913 q 688 741 673 813 q 702 572 702 669 m 576 401 l 576 593 q 568 710 576 660 q 545 797 560 761 q 508 855 530 833 q 455 888 485 878 q 389 899 426 899 q 310 882 345 899 q 252 829 275 865 q 216 735 229 793 q 204 593 204 677 l 204 401 q 212 284 204 335 q 235 196 220 233 q 273 136 251 159 q 325 101 296 112 q 391 90 355 90 q 471 107 437 90 q 529 162 506 125 q 564 259 553 200 q 576 401 576 319 z "},"1":{"ha":781,"x_min":116,"x_max":494,"o":"m 494 993 l 494 0 l 369 0 l 369 836 l 116 744 l 116 857 l 475 993 l 494 993 z "},"2":{"ha":781,"x_min":64,"x_max":729,"o":"m 729 103 l 729 0 l 83 0 l 83 90 l 406 450 q 499 563 466 517 q 545 647 532 610 q 558 722 558 684 q 538 811 558 771 q 479 874 518 850 q 386 898 441 898 q 276 872 320 898 q 211 802 233 847 q 189 697 189 756 l 64 697 q 100 850 64 781 q 209 960 137 919 q 386 1001 281 1001 q 546 968 479 1001 q 648 876 612 935 q 684 737 684 817 q 669 649 684 694 q 629 561 654 605 q 570 474 604 517 q 498 390 536 431 l 234 103 l 729 103 z "},"3":{"ha":781,"x_min":64,"x_max":690,"o":"m 265 555 l 355 555 q 464 577 420 555 q 528 638 507 600 q 549 724 549 676 q 530 820 549 781 q 473 878 511 859 q 377 898 435 898 q 284 877 324 898 q 221 819 243 857 q 198 729 198 781 l 73 729 q 111 866 73 804 q 217 964 149 928 q 377 1001 286 1001 q 534 969 467 1001 q 638 876 601 938 q 675 722 675 814 q 658 642 675 684 q 605 563 641 600 q 511 503 568 526 q 372 479 453 479 l 265 479 l 265 555 m 265 452 l 265 528 l 372 528 q 528 505 467 528 q 626 446 590 483 q 676 364 661 408 q 690 275 690 319 q 667 153 690 206 q 601 62 644 99 q 502 5 559 24 q 378 -14 445 -14 q 257 5 313 -14 q 157 58 200 23 q 89 144 113 93 q 64 261 64 195 l 190 261 q 213 171 190 210 q 278 111 235 132 q 378 90 320 90 q 477 110 435 90 q 542 170 519 130 q 564 273 564 211 q 538 374 564 334 q 466 433 513 414 q 355 452 418 452 l 265 452 z "},"4":{"ha":781,"x_min":36,"x_max":749,"o":"m 749 332 l 749 229 l 36 229 l 36 303 l 478 987 l 581 987 l 471 789 l 178 332 l 749 332 m 612 987 l 612 0 l 486 0 l 486 987 l 612 987 z "},"5":{"ha":781,"x_min":104,"x_max":726,"o":"m 241 470 l 140 496 l 190 987 l 696 987 l 696 871 l 296 871 l 267 603 q 335 632 294 618 q 431 646 377 646 q 554 622 500 646 q 647 555 608 599 q 705 451 685 512 q 726 315 726 390 q 706 184 726 243 q 648 80 687 124 q 551 11 610 35 q 413 -14 492 -14 q 300 3 353 -14 q 205 54 247 20 q 137 139 163 88 q 104 260 111 191 l 224 260 q 256 166 232 204 q 320 109 281 128 q 413 90 360 90 q 492 105 458 90 q 551 150 527 121 q 587 220 574 179 q 600 313 600 262 q 587 400 600 360 q 548 470 574 440 q 486 516 523 500 q 402 533 450 533 q 307 516 339 533 q 241 470 275 499 z "},"6":{"ha":781,"x_min":90,"x_max":714,"o":"m 564 989 l 574 989 l 574 882 l 564 882 q 397 850 464 882 q 290 764 330 818 q 234 643 251 710 q 216 507 216 576 l 216 361 q 232 245 216 296 q 275 160 248 195 q 336 108 302 125 q 408 90 370 90 q 485 107 451 90 q 542 154 519 123 q 578 225 566 184 q 590 316 590 267 q 579 401 590 360 q 546 474 568 442 q 490 525 524 507 q 410 544 456 544 q 313 518 358 544 q 239 452 268 493 q 206 363 210 411 l 140 363 q 175 493 149 439 q 240 582 201 547 q 328 632 279 616 q 431 648 376 648 q 558 620 505 648 q 646 546 612 592 q 697 441 681 499 q 714 322 714 383 q 694 191 714 252 q 636 84 675 130 q 540 12 597 38 q 408 -14 483 -14 q 268 19 328 -14 q 169 107 208 52 q 110 229 130 162 q 90 366 90 296 l 90 425 q 111 629 90 529 q 184 811 132 730 q 328 941 236 892 q 564 989 420 989 z "},"7":{"ha":781,"x_min":53,"x_max":720,"o":"m 720 987 l 720 917 l 311 0 l 179 0 l 587 884 l 53 884 l 53 987 l 720 987 z "},"8":{"ha":781,"x_min":77,"x_max":705,"o":"m 705 267 q 663 114 705 177 q 550 19 621 52 q 391 -14 479 -14 q 231 19 302 -14 q 118 114 159 52 q 77 267 77 177 q 99 375 77 326 q 164 461 122 425 q 263 518 205 498 q 389 538 320 538 q 551 503 480 538 q 664 407 623 468 q 705 267 705 346 m 578 270 q 555 367 578 325 q 488 433 531 410 q 389 457 446 457 q 290 433 332 457 q 225 367 248 410 q 202 270 202 325 q 225 173 202 213 q 290 111 248 132 q 391 90 332 90 q 491 111 449 90 q 556 173 533 132 q 578 270 578 213 m 682 730 q 644 601 682 659 q 540 510 606 543 q 391 477 474 477 q 240 510 306 477 q 136 601 174 543 q 99 730 99 659 q 137 877 99 817 q 240 969 174 937 q 390 1001 306 1001 q 541 969 475 1001 q 644 877 606 937 q 682 730 682 817 m 556 728 q 535 816 556 778 q 477 876 514 854 q 390 898 439 898 q 303 877 340 898 q 246 819 267 857 q 225 728 225 781 q 246 640 225 677 q 304 581 267 602 q 391 559 341 559 q 477 581 440 559 q 535 640 514 602 q 556 728 556 677 z "},"9":{"ha":781,"x_min":68,"x_max":689,"o":"m 207 105 l 220 105 q 396 136 328 105 q 500 218 464 166 q 551 334 537 269 q 564 467 564 399 l 564 618 q 549 738 564 686 q 507 825 534 790 q 446 879 480 861 q 374 897 412 897 q 297 880 331 897 q 239 831 262 863 q 203 758 216 800 q 191 667 191 716 q 202 581 191 623 q 235 507 213 540 q 291 454 258 473 q 370 435 325 435 q 449 451 412 435 q 515 497 486 468 q 561 562 544 526 q 581 639 578 599 l 641 639 q 619 528 641 583 q 557 429 597 473 q 465 357 518 384 q 350 330 412 330 q 223 359 277 330 q 135 435 170 387 q 84 541 101 482 q 68 660 68 600 q 87 792 68 730 q 146 901 107 854 q 242 975 184 948 q 374 1001 299 1001 q 519 967 459 1001 q 616 876 578 933 q 671 748 654 819 q 689 602 689 677 l 689 556 q 679 400 689 479 q 642 250 669 321 q 562 121 614 178 q 426 32 510 64 q 220 -1 342 -1 l 207 -1 l 207 105 z "},"\u0000":{"ha":0,"x_min":0,"x_max":0,"o":""},"\u0002":{"ha":0,"x_min":0,"x_max":0,"o":""},"\r":{"ha":345,"x_min":0,"x_max":0,"o":""}," ":{"ha":345,"x_min":0,"x_max":0,"o":""},"!":{"ha":358,"x_min":109,"x_max":258,"o":"m 245 987 l 236 279 l 123 279 l 113 987 l 245 987 m 109 63 q 128 115 109 94 q 183 136 146 136 q 238 115 219 136 q 258 63 258 94 q 238 13 258 34 q 183 -8 219 -8 q 128 13 146 -8 q 109 63 109 34 z "},"\"":{"ha":445,"x_min":93,"x_max":372,"o":"m 189 1042 l 189 949 l 168 707 l 93 707 l 93 943 l 93 1042 l 189 1042 m 372 1042 l 372 949 l 351 707 l 276 707 l 276 948 l 276 1042 l 372 1042 z "},"#":{"ha":855,"x_min":81,"x_max":838,"o":"m 189 0 l 381 987 l 479 987 l 286 0 l 189 0 m 465 0 l 658 987 l 755 987 l 562 0 l 465 0 m 838 611 l 132 611 l 132 705 l 838 705 l 838 611 m 787 278 l 81 278 l 81 372 l 787 372 l 787 278 z "},"$":{"ha":781,"x_min":75,"x_max":707,"o":"m 457 1147 l 457 941 l 355 941 l 355 1147 l 457 1147 m 445 40 l 445 -141 l 344 -141 l 344 40 l 445 40 m 581 254 q 562 328 581 295 q 502 387 544 360 q 389 437 460 414 q 242 502 304 464 q 146 596 180 540 q 113 732 113 652 q 149 876 113 816 q 250 969 184 937 q 405 1002 316 1002 q 528 981 474 1002 q 620 920 583 960 q 678 820 658 879 q 698 684 698 761 l 573 684 q 562 767 573 729 q 530 833 551 805 q 477 877 508 861 q 405 892 446 892 q 311 872 348 892 q 256 817 274 852 q 239 734 239 781 q 256 659 239 691 q 316 600 274 626 q 433 549 359 574 q 582 483 521 521 q 675 391 643 446 q 707 256 707 336 q 667 108 707 168 q 557 17 628 48 q 390 -14 486 -14 q 276 1 332 -14 q 174 53 220 17 q 102 147 129 88 q 75 291 75 205 l 201 291 q 217 196 201 233 q 262 136 234 158 q 323 105 290 114 q 390 96 357 96 q 493 115 451 96 q 558 170 536 134 q 581 254 581 206 z "},"%":{"ha":1017,"x_min":71,"x_max":957,"o":"m 71 745 l 71 798 q 96 900 71 854 q 165 974 120 946 q 273 1002 211 1002 q 382 974 337 1002 q 452 900 427 946 q 476 798 476 854 l 476 745 q 452 644 476 690 q 383 570 428 598 q 275 543 338 543 q 166 570 212 543 q 96 644 120 598 q 71 745 71 690 m 165 798 l 165 745 q 177 686 165 714 q 214 641 189 659 q 275 624 238 624 q 335 641 311 624 q 370 686 359 659 q 382 745 382 714 l 382 798 q 370 858 382 829 q 334 903 358 886 q 273 920 310 920 q 213 903 237 920 q 177 858 189 886 q 165 798 165 829 m 552 189 l 552 242 q 576 344 552 298 q 646 418 601 390 q 754 446 692 446 q 863 418 818 446 q 932 344 908 390 q 957 242 957 298 l 957 189 q 933 87 957 134 q 864 14 909 41 q 755 -14 819 -14 q 647 14 692 -14 q 577 87 602 41 q 552 189 552 134 m 646 242 l 646 189 q 658 130 646 158 q 694 84 670 102 q 755 67 719 67 q 816 84 792 67 q 852 130 840 102 q 863 189 863 157 l 863 242 q 851 302 863 274 q 815 347 840 330 q 754 364 791 364 q 694 347 718 364 q 658 302 670 330 q 646 242 646 274 m 785 847 l 303 75 l 233 120 l 715 892 l 785 847 z "},"&":{"ha":864,"x_min":69,"x_max":859,"o":"m 278 548 l 426 653 q 492 712 469 682 q 515 793 515 741 q 484 866 515 833 q 396 899 453 899 q 330 880 357 899 q 289 832 302 862 q 275 766 275 802 q 290 703 275 735 q 332 635 305 670 q 392 560 358 600 l 859 0 l 709 0 l 326 458 q 235 568 275 518 q 172 665 195 618 q 149 762 149 711 q 180 892 149 839 q 267 973 211 945 q 397 1001 322 1001 q 522 972 469 1001 q 603 896 574 943 q 631 793 631 849 q 614 708 631 745 q 567 639 597 670 q 497 578 537 608 l 301 432 q 230 363 252 396 q 201 306 208 331 q 195 266 195 281 q 216 178 195 218 q 280 114 237 138 q 388 90 323 90 q 499 116 445 90 q 595 190 553 142 q 664 306 638 239 q 689 456 689 374 l 802 456 q 789 329 802 389 q 749 218 776 269 q 681 125 722 167 q 671 111 675 119 q 662 96 668 102 q 537 14 611 41 q 388 -14 463 -14 q 218 22 290 -14 q 108 121 146 58 q 69 266 69 184 q 96 376 69 328 q 170 465 123 423 q 278 548 217 506 z "},"'":{"ha":243,"x_min":71,"x_max":172,"o":"m 172 1042 l 172 967 l 158 718 l 71 718 l 71 956 l 71 1042 l 172 1042 z "},"(":{"ha":475,"x_min":91,"x_max":449,"o":"m 91 395 l 91 401 q 124 669 91 549 q 209 879 157 789 q 317 1028 260 969 q 422 1114 374 1088 l 449 1031 q 368 947 409 1001 q 293 816 327 894 q 237 635 258 738 q 216 403 216 532 l 216 393 q 237 161 216 264 q 293 -21 258 58 q 368 -155 327 -100 q 449 -243 409 -210 l 422 -319 q 317 -233 374 -292 q 209 -84 260 -174 q 124 126 157 6 q 91 395 91 246 z "},")":{"ha":484,"x_min":26,"x_max":385,"o":"m 385 401 l 385 395 q 351 126 385 246 q 267 -84 318 6 q 158 -233 215 -174 q 53 -319 101 -292 l 26 -243 q 107 -158 66 -212 q 182 -23 148 -103 q 238 160 217 56 q 259 393 259 264 l 259 403 q 237 636 259 532 q 179 819 214 740 q 103 953 143 899 q 26 1038 62 1008 l 53 1114 q 158 1028 101 1088 q 267 879 215 969 q 351 669 318 789 q 385 401 385 549 z "},"*":{"ha":598,"x_min":19,"x_max":579,"o":"m 87 480 l 224 667 l 19 728 l 51 830 l 256 755 l 250 988 l 353 988 l 346 751 l 548 826 l 579 722 l 371 661 l 505 477 l 420 414 l 295 609 l 172 418 l 87 480 z "},"+":{"ha":788,"x_min":53,"x_max":730,"o":"m 730 530 l 730 412 l 53 412 l 53 530 l 730 530 m 454 818 l 454 99 l 329 99 l 329 818 l 454 818 z "},",":{"ha":273,"x_min":20,"x_max":210,"o":"m 210 149 l 210 48 q 178 -82 210 -14 q 91 -197 147 -151 l 20 -148 q 56 -87 41 -118 q 79 -23 71 -56 q 87 46 87 9 l 87 149 l 210 149 z "},"-":{"ha":384,"x_min":26,"x_max":357,"o":"m 357 471 l 357 368 l 26 368 l 26 471 l 357 471 z "},".":{"ha":366,"x_min":98,"x_max":254,"o":"m 98 66 q 118 120 98 98 q 176 142 138 142 q 234 120 214 142 q 254 66 254 98 q 234 14 254 35 q 176 -8 214 -8 q 118 14 138 -8 q 98 66 98 35 z "},"/":{"ha":573,"x_min":13,"x_max":532,"o":"m 532 987 l 121 -85 l 13 -85 l 425 987 l 532 987 z "},":":{"ha":336,"x_min":90,"x_max":247,"o":"m 90 66 q 110 120 90 98 q 168 142 130 142 q 226 120 206 142 q 246 66 246 98 q 226 14 246 35 q 168 -8 206 -8 q 110 14 130 -8 q 90 66 90 35 m 91 665 q 111 719 91 697 q 169 741 131 741 q 227 719 207 741 q 247 665 247 697 q 227 612 247 634 q 169 591 207 591 q 111 612 131 591 q 91 665 91 634 z "},";":{"ha":294,"x_min":28,"x_max":231,"o":"m 75 665 q 95 719 75 697 q 153 741 115 741 q 211 719 191 741 q 231 665 231 697 q 211 612 231 634 q 153 591 191 591 q 95 612 115 591 q 75 665 75 634 m 218 149 l 218 48 q 186 -82 218 -14 q 99 -197 155 -151 l 28 -148 q 64 -87 50 -118 q 87 -23 79 -56 q 95 46 95 9 l 95 149 l 218 149 z "},"<":{"ha":706,"x_min":49,"x_max":604,"o":"m 135 456 l 604 266 l 604 133 l 49 390 l 49 468 l 135 456 m 604 612 l 136 419 l 49 410 l 49 488 l 604 745 l 604 612 z "},"=":{"ha":762,"x_min":103,"x_max":669,"o":"m 669 661 l 669 552 l 103 552 l 103 661 l 669 661 m 669 380 l 669 271 l 103 271 l 103 380 l 669 380 z "},">":{"ha":726,"x_min":92,"x_max":671,"o":"m 574 429 l 92 616 l 92 746 l 671 490 l 671 410 l 574 429 m 92 263 l 575 455 l 671 469 l 671 391 l 92 134 l 92 263 z "},"?":{"ha":656,"x_min":51,"x_max":602,"o":"m 368 278 l 242 278 q 254 385 243 343 q 291 461 265 427 q 359 540 317 496 q 417 600 391 572 q 459 661 443 628 q 475 740 475 694 q 459 821 475 787 q 410 873 442 854 q 330 891 378 891 q 256 877 291 891 q 199 833 220 863 q 176 756 177 804 l 51 756 q 89 888 52 833 q 189 972 126 943 q 330 1001 252 1001 q 477 970 416 1001 q 570 881 538 939 q 602 743 602 823 q 577 631 602 682 q 513 535 552 580 q 431 450 475 490 q 381 372 394 415 q 368 278 368 328 m 237 63 q 256 115 237 94 q 311 136 275 136 q 366 115 347 136 q 385 63 385 94 q 366 13 385 34 q 311 -8 347 -8 q 256 13 275 -8 q 237 63 237 34 z "},"@":{"ha":1247,"x_min":74,"x_max":1182,"o":"m 1177 341 q 1158 216 1175 279 q 1109 101 1142 153 q 1025 17 1077 49 q 900 -14 973 -14 q 818 2 853 -14 q 761 50 783 19 q 731 125 739 81 q 728 224 722 170 l 762 600 l 862 600 l 827 224 q 830 143 823 174 q 850 95 836 112 q 881 73 863 79 q 914 66 898 66 q 987 88 955 66 q 1041 147 1019 109 q 1075 234 1063 184 q 1090 341 1087 284 q 1081 527 1095 442 q 1034 677 1067 612 q 948 789 1001 743 q 822 858 895 834 q 654 882 749 882 q 497 856 569 882 q 367 781 425 829 q 269 663 310 732 q 204 509 228 595 q 177 324 181 423 q 188 137 172 222 q 238 -15 203 52 q 327 -128 273 -81 q 451 -198 380 -174 q 608 -222 522 -222 q 729 -208 668 -222 q 832 -170 791 -194 l 858 -247 q 740 -292 810 -277 q 606 -307 669 -307 q 417 -279 503 -307 q 267 -197 332 -251 q 158 -66 201 -143 q 94 109 115 11 q 79 324 74 208 q 112 534 83 435 q 191 712 141 632 q 311 850 241 792 q 468 939 380 908 q 657 970 555 970 q 846 942 762 970 q 995 860 931 913 q 1101 729 1059 806 q 1163 554 1143 652 q 1177 341 1182 456 m 481 283 q 481 199 476 236 q 499 136 486 161 q 535 97 513 110 q 587 83 557 83 q 628 93 606 83 q 671 124 650 103 q 710 179 692 145 q 741 260 728 213 l 785 212 q 745 114 770 156 q 690 43 720 72 q 625 0 659 15 q 555 -14 591 -14 q 469 7 506 -14 q 408 68 431 28 q 376 162 385 107 q 373 283 367 216 q 398 415 379 355 q 445 523 417 475 q 509 604 473 570 q 585 654 545 637 q 667 671 625 671 q 782 650 740 671 q 862 600 824 629 l 804 532 q 753 568 785 551 q 677 584 721 584 q 608 565 640 584 q 549 508 575 546 q 505 414 523 470 q 481 283 488 358 z "},"A":{"ha":906,"x_min":20,"x_max":888,"o":"m 480 900 l 153 0 l 20 0 l 396 987 l 482 987 l 480 900 m 754 0 l 427 900 l 425 987 l 511 987 l 888 0 l 754 0 m 737 366 l 737 258 l 182 258 l 182 366 l 737 366 z "},"B":{"ha":865,"x_min":115,"x_max":787,"o":"m 467 462 l 216 462 l 215 567 l 442 567 q 541 586 498 567 q 606 641 583 605 q 629 726 629 676 q 609 814 629 780 q 546 864 588 848 q 438 880 503 880 l 245 880 l 245 0 l 115 0 l 115 987 l 438 987 q 574 972 514 987 q 675 925 633 957 q 739 843 717 892 q 760 724 760 793 q 729 614 760 663 q 643 534 698 565 q 513 494 587 503 l 467 462 m 460 0 l 165 0 l 239 106 l 460 106 q 567 128 523 106 q 633 190 610 150 q 656 283 656 229 q 637 378 656 338 q 575 440 617 418 q 467 462 533 462 l 280 462 l 281 567 l 536 567 l 564 529 q 685 489 635 523 q 761 401 734 454 q 787 285 787 349 q 746 129 787 193 q 633 33 706 66 q 460 0 559 0 z "},"C":{"ha":904,"x_min":81,"x_max":841,"o":"m 711 314 l 841 314 q 787 146 831 220 q 665 30 744 73 q 467 -14 585 -14 q 309 19 380 -14 q 187 112 238 52 q 109 256 136 172 q 81 444 81 340 l 81 543 q 109 731 81 646 q 188 876 136 815 q 313 968 240 936 q 478 1001 387 1001 q 667 959 590 1001 q 788 843 745 917 q 841 671 831 768 l 711 671 q 675 790 701 740 q 602 867 650 840 q 478 894 555 894 q 362 869 412 894 q 279 798 313 844 q 229 687 245 751 q 212 544 212 623 l 212 444 q 227 308 212 372 q 273 196 242 244 q 353 120 304 148 q 467 93 401 93 q 600 119 550 93 q 674 195 649 146 q 711 314 700 245 z "},"D":{"ha":911,"x_min":115,"x_max":829,"o":"m 382 0 l 176 0 l 177 106 l 382 106 q 558 151 488 106 q 664 276 629 195 q 700 464 700 356 l 700 524 q 680 675 700 609 q 620 787 659 741 q 524 857 581 833 q 394 880 467 880 l 172 880 l 172 987 l 394 987 q 571 955 491 987 q 709 862 651 923 q 798 716 767 802 q 829 523 829 630 l 829 464 q 798 271 829 357 q 708 125 767 185 q 567 32 650 64 q 382 0 485 0 m 245 987 l 245 0 l 115 0 l 115 987 l 245 987 z "},"E":{"ha":789,"x_min":115,"x_max":742,"o":"m 742 106 l 742 0 l 219 0 l 219 106 l 742 106 m 245 987 l 245 0 l 115 0 l 115 987 l 245 987 m 673 563 l 673 456 l 219 456 l 219 563 l 673 563 m 735 987 l 735 880 l 219 880 l 219 987 l 735 987 z "},"F":{"ha":768,"x_min":115,"x_max":726,"o":"m 245 987 l 245 0 l 115 0 l 115 987 l 245 987 m 659 543 l 659 436 l 217 436 l 217 543 l 659 543 m 726 987 l 726 880 l 217 880 l 217 987 l 726 987 z "},"G":{"ha":946,"x_min":83,"x_max":844,"o":"m 844 492 l 844 130 q 786 70 826 103 q 676 11 746 36 q 495 -14 606 -14 q 329 18 405 -14 q 198 110 254 50 q 113 258 143 171 q 83 456 83 345 l 83 532 q 109 730 83 643 q 186 877 135 817 q 311 969 237 938 q 480 1001 385 1001 q 670 962 593 1001 q 789 854 746 923 q 844 699 832 786 l 713 699 q 679 796 705 752 q 604 867 652 840 q 480 894 556 894 q 361 869 412 894 q 279 797 311 844 q 230 684 246 750 q 214 534 214 617 l 214 456 q 234 303 214 370 q 292 189 254 236 q 381 117 329 142 q 496 93 433 93 q 609 105 566 93 q 677 133 652 117 q 714 165 701 150 l 714 386 l 486 386 l 486 492 l 844 492 z "},"H":{"ha":991,"x_min":115,"x_max":873,"o":"m 760 563 l 760 456 l 225 456 l 225 563 l 760 563 m 245 987 l 245 0 l 115 0 l 115 987 l 245 987 m 873 987 l 873 0 l 743 0 l 743 987 l 873 987 z "},"I":{"ha":378,"x_min":124,"x_max":255,"o":"m 255 987 l 255 0 l 124 0 l 124 987 l 255 987 z "},"J":{"ha":766,"x_min":36,"x_max":659,"o":"m 529 288 l 529 987 l 659 987 l 659 288 q 619 123 659 191 q 509 21 579 56 q 348 -14 439 -14 q 186 18 257 -14 q 76 113 116 49 q 36 273 36 176 l 167 273 q 190 171 167 211 q 254 112 213 131 q 348 93 295 93 q 440 115 399 93 q 505 181 481 137 q 529 288 529 224 z "},"K":{"ha":871,"x_min":115,"x_max":871,"o":"m 245 987 l 245 0 l 115 0 l 115 987 l 245 987 m 842 987 l 431 527 l 201 288 l 179 427 l 353 618 l 684 987 l 842 987 m 715 0 l 350 481 l 428 585 l 871 0 l 715 0 z "},"L":{"ha":748,"x_min":115,"x_max":713,"o":"m 713 106 l 713 0 l 220 0 l 220 106 l 713 106 m 245 987 l 245 0 l 115 0 l 115 987 l 245 987 z "},"M":{"ha":1213,"x_min":115,"x_max":1097,"o":"m 156 987 l 283 987 l 606 182 l 929 987 l 1057 987 l 655 0 l 556 0 l 156 987 m 115 987 l 227 987 l 245 385 l 245 0 l 115 0 l 115 987 m 985 987 l 1097 987 l 1097 0 l 967 0 l 967 385 l 985 987 z "},"N":{"ha":991,"x_min":115,"x_max":874,"o":"m 874 987 l 874 0 l 743 0 l 245 762 l 245 0 l 115 0 l 115 987 l 245 987 l 745 224 l 745 987 l 874 987 z "},"O":{"ha":956,"x_min":81,"x_max":875,"o":"m 875 525 l 875 463 q 847 263 875 351 q 767 113 819 175 q 642 19 715 52 q 479 -14 569 -14 q 318 19 391 -14 q 192 113 245 52 q 110 263 139 175 q 81 463 81 351 l 81 525 q 110 724 81 636 q 191 874 138 812 q 317 968 244 936 q 477 1001 390 1001 q 641 968 568 1001 q 766 874 713 936 q 847 724 819 812 q 875 525 875 636 m 745 463 l 745 526 q 727 682 745 614 q 675 796 709 750 q 590 866 640 842 q 477 890 541 890 q 367 866 416 890 q 283 796 318 842 q 229 682 248 750 q 210 526 210 614 l 210 463 q 229 306 210 374 q 284 191 248 237 q 369 121 319 144 q 479 97 418 97 q 592 121 543 97 q 676 191 642 144 q 728 306 710 237 q 745 463 745 374 z "},"P":{"ha":876,"x_min":115,"x_max":825,"o":"m 479 387 l 215 387 l 215 494 l 479 494 q 603 518 555 494 q 672 586 650 543 q 694 685 694 629 q 672 781 694 736 q 603 853 650 825 q 479 880 555 880 l 245 880 l 245 0 l 115 0 l 115 987 l 479 987 q 668 949 591 987 q 785 842 745 910 q 825 686 825 774 q 785 524 825 591 q 668 422 745 457 q 479 387 591 387 z "},"Q":{"ha":956,"x_min":75,"x_max":872,"o":"m 621 113 l 872 -85 l 784 -167 l 537 29 l 621 113 m 869 525 l 869 463 q 841 263 869 351 q 761 113 813 175 q 636 19 709 52 q 473 -14 563 -14 q 312 19 385 -14 q 186 113 239 52 q 104 263 133 175 q 75 463 75 351 l 75 525 q 103 724 75 636 q 185 874 132 812 q 311 968 238 936 q 471 1001 384 1001 q 635 968 562 1001 q 760 874 708 936 q 841 724 812 812 q 869 525 869 636 m 739 463 l 739 526 q 721 682 739 614 q 669 796 703 750 q 585 866 634 842 q 471 890 535 890 q 362 866 411 890 q 277 796 313 842 q 223 682 242 750 q 204 526 204 614 l 204 463 q 223 306 204 374 q 278 191 242 237 q 363 121 313 144 q 473 97 412 97 q 586 121 536 97 q 670 191 635 144 q 722 306 704 237 q 739 463 739 374 z "},"R":{"ha":856,"x_min":115,"x_max":831,"o":"m 115 987 l 441 987 q 630 954 553 987 q 747 853 707 920 q 787 691 787 787 q 760 567 787 623 q 681 472 732 511 q 559 414 630 433 l 522 400 l 215 400 l 214 507 l 446 507 q 563 531 516 507 q 633 598 610 556 q 657 691 657 640 q 635 791 657 748 q 565 857 612 833 q 441 880 517 880 l 245 880 l 245 0 l 115 0 l 115 987 m 692 0 l 452 448 l 588 448 l 831 8 l 831 0 l 692 0 z "},"S":{"ha":825,"x_min":55,"x_max":772,"o":"m 641 250 q 630 311 641 284 q 594 359 620 338 q 522 401 568 381 q 406 441 476 420 q 274 489 333 463 q 173 551 215 516 q 109 630 131 585 q 86 732 86 675 q 110 839 86 790 q 178 924 134 888 q 284 981 222 960 q 422 1001 346 1001 q 611 959 533 1001 q 729 848 688 916 q 770 703 770 780 l 640 703 q 616 801 640 758 q 544 869 592 844 q 422 894 496 894 q 307 873 352 894 q 239 816 261 852 q 217 734 217 780 q 230 677 217 703 q 272 630 243 652 q 343 590 300 608 q 448 555 387 572 q 593 502 532 531 q 694 436 654 473 q 753 354 734 400 q 772 251 772 309 q 748 142 772 191 q 678 58 724 93 q 569 5 633 24 q 428 -14 506 -14 q 293 5 359 -14 q 173 62 227 24 q 87 156 119 100 q 55 286 55 212 l 185 286 q 205 199 185 235 q 259 139 224 163 q 337 104 293 115 q 428 93 380 93 q 544 112 496 93 q 616 166 591 131 q 641 250 641 201 z "},"T":{"ha":829,"x_min":34,"x_max":797,"o":"m 479 987 l 479 0 l 351 0 l 351 987 l 479 987 m 797 987 l 797 880 l 34 880 l 34 987 l 797 987 z "},"U":{"ha":901,"x_min":95,"x_max":810,"o":"m 680 987 l 810 987 l 810 319 q 760 134 810 208 q 629 23 711 60 q 452 -14 547 -14 q 270 23 351 -14 q 142 134 189 60 q 95 319 95 208 l 95 987 l 224 987 l 224 319 q 253 192 224 242 q 333 117 281 142 q 452 93 384 93 q 571 117 520 93 q 651 192 623 142 q 680 319 680 242 l 680 987 z "},"V":{"ha":884,"x_min":20,"x_max":866,"o":"m 433 150 l 724 987 l 866 987 l 500 0 l 399 0 l 433 150 m 161 987 l 450 150 l 486 0 l 385 0 l 20 987 l 161 987 z "},"W":{"ha":1232,"x_min":41,"x_max":1202,"o":"m 374 298 l 570 987 l 665 987 l 610 720 l 399 0 l 305 0 l 374 298 m 172 987 l 328 312 l 374 0 l 281 0 l 41 987 l 172 987 m 919 313 l 1072 987 l 1202 987 l 964 0 l 870 0 l 919 313 m 680 987 l 870 298 l 939 0 l 845 0 l 642 720 l 586 987 l 680 987 z "},"X":{"ha":871,"x_min":39,"x_max":834,"o":"m 199 987 l 437 609 l 674 987 l 827 987 l 515 498 l 834 0 l 680 0 l 437 386 l 193 0 l 39 0 l 359 498 l 47 987 l 199 987 z "},"Y":{"ha":834,"x_min":10,"x_max":822,"o":"m 160 987 l 416 492 l 673 987 l 822 987 l 481 369 l 481 0 l 351 0 l 351 369 l 10 987 l 160 987 z "},"Z":{"ha":832,"x_min":59,"x_max":777,"o":"m 777 106 l 777 0 l 109 0 l 109 106 l 777 106 m 755 892 l 140 0 l 59 0 l 59 98 l 674 987 l 755 987 l 755 892 m 700 987 l 700 880 l 68 880 l 68 987 l 700 987 z "},"[":{"ha":368,"x_min":100,"x_max":355,"o":"m 355 1128 l 355 1025 l 225 1025 l 225 -109 l 355 -109 l 355 -212 l 100 -212 l 100 1128 l 355 1128 z "},"\\":{"ha":570,"x_min":28,"x_max":559,"o":"m 440 -85 l 28 987 l 147 987 l 559 -85 l 440 -85 z "},"]":{"ha":368,"x_min":7,"x_max":263,"o":"m 7 1025 l 7 1128 l 263 1128 l 263 -212 l 7 -212 l 7 -109 l 137 -109 l 137 1025 l 7 1025 z "},"^":{"ha":581,"x_min":43,"x_max":535,"o":"m 298 842 l 160 494 l 43 494 l 246 987 l 322 987 l 298 842 m 418 494 l 281 842 l 256 987 l 333 987 l 535 494 l 418 494 z "},"_":{"ha":627,"x_min":3,"x_max":625,"o":"m 625 0 l 625 -103 l 3 -103 l 3 0 l 625 0 z "},"`":{"ha":429,"x_min":39,"x_max":321,"o":"m 191 1042 l 321 842 l 214 842 l 39 1042 l 191 1042 z "},"a":{"ha":755,"x_min":74,"x_max":680,"o":"m 528 125 l 528 503 q 511 579 528 547 q 459 629 494 611 q 374 646 425 646 q 291 630 326 646 q 235 587 255 614 q 215 530 215 561 l 90 530 q 110 608 90 570 q 169 679 130 647 q 261 729 207 710 q 381 747 315 747 q 523 720 461 747 q 619 638 584 693 q 654 502 654 584 l 654 160 q 660 82 654 123 q 680 11 667 41 l 680 0 l 549 0 q 534 58 539 22 q 528 125 528 94 m 550 445 l 551 357 l 425 357 q 329 348 371 357 q 258 323 287 340 q 215 280 230 306 q 200 221 200 255 q 216 158 200 186 q 263 113 231 130 q 340 96 294 96 q 442 121 398 96 q 512 180 486 145 q 541 249 538 216 l 594 189 q 568 125 589 160 q 512 59 547 91 q 430 7 477 28 q 322 -14 382 -14 q 192 16 248 -14 q 105 94 136 45 q 74 204 74 143 q 97 308 74 263 q 163 384 120 353 q 268 429 207 414 q 404 445 329 445 l 550 445 z "},"b":{"ha":780,"x_min":95,"x_max":717,"o":"m 95 1042 l 221 1042 l 221 142 l 210 0 l 95 0 l 95 1042 m 717 373 l 717 359 q 698 211 717 279 q 642 92 679 142 q 553 14 606 42 q 431 -14 500 -14 q 309 11 361 -14 q 220 80 256 35 q 163 190 184 125 q 134 335 142 254 l 134 397 q 163 543 142 479 q 220 653 184 608 q 309 723 256 699 q 430 747 361 747 q 553 721 499 747 q 643 644 606 694 q 698 526 679 595 q 717 373 717 457 m 591 359 l 591 373 q 581 476 591 428 q 548 562 570 525 q 489 620 526 599 q 399 642 452 642 q 316 625 351 642 q 257 582 281 609 q 217 519 233 554 q 195 447 202 484 l 195 283 q 230 192 205 236 q 297 121 255 149 q 400 93 338 93 q 487 114 451 93 q 546 171 524 134 q 580 256 569 208 q 591 359 591 304 z "},"c":{"ha":727,"x_min":63,"x_max":682,"o":"m 389 90 q 472 108 434 90 q 534 158 510 126 q 562 232 559 191 l 682 232 q 638 111 678 167 q 532 21 597 55 q 389 -14 467 -14 q 245 16 307 -14 q 143 96 184 45 q 83 213 103 146 q 63 353 63 279 l 63 381 q 83 521 63 455 q 143 638 103 587 q 245 718 184 689 q 389 747 307 747 q 540 712 475 747 q 641 617 604 677 q 682 481 678 557 l 562 481 q 537 564 559 527 q 477 622 515 600 q 389 644 439 644 q 293 622 332 644 q 231 561 254 599 q 198 476 208 522 q 189 381 189 429 l 189 353 q 198 258 189 304 q 230 173 208 211 q 292 112 253 135 q 389 90 331 90 z "},"d":{"ha":783,"x_min":64,"x_max":684,"o":"m 558 142 l 558 1042 l 684 1042 l 684 0 l 569 0 l 558 142 m 64 359 l 64 373 q 85 526 64 457 q 144 644 106 595 q 236 721 182 694 q 355 747 289 747 q 476 723 424 747 q 564 653 528 699 q 621 543 600 608 q 650 397 642 479 l 650 335 q 622 190 643 254 q 564 80 600 125 q 475 11 528 35 q 353 -14 423 -14 q 236 14 289 -14 q 144 92 182 42 q 85 211 106 142 q 64 359 64 279 m 191 373 l 191 359 q 202 256 191 304 q 237 171 213 208 q 297 114 260 134 q 385 93 334 93 q 487 119 447 93 q 552 189 528 146 q 590 283 576 233 l 590 447 q 567 519 582 484 q 527 582 551 554 q 468 625 503 609 q 386 642 433 642 q 297 620 334 642 q 237 562 260 599 q 202 476 213 525 q 191 373 191 428 z "},"e":{"ha":736,"x_min":63,"x_max":686,"o":"m 400 -14 q 261 13 323 -14 q 155 86 199 39 q 87 199 111 134 q 63 341 63 264 l 63 370 q 90 529 63 459 q 161 648 116 600 q 264 722 207 697 q 384 747 322 747 q 520 720 463 747 q 614 645 577 693 q 668 531 650 596 q 686 388 686 465 l 686 332 l 138 332 l 138 434 l 560 434 l 560 444 q 540 538 557 492 q 486 614 523 585 q 384 644 448 644 q 305 626 341 644 q 243 573 269 608 q 203 487 218 538 q 189 370 189 436 l 189 341 q 204 243 189 289 q 247 163 218 197 q 315 109 275 128 q 407 89 355 89 q 519 116 473 89 q 600 189 566 143 l 676 128 q 616 60 652 92 q 526 7 579 27 q 400 -14 473 -14 z "},"f":{"ha":483,"x_min":41,"x_max":485,"o":"m 283 0 l 157 0 l 157 811 q 186 945 157 890 q 269 1028 215 1000 q 398 1056 323 1056 q 442 1053 420 1056 q 485 1045 464 1050 l 478 943 q 446 947 464 946 q 410 949 428 949 q 341 933 370 949 q 298 886 313 917 q 283 811 283 856 l 283 0 m 439 734 l 439 637 l 41 637 l 41 734 l 439 734 z "},"g":{"ha":780,"x_min":66,"x_max":685,"o":"m 571 734 l 685 734 l 685 16 q 646 -150 685 -81 q 536 -254 606 -218 q 374 -290 466 -290 q 285 -278 336 -290 q 185 -238 234 -266 q 102 -162 136 -210 l 168 -87 q 265 -165 214 -143 q 365 -186 315 -186 q 468 -164 425 -186 q 535 -98 511 -142 q 559 9 559 -54 l 559 572 l 571 734 m 66 359 l 66 373 q 86 526 66 457 q 143 644 106 595 q 235 721 181 694 q 355 747 288 747 q 476 723 425 747 q 565 653 528 699 q 622 543 601 608 q 651 397 643 479 l 651 335 q 622 190 644 254 q 565 80 601 125 q 476 11 528 35 q 354 -14 424 -14 q 235 14 288 -14 q 144 92 182 42 q 86 211 106 142 q 66 359 66 279 m 191 373 l 191 359 q 202 256 191 304 q 237 171 214 208 q 297 114 260 134 q 385 93 334 93 q 488 119 447 93 q 552 189 528 146 q 590 283 576 233 l 590 447 q 567 519 583 484 q 528 582 552 554 q 469 625 504 609 q 386 642 433 642 q 297 620 334 642 q 237 562 260 599 q 202 476 214 525 q 191 373 191 428 z "},"h":{"ha":765,"x_min":96,"x_max":673,"o":"m 221 1042 l 221 0 l 96 0 l 96 1042 l 221 1042 m 191 395 l 139 397 q 161 536 140 472 q 222 648 183 600 q 316 721 262 695 q 437 747 371 747 q 535 733 492 747 q 609 686 578 718 q 656 604 640 654 q 673 481 673 553 l 673 0 l 547 0 l 547 482 q 530 575 547 540 q 480 626 513 610 q 400 642 448 642 q 315 622 353 642 q 249 568 277 602 q 207 489 222 533 q 191 395 191 444 z "},"i":{"ha":338,"x_min":96,"x_max":245,"o":"m 232 734 l 232 0 l 106 0 l 106 734 l 232 734 m 96 928 q 115 980 96 959 q 170 1001 134 1001 q 225 980 206 1001 q 245 928 245 959 q 225 879 245 899 q 170 858 206 858 q 115 879 134 858 q 96 928 96 899 z "},"j":{"ha":332,"x_min":-45,"x_max":235,"o":"m 99 734 l 225 734 l 225 -87 q 204 -201 225 -155 q 140 -272 182 -248 q 33 -296 98 -296 q -6 -293 16 -296 q -45 -285 -29 -290 l -44 -184 q -15 -188 -31 -186 q 14 -190 1 -190 q 60 -180 41 -190 q 89 -147 79 -170 q 99 -87 99 -125 l 99 734 m 86 928 q 105 980 86 959 q 160 1001 124 1001 q 216 980 197 1001 q 235 928 235 959 q 216 879 235 899 q 160 858 197 858 q 105 879 124 858 q 86 928 86 899 z "},"k":{"ha":704,"x_min":96,"x_max":703,"o":"m 222 1042 l 222 0 l 96 0 l 96 1042 l 222 1042 m 670 734 l 350 391 l 171 205 l 161 339 l 289 492 l 517 734 l 670 734 m 555 0 l 294 350 l 359 462 l 703 0 l 555 0 z "},"l":{"ha":338,"x_min":106,"x_max":232,"o":"m 232 1042 l 232 0 l 106 0 l 106 1042 l 232 1042 z "},"m":{"ha":1218,"x_min":94,"x_max":1124,"o":"m 220 588 l 220 0 l 94 0 l 94 734 l 214 734 l 220 588 m 195 395 l 136 397 q 156 536 137 472 q 212 648 175 600 q 305 721 250 695 q 434 747 361 747 q 529 733 486 747 q 604 687 572 718 q 654 607 636 656 q 671 489 671 558 l 671 0 l 546 0 l 546 483 q 527 575 546 541 q 472 626 507 610 q 389 642 437 642 q 296 622 334 642 q 237 568 259 602 q 204 489 214 533 q 195 395 195 444 m 670 464 l 586 438 q 606 554 587 498 q 662 653 625 610 q 753 722 699 696 q 878 747 808 747 q 982 732 937 747 q 1060 684 1028 716 q 1107 602 1091 652 q 1124 482 1124 551 l 1124 0 l 998 0 l 998 484 q 978 579 998 545 q 924 628 959 614 q 841 642 889 642 q 768 627 800 642 q 714 588 736 613 q 681 532 692 564 q 670 464 670 500 z "},"n":{"ha":767,"x_min":96,"x_max":673,"o":"m 221 577 l 221 0 l 96 0 l 96 734 l 214 734 l 221 577 m 191 395 l 139 397 q 161 536 140 472 q 222 648 183 600 q 316 721 262 695 q 437 747 371 747 q 535 733 492 747 q 609 686 578 718 q 656 604 640 654 q 673 481 673 553 l 673 0 l 547 0 l 547 482 q 530 575 547 540 q 480 626 513 610 q 400 642 448 642 q 315 622 353 642 q 249 568 277 602 q 207 489 222 533 q 191 395 191 444 z "},"o":{"ha":792,"x_min":62,"x_max":730,"o":"m 62 359 l 62 374 q 85 522 62 454 q 152 641 109 590 q 257 719 195 691 q 395 747 319 747 q 535 719 473 747 q 641 641 597 691 q 707 522 684 590 q 730 374 730 454 l 730 359 q 707 212 730 279 q 641 93 684 144 q 535 15 597 43 q 397 -14 474 -14 q 258 15 319 -14 q 152 93 196 43 q 85 212 109 144 q 62 359 62 279 m 188 374 l 188 359 q 201 255 188 304 q 240 170 214 207 q 305 111 266 132 q 397 90 345 90 q 487 111 448 90 q 552 170 526 132 q 591 255 578 207 q 604 359 604 304 l 604 374 q 591 477 604 429 q 552 563 578 526 q 487 623 526 601 q 395 644 448 644 q 305 623 344 644 q 240 563 266 601 q 201 477 214 526 q 188 374 188 429 z "},"p":{"ha":780,"x_min":95,"x_max":715,"o":"m 221 593 l 221 -282 l 95 -282 l 95 734 l 210 734 l 221 593 m 715 373 l 715 359 q 696 211 715 279 q 641 92 677 142 q 552 14 605 42 q 431 -14 499 -14 q 307 9 361 -14 q 216 77 254 33 q 157 182 179 121 q 127 321 135 244 l 127 397 q 157 543 135 479 q 217 653 180 608 q 307 723 254 699 q 429 747 359 747 q 551 721 498 747 q 642 644 605 694 q 697 526 678 595 q 715 373 715 457 m 589 359 l 589 373 q 578 476 589 428 q 542 562 566 525 q 481 620 518 599 q 392 642 444 642 q 310 625 345 642 q 250 582 275 609 q 211 519 226 554 q 188 447 195 484 l 188 271 q 226 182 201 224 q 291 115 250 140 q 393 90 332 90 q 481 111 444 90 q 542 170 518 132 q 578 255 566 207 q 589 359 589 304 z "},"q":{"ha":789,"x_min":64,"x_max":684,"o":"m 557 -282 l 557 593 l 568 734 l 684 734 l 684 -282 l 557 -282 m 64 359 l 64 373 q 84 526 64 457 q 142 644 104 595 q 234 721 180 694 q 357 747 288 747 q 478 723 426 747 q 568 653 531 699 q 627 543 605 608 q 656 397 648 479 l 656 335 q 627 190 649 254 q 569 80 606 125 q 478 11 532 35 q 355 -14 425 -14 q 234 14 288 -14 q 142 92 180 42 q 84 211 104 142 q 64 359 64 279 m 191 373 l 191 359 q 202 255 191 304 q 238 170 214 207 q 299 111 262 132 q 387 90 336 90 q 491 117 449 90 q 557 188 532 144 q 596 283 583 233 l 596 447 q 573 519 589 484 q 532 583 557 555 q 471 628 507 611 q 388 644 435 644 q 299 623 336 644 q 238 563 262 601 q 202 477 214 526 q 191 373 191 428 z "},"r":{"ha":471,"x_min":96,"x_max":450,"o":"m 221 618 l 221 0 l 96 0 l 96 734 l 218 734 l 221 618 m 450 738 l 450 621 q 420 626 434 625 q 389 627 406 627 q 312 613 345 627 q 256 575 279 600 q 219 517 233 551 q 202 444 206 484 l 167 423 q 180 548 167 490 q 221 651 193 606 q 292 722 249 696 q 395 747 335 747 q 426 744 408 747 q 450 738 444 741 z "},"s":{"ha":717,"x_min":64,"x_max":648,"o":"m 523 195 q 511 245 523 222 q 463 288 499 269 q 354 321 427 307 q 244 352 293 334 q 160 395 195 370 q 108 454 126 420 q 90 533 90 488 q 109 615 90 576 q 164 684 128 654 q 250 730 199 713 q 361 747 300 747 q 512 716 450 747 q 608 633 574 685 q 641 518 641 581 l 515 518 q 497 577 515 549 q 445 625 479 606 q 361 644 411 644 q 277 628 309 644 q 230 588 245 612 q 216 536 216 564 q 223 500 216 516 q 248 471 230 484 q 300 446 267 458 q 385 423 333 435 q 533 374 475 403 q 620 304 591 346 q 648 204 648 263 q 628 116 648 156 q 571 47 608 76 q 481 2 533 18 q 365 -14 429 -14 q 201 21 268 -14 q 99 111 134 56 q 64 227 64 165 l 191 227 q 220 145 193 175 q 287 102 248 115 q 365 90 326 90 q 451 103 416 90 q 505 140 486 117 q 523 195 523 164 z "},"t":{"ha":454,"x_min":6,"x_max":406,"o":"m 403 734 l 403 637 l 6 637 l 6 734 l 403 734 m 140 912 l 266 912 l 266 182 q 277 125 266 144 q 307 100 289 106 q 347 94 326 94 q 379 97 362 94 q 406 102 397 100 l 406 0 q 367 -9 391 -5 q 309 -14 343 -14 q 224 5 263 -14 q 163 66 186 23 q 140 182 140 109 l 140 912 z "},"u":{"ha":766,"x_min":93,"x_max":671,"o":"m 545 170 l 545 734 l 671 734 l 671 0 l 551 0 l 545 170 m 568 324 l 621 326 q 605 190 621 252 q 556 83 590 128 q 467 12 522 37 q 334 -14 412 -14 q 236 2 280 -14 q 159 50 191 18 q 110 135 127 83 q 93 260 93 187 l 93 734 l 218 734 l 218 259 q 230 177 218 210 q 260 126 241 145 q 303 100 279 108 q 353 93 328 93 q 480 124 433 93 q 548 207 527 155 q 568 324 568 260 z "},"v":{"ha":673,"x_min":22,"x_max":648,"o":"m 319 113 l 519 734 l 648 734 l 384 0 l 300 0 l 319 113 m 151 734 l 358 110 l 372 0 l 288 0 l 22 734 l 151 734 z "},"w":{"ha":1044,"x_min":29,"x_max":1011,"o":"m 281 130 l 470 734 l 553 734 l 536 614 l 345 0 l 264 0 l 281 130 m 155 734 l 315 123 l 327 0 l 242 0 l 29 734 l 155 734 m 733 128 l 886 734 l 1011 734 l 798 0 l 714 0 l 733 128 m 571 734 l 755 140 l 777 0 l 696 0 l 499 615 l 483 734 l 571 734 z "},"x":{"ha":689,"x_min":28,"x_max":659,"o":"m 180 734 l 341 467 l 504 734 l 651 734 l 411 372 l 659 0 l 513 0 l 344 275 l 174 0 l 28 0 l 275 372 l 36 734 l 180 734 z "},"y":{"ha":657,"x_min":15,"x_max":640,"o":"m 302 76 l 506 734 l 640 734 l 346 -113 q 319 -172 336 -140 q 277 -232 302 -203 q 215 -278 251 -260 q 128 -296 178 -296 q 90 -292 113 -296 q 58 -286 67 -288 l 57 -184 q 74 -185 62 -184 q 91 -186 86 -186 q 163 -175 134 -186 q 214 -138 193 -164 q 250 -66 235 -112 l 302 76 m 152 734 l 342 164 l 375 32 l 285 -14 l 15 734 l 152 734 z "},"z":{"ha":689,"x_min":60,"x_max":642,"o":"m 642 103 l 642 0 l 109 0 l 109 103 l 642 103 m 623 645 l 137 0 l 60 0 l 60 92 l 543 734 l 623 734 l 623 645 m 567 734 l 567 630 l 66 630 l 66 734 l 567 734 z "},"{":{"ha":470,"x_min":43,"x_max":455,"o":"m 429 1083 l 455 1006 q 344 916 374 981 q 313 768 313 851 l 313 627 q 286 504 313 559 q 199 416 258 449 q 43 384 140 384 l 43 467 q 154 510 120 467 q 187 627 187 553 l 187 768 q 209 901 187 839 q 284 1010 231 963 q 429 1083 336 1057 m 455 -170 l 429 -248 q 284 -175 336 -222 q 209 -66 231 -128 q 187 67 187 -4 l 187 207 q 172 292 187 256 q 126 348 157 328 q 43 368 94 368 l 43 451 q 199 418 140 451 q 286 331 258 386 q 313 207 313 275 l 313 67 q 327 -36 313 12 q 371 -118 340 -83 q 455 -170 401 -153 z "},"|":{"ha":339,"x_min":119,"x_max":220,"o":"m 220 987 l 220 -183 l 119 -183 l 119 987 l 220 987 z "},"}":{"ha":470,"x_min":14,"x_max":425,"o":"m 14 1006 l 40 1083 q 185 1010 133 1057 q 260 901 238 963 q 281 768 281 839 l 281 627 q 296 542 281 578 q 343 486 311 506 q 425 467 374 467 l 425 390 q 270 421 330 390 q 183 506 210 452 q 155 627 155 559 l 155 768 q 142 871 155 823 q 99 954 130 919 q 14 1006 68 989 m 40 -248 l 14 -170 q 98 -118 67 -153 q 142 -36 129 -83 q 155 67 155 12 l 155 207 q 183 329 155 275 q 270 413 210 382 q 425 444 330 444 l 425 368 q 315 325 349 368 q 281 207 281 281 l 281 67 q 260 -66 281 -4 q 185 -175 238 -128 q 40 -248 133 -222 z "},"~":{"ha":945,"x_min":89,"x_max":857,"o":"m 753 527 l 857 528 q 841 429 857 475 q 795 348 825 383 q 725 293 766 313 q 637 273 685 273 q 533 297 578 273 q 435 367 488 321 q 371 416 400 399 q 308 434 342 434 q 249 417 273 434 q 211 370 224 401 q 198 297 198 340 l 89 296 q 105 394 89 349 q 150 473 121 439 q 219 526 179 507 q 308 545 260 545 q 414 519 368 545 q 510 450 460 494 q 575 400 547 416 q 637 383 604 383 q 698 401 672 383 q 739 452 724 420 q 753 527 753 485 z "},"¡":{"ha":339,"x_min":94,"x_max":243,"o":"m 106 -245 l 116 464 l 229 464 l 239 -245 l 106 -245 m 243 675 q 224 625 243 646 q 169 604 205 604 q 114 625 133 604 q 94 675 94 646 q 114 726 94 705 q 169 747 133 747 q 224 726 205 747 q 243 675 243 705 z "},"¢":{"ha":760,"x_min":71,"x_max":690,"o":"m 454 894 l 454 699 l 328 699 l 328 894 l 454 894 m 454 28 l 454 -166 l 328 -166 l 328 28 l 454 28 m 398 90 q 481 108 443 90 q 543 158 519 126 q 571 232 568 191 l 690 232 q 646 111 687 167 q 541 21 606 55 q 398 -14 476 -14 q 254 16 315 -14 q 152 96 192 45 q 91 213 111 146 q 71 353 71 279 l 71 381 q 91 521 71 455 q 152 638 111 587 q 254 718 193 689 q 398 747 315 747 q 549 712 484 747 q 650 617 613 677 q 690 481 687 557 l 571 481 q 546 564 568 527 q 486 622 524 600 q 398 644 448 644 q 301 622 340 644 q 240 561 262 599 q 207 476 217 522 q 197 381 197 429 l 197 353 q 207 258 197 304 q 239 173 216 211 q 301 112 262 135 q 398 90 340 90 z "},"£":{"ha":808,"x_min":62,"x_max":765,"o":"m 765 0 l 64 0 l 64 106 l 765 106 l 765 0 m 517 422 l 62 422 l 62 529 l 517 529 l 517 422 m 295 705 l 310 273 q 292 154 311 209 q 235 71 273 98 l 117 106 q 154 141 140 113 q 174 205 168 169 q 180 272 180 242 l 165 705 q 204 864 165 798 q 312 966 243 930 q 466 1001 380 1001 q 617 968 555 1001 q 713 875 680 935 q 746 737 746 816 l 616 737 q 593 829 616 794 q 534 879 570 863 q 455 895 497 895 q 374 872 410 895 q 316 808 338 850 q 295 705 295 766 z "},"¤":{"ha":991,"x_min":71,"x_max":930,"o":"m 212 412 q 234 292 212 349 q 296 194 256 236 q 387 127 335 151 q 498 103 439 103 q 610 127 558 103 q 701 194 662 151 q 763 292 741 236 q 785 412 785 349 q 763 532 785 477 q 701 630 741 588 q 610 696 662 673 q 498 720 558 720 q 387 696 439 720 q 296 630 335 673 q 234 532 256 588 q 212 412 212 477 m 95 412 q 126 580 95 503 q 213 715 158 657 q 342 805 269 772 q 498 837 415 837 q 655 805 582 837 q 784 715 728 772 q 871 580 840 657 q 902 412 902 503 q 871 245 902 322 q 784 110 840 168 q 655 19 728 52 q 498 -14 582 -14 q 342 19 415 -14 q 213 110 269 52 q 126 245 158 168 q 95 412 95 322 m 930 765 l 793 625 l 703 718 l 840 858 l 930 765 m 297 122 l 160 -18 l 71 75 l 208 214 l 297 122 m 840 -18 l 703 121 l 793 214 l 930 75 l 840 -18 m 208 625 l 71 765 l 160 857 l 297 718 l 208 625 z "},"¥":{"ha":730,"x_min":10,"x_max":719,"o":"m 648 500 l 648 415 l 81 415 l 81 500 l 648 500 m 648 302 l 648 218 l 81 218 l 81 302 l 648 302 m 326 452 l 574 987 l 719 987 l 425 410 l 342 410 l 326 452 m 157 987 l 408 447 l 388 410 l 305 410 l 10 987 l 157 987 m 427 525 l 427 0 l 297 0 l 297 525 l 427 525 z "},"¦":{"ha":334,"x_min":100,"x_max":226,"o":"m 226 -183 l 100 -183 l 100 354 l 226 354 l 226 -183 m 226 987 l 226 473 l 100 473 l 100 987 l 226 987 z "},"§":{"ha":852,"x_min":62,"x_max":777,"o":"m 474 73 l 474 153 q 570 171 530 153 q 630 220 609 189 q 651 290 651 251 q 639 346 651 322 q 600 390 627 370 q 525 429 572 410 q 409 469 478 448 q 277 512 335 489 q 179 568 219 536 q 117 645 138 600 q 96 753 96 690 q 120 856 96 810 q 186 934 143 901 q 291 984 230 966 q 428 1002 352 1002 q 606 968 532 1002 q 721 869 681 934 q 761 709 761 804 l 635 709 q 611 805 635 762 q 541 873 587 848 q 428 899 495 899 q 311 879 357 899 q 244 827 266 859 q 222 755 222 794 q 232 696 222 721 q 269 653 243 672 q 341 617 294 634 q 458 580 387 600 q 593 535 534 559 q 693 478 652 511 q 755 401 734 446 q 777 292 777 355 q 755 200 777 241 q 694 131 734 159 q 598 88 654 103 q 474 73 543 73 m 356 593 l 356 511 q 263 493 300 511 q 209 445 227 475 q 191 375 191 414 q 202 316 191 341 q 239 272 212 292 q 312 235 265 252 q 432 197 359 217 q 566 152 507 176 q 664 97 624 128 q 725 20 704 65 q 746 -87 746 -24 q 723 -193 746 -146 q 656 -271 699 -239 q 552 -319 612 -302 q 416 -336 491 -336 q 288 -321 351 -336 q 173 -272 224 -306 q 92 -182 122 -238 q 62 -43 62 -125 l 187 -42 q 208 -133 187 -96 q 261 -191 228 -170 q 335 -223 295 -213 q 416 -233 376 -233 q 527 -214 481 -233 q 596 -162 572 -195 q 621 -89 621 -130 q 609 -34 621 -57 q 570 9 597 -10 q 497 47 543 28 q 382 85 451 65 q 250 130 309 106 q 150 186 191 154 q 87 265 109 219 q 66 374 66 311 q 86 464 66 424 q 144 533 106 505 q 236 577 182 562 q 356 593 290 593 z "},"¨":{"ha":581,"x_min":68,"x_max":509,"o":"m 68 930 q 87 981 68 960 q 142 1002 106 1002 q 198 981 179 1002 q 217 930 217 960 q 198 880 217 901 q 142 859 179 859 q 87 880 106 859 q 68 930 68 901 m 361 928 q 379 980 361 959 q 435 1001 398 1001 q 490 980 471 1001 q 509 928 509 959 q 490 879 509 899 q 435 858 471 858 q 379 879 398 858 q 361 928 361 899 z "},"©":{"ha":1091,"x_min":62,"x_max":1025,"o":"m 661 406 l 760 406 q 699 246 760 299 q 534 193 638 193 q 410 226 463 193 q 329 318 357 259 q 300 455 300 377 l 300 533 q 329 670 300 611 q 410 762 357 729 q 534 795 463 795 q 699 743 638 795 q 760 583 760 690 l 661 583 q 629 680 661 650 q 534 709 597 709 q 459 686 490 709 q 413 624 429 664 q 397 534 397 585 l 397 455 q 413 364 397 404 q 459 302 429 324 q 534 279 490 279 q 629 309 597 279 q 661 406 661 338 m 140 494 q 172 326 140 404 q 258 190 203 248 q 387 99 314 132 q 544 66 460 66 q 700 99 627 66 q 828 190 773 132 q 915 326 884 248 q 946 494 946 404 q 915 663 946 585 q 828 798 884 740 q 700 888 773 856 q 544 920 627 920 q 387 888 460 920 q 258 798 314 856 q 172 663 203 740 q 140 494 140 585 m 62 494 q 100 694 62 602 q 203 856 137 787 q 357 963 270 924 q 544 1001 444 1001 q 731 963 644 1001 q 884 856 818 924 q 987 694 950 787 q 1025 494 1025 602 q 987 294 1025 387 q 884 133 950 202 q 731 24 818 63 q 544 -14 644 -14 q 357 24 444 -14 q 203 133 270 63 q 100 294 137 202 q 62 494 62 387 z "},"ª":{"ha":621,"x_min":100,"x_max":532,"o":"m 404 585 l 404 815 q 394 865 404 844 q 367 896 385 885 q 319 906 348 906 q 246 888 273 906 q 219 835 219 870 l 110 844 q 136 925 110 890 q 209 981 162 961 q 319 1002 256 1002 q 421 981 378 1002 q 490 918 465 960 q 514 814 514 877 l 514 602 q 518 538 514 568 q 532 479 522 509 l 420 479 q 404 585 404 530 m 431 779 l 431 704 l 330 704 q 263 693 290 704 q 223 665 236 682 q 210 625 210 647 q 231 579 210 596 q 295 562 252 562 q 354 575 324 562 q 403 608 383 589 q 422 644 422 627 l 435 568 q 403 523 425 546 q 348 485 382 500 q 269 469 315 469 q 143 511 187 469 q 100 623 100 553 q 125 708 100 673 q 202 761 151 743 q 330 779 253 779 l 431 779 z "},"«":{"ha":652,"x_min":68,"x_max":589,"o":"m 365 642 l 188 369 l 68 370 l 68 378 l 269 642 l 365 642 m 188 375 l 365 102 l 269 102 l 68 366 l 68 374 l 188 375 m 589 642 l 412 369 l 293 370 l 293 378 l 493 642 l 589 642 m 412 375 l 589 102 l 493 102 l 293 366 l 293 374 l 412 375 z "},"¬":{"ha":769,"x_min":86,"x_max":650,"o":"m 650 543 l 650 433 l 86 433 l 86 543 l 650 543 m 650 492 l 650 255 l 524 255 l 524 492 l 650 492 z "},"®":{"ha":1092,"x_min":62,"x_max":1024,"o":"m 561 444 l 413 444 l 412 531 l 549 531 q 603 541 578 532 q 643 569 627 551 q 658 613 658 587 q 646 667 658 647 q 608 695 635 686 q 535 704 581 704 l 443 704 l 443 215 l 347 215 l 347 790 l 535 790 q 651 771 602 790 q 726 714 700 752 q 753 617 753 675 q 736 551 753 581 q 686 501 719 522 q 607 467 654 480 q 603 463 605 467 q 598 458 600 458 q 584 449 587 452 q 577 445 581 446 q 561 444 574 444 m 554 444 l 568 505 q 711 461 673 505 q 749 349 749 416 l 749 312 q 752 264 749 287 q 761 226 755 241 l 761 215 l 663 215 q 655 265 656 233 q 654 313 654 298 l 654 348 q 631 421 654 397 q 554 444 608 444 m 140 494 q 171 326 140 404 q 258 190 202 248 q 387 99 313 132 q 543 66 460 66 q 700 99 627 66 q 828 190 772 132 q 914 326 883 248 q 945 494 945 404 q 914 663 945 585 q 828 798 883 740 q 700 888 772 856 q 543 920 627 920 q 387 888 460 920 q 258 798 313 856 q 171 663 202 740 q 140 494 140 585 m 62 494 q 99 694 62 602 q 203 856 136 787 q 356 963 269 924 q 543 1001 444 1001 q 730 963 643 1001 q 883 856 817 924 q 987 694 949 787 q 1024 494 1024 602 q 987 294 1024 387 q 883 133 949 202 q 730 24 817 63 q 543 -14 643 -14 q 356 24 444 -14 q 203 133 269 63 q 99 294 136 202 q 62 494 62 387 z "},"¯":{"ha":637,"x_min":97,"x_max":552,"o":"m 552 980 l 552 884 l 97 884 l 97 980 l 552 980 z "},"°":{"ha":519,"x_min":89,"x_max":432,"o":"m 89 825 q 113 913 89 873 q 176 978 136 954 q 262 1002 215 1002 q 347 978 309 1002 q 409 913 386 954 q 432 825 432 873 q 409 738 432 777 q 347 674 386 698 q 262 651 309 651 q 176 674 215 651 q 113 738 136 698 q 89 825 89 777 m 173 825 q 199 763 173 788 q 262 738 225 738 q 323 763 298 738 q 348 825 348 788 q 323 889 348 863 q 262 915 298 915 q 199 889 225 915 q 173 825 173 863 z "},"±":{"ha":743,"x_min":66,"x_max":687,"o":"m 687 580 l 687 477 l 66 477 l 66 580 l 687 580 m 441 859 l 441 196 l 328 196 l 328 859 l 441 859 m 659 103 l 659 1 l 92 1 l 92 103 l 659 103 z "},"²":{"ha":509,"x_min":45,"x_max":463,"o":"m 463 539 l 463 452 l 58 452 l 58 526 l 253 709 q 301 760 283 738 q 327 801 319 783 q 334 833 334 819 q 313 887 334 866 q 251 908 291 908 q 176 882 200 908 q 152 818 152 857 l 45 818 q 69 907 45 867 q 139 971 94 947 q 248 995 184 995 q 353 975 309 995 q 419 920 396 956 q 442 835 442 884 q 426 768 442 799 q 381 705 410 736 q 312 638 352 674 l 193 539 l 463 539 z "},"³":{"ha":509,"x_min":43,"x_max":452,"o":"m 180 764 l 237 764 q 292 773 271 764 q 325 799 314 783 q 336 838 336 816 q 315 888 336 867 q 246 908 293 908 q 182 891 208 908 q 157 845 157 874 l 50 845 q 76 925 50 891 q 146 977 102 958 q 244 995 190 995 q 348 978 303 995 q 418 926 393 960 q 443 843 443 892 q 421 777 443 807 q 357 729 399 747 q 256 711 315 711 l 180 711 l 180 764 m 180 686 l 180 739 l 256 739 q 367 722 323 739 q 431 675 410 706 q 452 602 452 645 q 425 517 452 552 q 351 463 398 481 q 245 445 304 445 q 148 461 194 445 q 72 513 101 478 q 43 604 43 549 l 149 604 q 176 552 149 573 q 248 532 203 532 q 320 553 296 532 q 345 607 345 574 q 332 653 345 635 q 295 678 319 670 q 237 686 271 686 l 180 686 z "},"´":{"ha":435,"x_min":83,"x_max":366,"o":"m 83 842 l 215 1042 l 366 1042 l 184 842 l 83 842 z "},"µ":{"ha":787,"x_min":105,"x_max":682,"o":"m 557 734 l 682 734 l 682 0 l 569 0 l 557 170 l 557 734 m 579 341 l 626 342 q 612 200 626 265 q 569 87 598 135 q 494 12 540 39 q 385 -14 449 -14 q 293 -1 334 -14 q 224 41 253 12 q 176 116 195 70 l 151 312 l 230 312 q 241 198 230 242 q 274 130 253 154 q 321 98 294 106 q 380 89 349 89 q 479 107 440 89 q 540 160 518 126 q 570 240 562 194 q 579 341 579 286 m 105 734 l 230 734 l 230 -282 l 105 -282 l 105 734 z "},"¶":{"ha":680,"x_min":46,"x_max":565,"o":"m 565 0 l 439 0 l 439 353 l 380 353 q 197 394 272 353 q 84 507 123 435 q 46 670 46 578 q 84 833 46 761 q 197 946 123 905 q 380 987 272 987 l 565 987 l 565 0 z "},"·":{"ha":363,"x_min":100,"x_max":256,"o":"m 100 494 q 120 548 100 526 q 178 570 140 570 q 236 548 216 570 q 256 494 256 526 q 236 442 256 463 q 178 420 216 420 q 120 442 140 420 q 100 494 100 463 z "},"¸":{"ha":345,"x_min":79,"x_max":289,"o":"m 103 0 l 193 0 l 185 -36 q 257 -68 224 -43 q 289 -153 289 -94 q 276 -211 289 -185 q 237 -256 262 -237 q 173 -285 211 -275 q 83 -295 134 -295 l 79 -222 q 135 -216 110 -222 q 176 -194 161 -209 q 191 -155 191 -179 q 180 -120 191 -133 q 144 -101 168 -107 q 82 -92 120 -94 l 103 0 z "},"¹":{"ha":509,"x_min":83,"x_max":336,"o":"m 336 987 l 336 452 l 230 452 l 230 860 l 83 821 l 83 909 l 323 987 l 336 987 z "},"º":{"ha":632,"x_min":83,"x_max":547,"o":"m 83 707 l 83 762 q 112 886 83 832 q 192 971 140 940 q 315 1002 244 1002 q 439 971 387 1002 q 519 886 491 940 q 547 762 547 832 l 547 707 q 519 584 547 637 q 439 499 491 530 q 317 469 388 469 q 193 499 245 469 q 112 584 140 530 q 83 707 83 637 m 194 762 l 194 707 q 207 633 194 666 q 248 582 220 601 q 317 563 275 563 q 384 582 357 563 q 424 633 411 601 q 437 707 437 666 l 437 762 q 424 836 437 803 q 384 887 410 868 q 315 906 357 906 q 248 887 275 906 q 207 836 220 868 q 194 762 194 803 z "},"»":{"ha":651,"x_min":70,"x_max":603,"o":"m 70 104 l 247 376 l 366 376 l 366 367 l 166 104 l 70 104 m 70 644 l 166 644 l 366 380 l 366 371 l 247 370 l 70 644 m 307 104 l 484 376 l 603 376 l 603 367 l 403 104 l 307 104 m 307 644 l 403 644 l 603 380 l 603 371 l 484 370 l 307 644 z "},"¼":{"ha":1017,"x_min":58,"x_max":967,"o":"m 310 985 l 310 450 l 204 450 l 204 858 l 58 819 l 58 907 l 298 985 l 310 985 m 783 852 l 301 81 l 231 125 l 713 897 l 783 852 m 967 203 l 967 115 l 534 115 l 529 184 l 785 535 l 869 535 l 777 380 l 636 203 l 967 203 m 894 535 l 894 0 l 787 0 l 787 535 l 894 535 z "},"½":{"ha":1078,"x_min":54,"x_max":1004,"o":"m 753 852 l 271 81 l 201 125 l 683 897 l 753 852 m 307 985 l 307 450 l 201 450 l 201 858 l 54 819 l 54 907 l 294 985 l 307 985 m 1004 87 l 1004 0 l 599 0 l 599 73 l 794 257 q 842 308 825 286 q 868 348 860 330 q 876 381 876 366 q 854 435 876 414 q 792 456 832 456 q 717 430 741 456 q 693 366 693 404 l 586 366 q 610 454 586 414 q 680 518 635 494 q 789 543 726 543 q 894 523 850 543 q 960 468 937 503 q 983 382 983 432 q 967 315 983 347 q 922 253 951 284 q 853 186 893 222 l 734 87 l 1004 87 z "},"¾":{"ha":1080,"x_min":76,"x_max":1029,"o":"m 869 852 l 387 81 l 317 125 l 799 897 l 869 852 m 1029 203 l 1029 115 l 596 115 l 591 184 l 848 535 l 932 535 l 839 380 l 699 203 l 1029 203 m 956 535 l 956 0 l 850 0 l 850 535 l 956 535 m 214 764 l 271 764 q 326 773 304 764 q 358 799 347 783 q 370 838 370 816 q 348 888 370 867 q 279 908 326 908 q 215 891 241 908 q 190 845 190 874 l 83 845 q 109 925 83 891 q 179 977 135 958 q 277 995 223 995 q 381 978 336 995 q 451 926 426 960 q 476 843 476 892 q 454 777 476 807 q 390 729 432 747 q 289 711 349 711 l 214 711 l 214 764 m 214 686 l 214 739 l 289 739 q 400 722 357 739 q 465 675 444 706 q 486 602 486 645 q 458 517 486 552 q 384 463 431 481 q 278 445 337 445 q 181 461 227 445 q 105 513 134 478 q 76 604 76 549 l 182 604 q 210 552 182 573 q 281 532 237 532 q 354 553 329 532 q 378 607 378 574 q 365 653 378 635 q 328 678 352 670 q 271 686 304 686 l 214 686 z "},"¿":{"ha":658,"x_min":46,"x_max":603,"o":"m 273 461 l 399 461 q 388 356 399 396 q 352 281 376 315 q 285 202 327 248 q 231 143 256 172 q 189 81 205 115 q 172 0 172 47 q 190 -83 172 -50 q 241 -135 208 -117 q 324 -152 275 -152 q 399 -137 364 -152 q 455 -91 433 -122 q 477 -14 477 -60 l 603 -14 q 565 -146 602 -90 q 466 -232 528 -202 q 324 -262 403 -262 q 174 -231 236 -262 q 79 -143 112 -201 q 46 -4 46 -85 q 71 110 46 58 q 134 208 96 163 q 212 292 172 253 q 250 342 237 316 q 268 398 263 368 q 273 461 273 428 m 405 676 q 386 625 405 646 q 331 604 367 604 q 275 625 294 604 q 256 676 256 646 q 275 727 256 706 q 331 747 294 747 q 386 727 367 747 q 405 676 405 706 z "},"Æ":{"ha":1298,"x_min":-10,"x_max":1275,"o":"m 658 886 l 144 0 l -10 0 l 587 987 l 668 987 l 658 886 m 756 358 l 756 239 l 252 239 l 252 358 l 756 358 m 1275 103 l 1275 0 l 778 0 l 778 103 l 1275 103 m 760 987 l 802 0 l 675 0 l 634 987 l 760 987 m 1178 566 l 1178 463 l 751 463 l 751 566 l 1178 566 m 1233 987 l 1233 884 l 736 884 l 736 987 l 1233 987 z "},"×":{"ha":741,"x_min":60,"x_max":671,"o":"m 141 140 l 60 223 l 589 762 l 669 678 l 141 140 m 591 140 l 62 678 l 143 762 l 671 223 l 591 140 z "},"Ø":{"ha":956,"x_min":81,"x_max":888,"o":"m 888 1028 l 208 -63 l 111 -63 l 793 1028 l 888 1028 m 875 525 l 875 463 q 847 263 875 351 q 767 113 819 175 q 642 19 715 52 q 479 -14 569 -14 q 348 7 409 -14 q 238 69 287 28 q 153 167 189 109 q 99 299 118 225 q 81 463 81 374 l 81 525 q 110 724 81 636 q 191 874 138 812 q 317 968 244 936 q 477 1001 390 1001 q 611 980 549 1001 q 721 919 672 959 q 804 820 770 878 q 857 688 838 762 q 875 525 875 614 m 745 463 l 745 526 q 734 654 745 597 q 700 755 722 711 q 645 829 677 800 q 570 874 612 859 q 477 890 528 890 q 367 866 416 890 q 283 796 318 842 q 229 682 248 750 q 210 526 210 614 l 210 463 q 222 334 210 391 q 258 232 235 276 q 314 157 281 187 q 389 112 347 127 q 479 97 430 97 q 592 121 543 97 q 676 191 642 144 q 728 306 710 237 q 745 463 745 374 z "},"Þ":{"ha":821,"x_min":113,"x_max":758,"o":"m 113 987 l 239 987 l 239 0 l 113 0 l 113 987 m 176 789 l 427 789 q 608 751 534 789 q 720 649 682 714 q 758 500 758 584 q 720 353 758 418 q 608 250 682 288 q 427 213 534 213 l 211 213 l 211 315 l 427 315 q 546 342 500 315 q 611 411 591 369 q 632 499 632 453 q 611 589 632 547 q 546 659 591 632 q 427 686 500 686 l 237 686 l 176 789 z "},"ß":{"ha":826,"x_min":95,"x_max":766,"o":"m 220 754 l 220 0 l 95 0 l 95 754 q 114 885 95 829 q 169 978 134 941 q 253 1035 204 1016 q 361 1054 302 1054 q 493 1029 435 1054 q 583 955 550 1005 q 616 825 616 904 q 603 735 616 771 q 573 671 590 699 q 543 617 556 644 q 530 556 530 591 q 553 489 530 519 q 612 433 577 460 q 683 375 648 406 q 743 306 719 345 q 766 215 766 267 q 733 87 766 138 q 640 11 699 36 q 505 -14 581 -14 q 428 -6 469 -14 q 354 12 387 1 q 302 35 320 23 l 331 140 q 400 107 355 125 q 492 89 445 89 q 578 105 545 89 q 626 149 611 121 q 641 209 641 176 q 617 277 641 248 q 558 334 593 307 q 487 392 523 361 q 428 463 452 422 q 404 557 404 503 q 418 629 404 598 q 451 688 433 661 q 484 746 469 715 q 498 814 498 776 q 481 890 498 860 q 435 936 464 920 q 368 951 406 951 q 288 930 321 951 q 237 866 255 909 q 220 754 220 822 z "},"æ":{"ha":1173,"x_min":54,"x_max":1126,"o":"m 508 124 l 508 488 q 491 572 508 537 q 442 626 475 607 q 363 644 410 644 q 275 627 313 644 q 218 580 238 609 q 197 515 197 551 l 73 528 q 94 615 73 575 q 153 685 115 655 q 244 731 191 715 q 363 747 298 747 q 503 718 443 747 q 596 631 563 689 q 630 487 630 574 l 630 148 l 508 124 m 536 431 l 536 336 l 359 336 q 260 318 300 336 q 199 269 220 299 q 179 203 179 239 q 194 145 179 171 q 240 103 210 119 q 319 88 271 88 q 394 102 355 88 q 464 138 432 116 q 516 184 496 160 q 537 230 536 209 l 602 132 q 544 65 584 99 q 443 8 505 31 q 294 -14 380 -14 q 163 13 217 -14 q 81 90 109 40 q 54 206 54 140 q 73 301 54 260 q 131 372 92 343 q 226 416 169 401 q 357 431 283 431 l 536 431 m 857 -14 q 709 13 773 -14 q 602 89 646 40 q 536 205 559 138 q 514 353 514 273 l 514 382 q 537 530 514 463 q 603 646 561 597 q 703 721 646 694 q 827 747 760 748 q 956 725 900 747 q 1050 659 1012 702 q 1107 555 1088 616 q 1126 418 1126 494 l 1126 338 l 581 338 l 581 434 l 1000 434 l 1000 455 q 983 549 1000 507 q 928 618 966 592 q 827 644 890 644 q 744 624 780 644 q 683 568 708 604 q 646 484 659 532 q 633 382 633 437 l 633 353 q 646 250 633 298 q 686 166 659 202 q 755 109 713 130 q 857 89 798 89 q 987 114 937 89 q 1070 161 1036 138 l 1114 69 q 1066 38 1099 58 q 981 2 1034 18 q 857 -14 929 -14 z "},"ð":{"ha":814,"x_min":85,"x_max":726,"o":"m 173 964 l 212 1072 q 420 991 326 1046 q 583 853 515 935 q 689 664 652 770 q 726 429 726 557 l 726 363 q 702 210 726 279 q 636 91 679 141 q 535 14 593 41 q 408 -14 477 -14 q 278 12 337 -14 q 175 83 218 37 q 109 188 132 128 q 85 317 85 248 q 108 459 85 396 q 172 569 131 523 q 268 639 213 614 q 389 663 323 663 q 527 627 466 663 q 625 534 589 591 q 661 416 661 477 l 614 416 q 602 464 614 439 q 565 511 589 489 q 505 547 541 533 q 419 560 468 560 q 331 543 370 560 q 266 495 292 526 q 225 418 239 463 q 212 317 212 374 q 225 235 212 275 q 263 162 238 195 q 326 109 289 129 q 411 90 363 90 q 490 110 455 90 q 549 168 524 131 q 587 255 574 205 q 600 363 600 304 l 600 431 q 566 640 600 550 q 473 793 532 729 q 337 900 414 858 q 173 964 260 941 m 670 961 l 306 713 l 256 781 l 621 1028 l 670 961 z "},"÷":{"ha":793,"x_min":48,"x_max":725,"o":"m 725 532 l 725 407 l 48 407 l 48 532 l 725 532 m 313 745 q 333 799 313 777 q 391 821 353 821 q 449 799 429 821 q 469 745 469 777 q 449 692 469 713 q 391 671 429 671 q 333 692 353 671 q 313 745 313 713 m 313 191 q 333 245 313 223 q 391 267 353 267 q 449 245 429 267 q 469 191 469 223 q 449 138 469 160 q 391 117 429 117 q 333 138 353 117 q 313 191 313 160 z "},"ø":{"ha":787,"x_min":62,"x_max":730,"o":"m 667 820 l 217 -92 l 134 -92 l 583 820 l 667 820 m 62 359 l 62 374 q 85 522 62 454 q 152 641 109 590 q 257 719 195 691 q 395 747 319 747 q 535 719 473 747 q 640 641 597 691 q 707 522 684 590 q 730 374 730 454 l 730 359 q 707 212 730 279 q 640 93 684 144 q 535 15 597 43 q 397 -14 474 -14 q 258 15 319 -14 q 152 93 196 43 q 85 212 109 144 q 62 359 62 279 m 188 374 l 188 359 q 201 255 188 304 q 240 170 214 207 q 305 111 266 132 q 397 90 345 90 q 487 111 448 90 q 552 170 526 132 q 591 255 578 207 q 604 359 604 304 l 604 374 q 591 477 604 429 q 552 563 578 526 q 487 623 526 601 q 395 644 448 644 q 305 623 344 644 q 240 563 266 601 q 201 477 214 526 q 188 374 188 429 z "},"þ":{"ha":800,"x_min":101,"x_max":722,"o":"m 227 1042 l 227 -282 l 101 -282 l 101 1042 l 227 1042 m 722 373 l 722 359 q 703 211 722 279 q 647 92 684 142 q 558 14 611 42 q 437 -14 505 -14 q 313 9 367 -14 q 222 77 260 33 q 163 182 185 121 q 133 321 141 244 l 133 397 q 163 543 141 479 q 223 653 186 608 q 313 723 260 699 q 435 747 366 747 q 557 721 504 747 q 648 644 611 694 q 703 526 684 595 q 722 373 722 457 m 595 359 l 595 373 q 584 476 595 428 q 548 562 572 525 q 487 620 524 599 q 398 642 450 642 q 316 625 351 642 q 256 582 281 609 q 217 519 232 554 q 194 447 201 484 l 194 271 q 220 203 204 235 q 260 145 236 170 q 318 104 284 119 q 399 90 353 90 q 487 111 450 90 q 548 170 524 132 q 584 255 572 207 q 595 359 595 304 z "},"đ":{"ha":830,"x_min":64,"x_max":812,"o":"m 558 142 l 558 1042 l 684 1042 l 684 0 l 569 0 l 558 142 m 64 359 l 64 373 q 85 526 64 457 q 144 644 106 595 q 236 721 182 694 q 355 747 289 747 q 476 723 424 747 q 564 653 528 699 q 621 543 600 608 q 650 397 642 479 l 650 335 q 622 190 643 254 q 564 80 600 125 q 475 11 528 35 q 353 -14 423 -14 q 236 14 289 -14 q 144 92 182 42 q 85 211 106 142 q 64 359 64 279 m 191 373 l 191 359 q 202 256 191 304 q 237 171 213 208 q 297 114 260 134 q 385 93 334 93 q 487 119 447 93 q 552 189 528 146 q 590 283 576 233 l 590 447 q 567 519 582 484 q 527 582 551 554 q 468 625 503 609 q 386 642 433 642 q 297 620 334 642 q 237 562 260 599 q 202 476 213 525 q 191 373 191 428 m 812 939 l 812 836 l 380 836 l 380 939 l 812 939 z "},"Ħ":{"ha":973,"x_min":20,"x_max":961,"o":"m 961 791 l 961 694 l 20 694 l 20 791 l 961 791 m 755 563 l 755 456 l 221 456 l 221 563 l 755 563 m 241 987 l 241 0 l 111 0 l 111 987 l 241 987 m 870 987 l 870 0 l 739 0 l 739 987 l 870 987 z "},"ı":{"ha":344,"x_min":106,"x_max":231,"o":"m 231 734 l 231 0 l 106 0 l 106 734 l 231 734 z "},"ĸ":{"ha":773,"x_min":105,"x_max":738,"o":"m 231 734 l 231 0 l 105 0 l 105 734 l 231 734 m 713 734 l 351 313 l 189 313 l 170 423 l 293 423 l 562 734 l 713 734 m 579 0 l 287 332 l 368 423 l 738 0 l 579 0 z "},"Ł":{"ha":748,"x_min":24,"x_max":713,"o":"m 423 629 l 423 545 l 24 418 l 24 503 l 423 629 m 713 106 l 713 0 l 219 0 l 219 106 l 713 106 m 245 987 l 245 0 l 115 0 l 115 987 l 245 987 z "},"ł":{"ha":376,"x_min":24,"x_max":355,"o":"m 355 631 l 355 548 l 24 421 l 24 504 l 355 631 m 247 1042 l 247 0 l 121 0 l 121 1042 l 247 1042 z "},"Ŋ":{"ha":962,"x_min":110,"x_max":858,"o":"m 110 987 l 241 987 l 241 0 l 110 0 l 110 987 m 149 910 l 241 987 l 819 77 l 727 0 l 149 910 m 727 987 l 858 987 l 858 -57 q 831 -188 858 -134 q 755 -269 804 -241 q 636 -296 705 -296 q 597 -294 615 -296 q 558 -285 578 -292 l 568 -180 q 602 -187 579 -184 q 634 -189 624 -189 q 685 -173 664 -189 q 716 -128 705 -157 q 727 -57 727 -98 l 727 987 z "},"ŋ":{"ha":787,"x_min":99,"x_max":684,"o":"m 224 577 l 224 0 l 99 0 l 99 734 l 212 734 l 224 577 m 186 391 l 157 389 q 176 533 157 467 q 231 646 195 598 q 319 721 267 694 q 436 747 371 747 q 539 731 493 747 q 617 681 585 715 q 667 592 650 646 q 684 463 684 538 l 684 -60 q 658 -189 684 -136 q 583 -269 632 -242 q 465 -296 534 -296 q 426 -294 444 -296 q 388 -285 408 -292 l 397 -178 q 432 -184 408 -182 q 465 -186 456 -186 q 516 -172 495 -186 q 548 -130 536 -158 q 559 -60 559 -102 l 559 460 q 548 546 559 511 q 517 602 538 581 q 467 632 496 623 q 399 642 437 642 q 302 622 342 642 q 236 568 262 602 q 198 488 210 533 q 186 391 186 442 z "},"Œ":{"ha":1324,"x_min":71,"x_max":1221,"o":"m 448 1002 q 551 997 500 1002 q 647 987 602 993 l 647 880 q 552 893 602 888 q 448 899 501 899 q 343 879 390 899 q 264 822 297 860 q 214 728 231 784 q 197 598 197 672 l 197 391 q 214 260 197 317 q 265 166 232 204 q 345 108 298 127 q 449 89 391 89 q 552 94 502 89 q 647 107 603 99 l 647 0 q 551 -9 602 -5 q 449 -14 501 -14 q 295 15 365 -14 q 176 99 226 45 q 98 227 125 153 q 71 391 71 301 l 71 597 q 98 761 71 686 q 175 889 125 835 q 294 972 225 943 q 448 1002 363 1002 m 1221 106 l 1221 0 l 699 0 l 699 106 l 1221 106 m 725 987 l 725 0 l 594 0 l 594 987 l 725 987 m 1152 563 l 1152 456 l 699 456 l 699 563 l 1152 563 m 1215 987 l 1215 880 l 699 880 l 699 987 l 1215 987 z "},"œ":{"ha":1261,"x_min":66,"x_max":1215,"o":"m 935 -14 q 798 13 859 -14 q 693 89 736 40 q 626 205 650 138 q 603 353 603 273 l 603 382 q 628 530 603 463 q 697 646 654 597 q 798 721 741 694 q 916 747 854 748 q 1048 723 992 747 q 1142 655 1105 699 q 1197 552 1179 612 q 1215 420 1215 492 l 1215 338 l 677 338 l 677 440 l 1090 440 l 1090 458 q 1072 550 1090 507 q 1015 618 1053 592 q 916 644 977 644 q 841 624 875 644 q 781 568 806 604 q 743 484 756 532 q 729 382 729 437 l 729 353 q 742 250 729 298 q 781 166 755 202 q 846 109 807 130 q 935 89 884 89 q 1060 110 1010 89 q 1145 162 1111 132 l 1194 77 q 1098 15 1161 44 q 935 -14 1035 -14 m 66 359 l 66 374 q 88 522 66 454 q 153 641 111 590 q 256 719 195 691 q 393 747 316 747 q 532 719 471 747 q 635 641 593 691 q 700 522 677 590 q 722 374 722 454 l 722 359 q 700 211 722 279 q 635 93 677 143 q 532 14 593 42 q 394 -14 471 -14 q 256 14 317 -14 q 153 93 195 42 q 88 211 111 143 q 66 359 66 279 m 192 374 l 192 359 q 204 255 192 304 q 241 169 216 207 q 304 110 266 132 q 394 89 342 89 q 484 110 446 89 q 547 169 522 132 q 584 255 572 207 q 596 359 596 304 l 596 374 q 584 477 596 429 q 547 563 572 526 q 483 623 522 601 q 393 644 445 644 q 303 623 341 644 q 240 563 265 601 q 204 477 216 526 q 192 374 192 429 z "},"ſ":{"ha":345,"x_min":109,"x_max":436,"o":"m 235 0 l 109 0 l 109 811 q 137 945 109 890 q 216 1028 165 1000 q 338 1056 267 1056 q 387 1052 363 1056 q 436 1042 411 1048 l 420 945 q 393 951 408 949 q 358 953 378 953 q 291 936 318 953 q 249 887 263 919 q 235 811 235 856 l 235 0 z "},"Ə":{"ha":960,"x_min":64,"x_max":880,"o":"m 473 -14 q 296 18 372 -14 q 168 108 219 49 q 90 250 116 167 q 64 436 64 333 l 64 520 l 800 520 l 800 419 l 195 419 l 195 396 q 209 278 195 333 q 256 182 224 223 q 342 118 289 141 q 473 94 395 94 q 591 123 539 94 q 678 202 642 151 q 732 319 713 252 q 750 461 750 385 l 750 525 q 732 668 750 602 q 676 785 714 734 q 578 864 638 836 q 435 892 519 892 q 287 873 347 892 q 187 836 227 854 l 155 932 q 208 960 172 943 q 300 988 243 976 q 435 1001 357 1001 q 626 966 543 1001 q 765 868 709 931 q 851 717 822 804 q 880 525 880 630 l 880 461 q 849 269 880 356 q 761 118 817 182 q 631 21 705 55 q 473 -14 557 -14 z "},"ƒ":{"ha":473,"x_min":-20,"x_max":475,"o":"m 412 734 l 412 637 l 275 637 l 275 -60 q 249 -189 275 -136 q 174 -269 222 -242 q 56 -296 125 -296 q 18 -294 35 -296 q -20 -285 0 -292 l -10 -184 q 23 -191 0 -189 q 56 -193 47 -193 q 106 -177 85 -193 q 138 -132 127 -161 q 149 -60 149 -102 l 149 637 l 33 637 l 33 734 l 149 734 l 149 811 q 177 945 149 890 q 256 1028 204 1000 q 378 1056 307 1056 q 427 1052 403 1056 q 475 1042 451 1048 l 460 943 q 430 948 448 946 q 393 949 413 949 q 327 933 353 949 q 288 887 300 918 q 275 811 275 856 l 275 734 l 412 734 z "},"Ơ":{"ha":954,"x_min":69,"x_max":975,"o":"m 861 1080 l 975 1080 q 946 930 975 992 q 860 837 918 869 q 717 804 803 804 l 717 896 q 802 918 770 896 q 847 981 833 939 q 861 1080 861 1022 m 863 525 l 863 463 q 836 263 863 351 q 755 113 808 175 q 630 19 703 52 q 467 -14 557 -14 q 336 7 397 -14 q 226 69 275 28 q 142 167 177 109 q 88 299 106 225 q 69 463 69 374 l 69 525 q 98 724 69 636 q 180 874 127 812 q 306 968 233 936 q 466 1001 378 1001 q 600 980 538 1001 q 710 919 661 959 q 793 820 758 878 q 845 688 827 762 q 863 525 863 614 m 734 463 l 734 526 q 722 654 734 597 q 688 755 711 711 q 633 829 666 800 q 559 874 601 859 q 466 890 517 890 q 356 866 406 890 q 272 796 307 842 q 218 682 237 750 q 199 526 199 614 l 199 463 q 211 334 199 391 q 247 232 223 276 q 303 157 270 187 q 377 112 336 127 q 467 97 419 97 q 581 121 531 97 q 664 191 630 144 q 716 306 699 237 q 734 463 734 374 z "},"ơ":{"ha":794,"x_min":62,"x_max":821,"o":"m 720 814 l 821 814 q 800 686 821 740 q 732 603 780 632 q 604 574 685 574 l 604 652 q 679 673 654 652 q 712 730 704 693 q 720 814 720 766 m 62 359 l 62 374 q 85 522 62 454 q 152 641 109 590 q 257 719 195 691 q 395 747 319 747 q 535 719 473 747 q 640 641 597 691 q 707 522 684 590 q 730 374 730 454 l 730 359 q 707 212 730 279 q 640 93 684 144 q 535 15 597 43 q 397 -14 474 -14 q 258 15 319 -14 q 152 93 196 43 q 85 212 109 144 q 62 359 62 279 m 188 374 l 188 359 q 201 255 188 304 q 240 170 214 207 q 305 111 266 132 q 397 90 345 90 q 487 111 448 90 q 552 170 526 132 q 591 255 578 207 q 604 359 604 304 l 604 374 q 591 477 604 429 q 552 563 578 526 q 487 623 526 601 q 395 644 448 644 q 305 623 344 644 q 240 563 266 601 q 201 477 214 526 q 188 374 188 429 z "},"Ư":{"ha":966,"x_min":95,"x_max":1061,"o":"m 954 1043 l 1061 1043 q 1033 882 1061 947 q 943 784 1005 817 q 779 751 881 751 l 779 842 q 886 865 848 842 q 939 932 924 888 q 954 1043 954 977 m 680 987 l 810 987 l 810 319 q 760 134 810 208 q 629 23 711 60 q 452 -14 547 -14 q 270 23 351 -14 q 142 134 189 60 q 95 319 95 208 l 95 987 l 224 987 l 224 319 q 253 192 224 242 q 333 117 281 142 q 452 93 384 93 q 571 117 520 93 q 651 192 623 142 q 680 319 680 242 l 680 987 z "},"ư":{"ha":859,"x_min":93,"x_max":879,"o":"m 783 793 l 879 793 q 860 669 879 719 q 792 593 840 618 q 656 568 744 568 l 656 646 q 744 661 718 646 q 777 709 770 676 q 783 793 783 741 m 545 170 l 545 734 l 671 734 l 671 0 l 551 0 l 545 170 m 568 324 l 621 326 q 605 190 621 252 q 556 83 590 128 q 467 12 522 37 q 334 -14 412 -14 q 236 2 280 -14 q 159 50 191 18 q 110 135 127 83 q 93 260 93 187 l 93 734 l 218 734 l 218 259 q 230 177 218 210 q 260 126 241 145 q 303 100 279 108 q 353 93 328 93 q 480 124 433 93 q 548 207 527 155 q 568 324 568 260 z "},"ȷ":{"ha":350,"x_min":-52,"x_max":243,"o":"m 117 734 l 243 734 l 243 -60 q 217 -189 243 -136 q 142 -269 191 -242 q 24 -296 93 -296 q -14 -294 3 -296 q -52 -285 -32 -292 l -42 -184 q -8 -191 -32 -189 q 24 -193 15 -193 q 74 -177 54 -193 q 106 -132 95 -161 q 117 -60 117 -102 l 117 734 z "},"ə":{"ha":732,"x_min":67,"x_max":680,"o":"m 347 749 q 485 722 423 749 q 589 645 546 694 q 656 529 633 596 q 680 382 680 462 l 680 352 q 654 205 680 272 q 585 89 629 138 q 484 13 541 40 q 366 -13 428 -14 q 234 11 290 -13 q 141 79 178 35 q 85 182 104 123 q 67 314 67 242 l 67 397 l 605 397 l 605 294 l 193 294 l 193 277 q 211 185 193 228 q 268 116 229 142 q 366 90 307 90 q 441 110 407 90 q 500 166 475 130 q 539 250 526 202 q 553 352 553 298 l 553 382 q 540 484 553 436 q 501 568 527 532 q 437 625 475 604 q 347 646 398 646 q 222 624 273 646 q 138 572 172 603 l 88 658 q 185 720 122 690 q 347 749 248 749 z "},"ˆ":{"ha":654,"x_min":115,"x_max":526,"o":"m 357 1042 l 526 857 l 526 850 l 421 850 l 319 964 l 218 850 l 115 850 l 115 857 l 281 1042 l 357 1042 z "},"ˇ":{"ha":617,"x_min":96,"x_max":515,"o":"m 202 1041 l 304 926 l 407 1041 l 515 1041 l 515 1034 l 343 848 l 266 848 l 96 1034 l 96 1041 l 202 1041 z "},"ˉ":{"ha":637,"x_min":97,"x_max":552,"o":"m 552 980 l 552 884 l 97 884 l 97 980 l 552 980 z "},"˘":{"ha":593,"x_min":88,"x_max":494,"o":"m 392 1014 l 494 1014 q 469 920 494 961 q 399 856 445 879 q 292 833 354 833 q 143 883 197 833 q 88 1014 88 934 l 190 1014 q 213 943 190 974 q 292 913 236 913 q 369 943 346 913 q 392 1014 392 974 z "},"˙":{"ha":338,"x_min":96,"x_max":245,"o":"m 96 928 q 115 979 96 958 q 170 1000 134 1000 q 225 979 206 1000 q 245 928 245 958 q 225 877 245 898 q 170 857 206 857 q 115 877 134 857 q 96 928 96 898 z "},"˚":{"ha":465,"x_min":82,"x_max":374,"o":"m 82 956 q 101 1027 82 995 q 154 1078 121 1059 q 228 1097 186 1097 q 332 1055 290 1097 q 374 956 374 1014 q 354 885 374 916 q 302 835 335 853 q 228 817 269 817 q 124 857 166 817 q 82 956 82 896 m 149 956 q 171 902 149 926 q 228 878 193 878 q 284 901 262 878 q 307 956 307 924 q 284 1011 307 987 q 228 1036 262 1036 q 171 1011 193 1036 q 149 956 149 987 z "},"˛":{"ha":376,"x_min":34,"x_max":273,"o":"m 209 39 l 259 0 q 203 -45 230 -22 q 160 -95 177 -68 q 143 -151 143 -121 q 155 -186 143 -173 q 196 -200 167 -200 q 236 -194 218 -200 q 264 -182 254 -187 l 273 -264 q 230 -284 256 -275 q 164 -294 204 -294 q 72 -261 109 -294 q 34 -165 34 -229 q 52 -92 34 -128 q 109 -23 70 -56 q 209 39 147 10 z "},"˜":{"ha":655,"x_min":83,"x_max":564,"o":"m 479 1025 l 564 1018 q 544 931 564 968 q 491 873 524 894 q 417 853 458 853 q 360 863 382 853 q 320 885 338 873 q 283 908 302 898 q 235 918 264 918 q 188 896 207 918 q 168 842 168 874 l 83 846 q 103 933 83 896 q 155 992 122 971 q 229 1014 189 1014 q 280 1004 258 1014 q 322 982 302 994 q 363 959 342 969 q 411 949 384 949 q 459 971 439 949 q 479 1025 479 994 z "},"˝":{"ha":518,"x_min":64,"x_max":551,"o":"m 254 836 l 410 1041 l 551 1041 l 369 836 l 254 836 m 64 836 l 180 1041 l 314 1041 l 166 836 l 64 836 z "},"˳":{"ha":408,"x_min":86,"x_max":319,"o":"m 86 -165 q 121 -83 86 -115 q 204 -52 156 -52 q 285 -83 251 -52 q 319 -165 319 -115 q 285 -245 319 -214 q 204 -275 251 -275 q 121 -245 156 -275 q 86 -165 86 -214 m 145 -165 q 162 -204 145 -188 q 204 -221 180 -221 q 244 -205 227 -221 q 260 -165 260 -189 q 244 -123 260 -140 q 204 -106 227 -106 q 162 -123 180 -106 q 145 -165 145 -140 z "},"̀":{"ha":0,"x_min":-581,"x_max":-299,"o":"m -430 1042 l -299 842 l -406 842 l -581 1042 l -430 1042 z "},"́":{"ha":0,"x_min":-446,"x_max":-163,"o":"m -446 842 l -315 1042 l -163 1042 l -345 842 l -446 842 z "},"̃":{"ha":0,"x_min":-601,"x_max":-121,"o":"m -205 1025 l -121 1018 q -140 931 -121 968 q -193 873 -160 894 q -267 853 -226 853 q -324 863 -302 853 q -364 885 -347 873 q -401 908 -382 898 q -449 918 -420 918 q -497 896 -477 918 q -516 842 -516 874 l -601 846 q -582 933 -601 896 q -529 992 -562 971 q -455 1014 -496 1014 q -404 1004 -426 1014 q -362 982 -382 994 q -321 959 -342 969 q -273 949 -300 949 q -225 971 -245 949 q -205 1025 -205 994 z "},"̉":{"ha":0,"x_min":-458,"x_max":-248,"o":"m -353 842 l -443 842 l -444 945 q -387 952 -409 947 q -355 968 -366 958 q -345 996 -345 979 q -354 1020 -345 1010 q -378 1037 -363 1030 q -414 1046 -394 1043 q -458 1048 -435 1048 l -453 1120 q -365 1112 -403 1120 q -300 1086 -326 1103 q -261 1045 -274 1069 q -248 994 -248 1022 q -280 919 -248 942 q -352 890 -313 895 l -353 842 z "},"̏":{"ha":0,"x_min":-668,"x_max":-170,"o":"m -347 849 l -461 849 l -668 1029 l -515 1029 l -347 849 m -170 849 l -271 849 l -438 1029 l -298 1029 l -170 849 z "},"̣":{"ha":0,"x_min":-483,"x_max":-334,"o":"m -483 -167 q -464 -115 -483 -136 q -409 -94 -446 -94 q -354 -115 -373 -94 q -334 -167 -334 -136 q -354 -217 -334 -196 q -409 -237 -373 -237 q -464 -217 -446 -237 q -483 -167 -483 -196 z "},"΄":{"ha":357,"x_min":125,"x_max":279,"o":"m 125 857 l 161 1084 l 279 1084 l 201 857 l 125 857 z "},"΅":{"ha":703,"x_min":77,"x_max":610,"o":"m 294 956 l 326 1135 l 454 1135 l 386 956 l 294 956 m 77 930 q 96 981 77 960 q 151 1002 115 1002 q 207 981 187 1002 q 226 930 226 960 q 207 880 226 901 q 151 859 187 859 q 96 880 115 859 q 77 930 77 901 m 461 928 q 480 980 461 959 q 535 1001 499 1001 q 591 980 572 1001 q 610 928 610 959 q 591 879 610 899 q 535 858 572 858 q 480 879 499 858 q 461 928 461 899 z "},"·":{"ha":363,"x_min":100,"x_max":256,"o":"m 100 494 q 120 548 100 526 q 178 570 140 570 q 236 548 216 570 q 256 494 256 526 q 236 442 256 463 q 178 420 216 420 q 120 442 140 420 q 100 494 100 463 z "},"Γ":{"ha":772,"x_min":121,"x_max":727,"o":"m 727 987 l 727 880 l 251 880 l 251 0 l 121 0 l 121 987 l 727 987 z "},"Δ":{"ha":979,"x_min":22,"x_max":947,"o":"m 522 895 l 156 0 l 22 0 l 438 987 l 520 987 l 522 895 m 812 0 l 467 901 l 471 987 l 553 987 l 947 0 l 812 0 m 844 106 l 844 0 l 121 0 l 121 106 l 844 106 z "},"∆":{"ha":979,"x_min":22,"x_max":947,"o":"m 522 895 l 156 0 l 22 0 l 438 987 l 520 987 l 522 895 m 812 0 l 467 901 l 471 987 l 553 987 l 947 0 l 812 0 m 844 106 l 844 0 l 121 0 l 121 106 l 844 106 z "},"Θ":{"ha":945,"x_min":70,"x_max":864,"o":"m 651 550 l 651 448 l 301 448 l 301 550 l 651 550 m 864 525 l 864 463 q 836 263 864 351 q 756 113 808 175 q 631 19 704 52 q 468 -14 558 -14 q 337 7 398 -14 q 227 69 276 28 q 142 167 178 109 q 89 299 107 225 q 70 463 70 374 l 70 525 q 99 724 70 636 q 180 874 127 812 q 306 968 233 936 q 467 1001 379 1001 q 600 980 538 1001 q 710 919 662 959 q 793 820 759 878 q 846 688 828 762 q 864 525 864 614 m 734 463 l 734 526 q 723 654 734 597 q 689 755 711 711 q 634 829 667 800 q 559 874 602 859 q 467 890 517 890 q 357 866 406 890 q 273 796 308 842 q 218 682 237 750 q 199 526 199 614 l 199 463 q 212 334 199 391 q 247 232 224 276 q 303 157 271 187 q 378 112 336 127 q 468 97 420 97 q 581 121 532 97 q 665 191 631 144 q 717 306 699 237 q 734 463 734 374 z "},"Λ":{"ha":911,"x_min":34,"x_max":870,"o":"m 484 880 l 174 0 l 34 0 l 394 987 l 479 987 l 484 880 m 730 0 l 418 884 l 425 987 l 511 987 l 870 0 l 730 0 z "},"Ξ":{"ha":793,"x_min":81,"x_max":718,"o":"m 81 0 l 81 106 l 718 106 l 718 0 l 81 0 m 140 457 l 140 564 l 652 564 l 652 457 l 140 457 m 84 880 l 84 987 l 706 987 l 706 880 l 84 880 z "},"Π":{"ha":991,"x_min":121,"x_max":869,"o":"m 869 987 l 869 0 l 739 0 l 739 880 l 252 880 l 252 0 l 121 0 l 121 987 l 869 987 z "},"Σ":{"ha":793,"x_min":47,"x_max":741,"o":"m 741 107 l 741 0 l 98 0 l 98 107 l 741 107 m 708 987 l 708 880 l 79 880 l 79 987 l 708 987 m 512 503 l 512 487 l 126 0 l 47 0 l 47 97 l 374 495 l 47 890 l 47 987 l 126 987 l 512 503 z "},"Φ":{"ha":995,"x_min":53,"x_max":947,"o":"m 555 119 l 444 119 q 284 146 356 119 q 160 222 212 173 q 81 339 109 271 q 53 490 53 408 q 102 684 53 600 q 239 815 152 768 q 441 863 326 863 l 557 863 q 715 836 644 863 q 838 759 786 809 q 918 642 890 709 q 947 491 947 574 q 898 297 947 381 q 761 166 849 214 q 555 119 673 119 m 444 227 l 556 227 q 703 260 645 227 q 789 352 760 292 q 817 491 817 411 q 801 600 817 551 q 752 683 785 648 q 672 736 720 718 q 559 755 623 755 l 441 755 q 297 722 355 755 q 211 630 239 689 q 182 490 182 570 q 198 381 182 430 q 246 298 214 333 q 328 245 279 264 q 444 227 378 227 m 566 987 l 566 0 l 435 0 l 435 987 l 566 987 z "},"Ψ":{"ha":961,"x_min":61,"x_max":891,"o":"m 760 987 l 891 987 l 891 631 q 838 420 891 507 q 692 289 785 334 q 480 243 599 243 l 460 243 q 301 269 374 243 q 174 344 228 294 q 91 466 121 393 q 61 631 61 538 l 61 987 l 191 987 l 191 631 q 211 511 191 564 q 267 423 231 459 q 353 369 303 387 q 461 351 402 351 l 481 351 q 627 383 564 351 q 725 478 690 416 q 760 631 760 541 l 760 987 m 536 987 l 536 0 l 406 0 l 406 987 l 536 987 z "},"Ω":{"ha":924,"x_min":77,"x_max":833,"o":"m 701 492 l 701 571 q 684 711 701 650 q 634 812 667 771 q 556 874 602 853 q 454 895 511 895 q 352 874 397 895 q 275 812 307 853 q 227 711 243 771 q 210 571 210 650 l 210 492 q 224 338 210 406 q 266 223 239 271 q 331 148 293 176 q 414 111 368 119 l 414 15 q 279 67 340 24 q 173 177 218 110 q 102 325 127 243 q 77 492 77 406 l 77 570 q 104 745 77 666 q 182 881 132 824 q 301 970 232 939 q 454 1001 370 1001 q 608 970 538 1001 q 728 881 677 939 q 805 745 778 824 q 833 570 833 666 l 833 492 q 808 326 833 407 q 739 177 783 244 q 633 67 694 111 q 500 15 572 24 l 500 111 q 582 148 545 120 q 646 224 619 176 q 686 339 672 272 q 701 492 701 406 m 500 0 l 500 106 l 828 106 l 828 0 l 500 0 m 80 0 l 80 106 l 414 106 l 414 0 l 80 0 z "},"Ω":{"ha":924,"x_min":77,"x_max":833,"o":"m 701 492 l 701 571 q 684 711 701 650 q 634 812 667 771 q 556 874 602 853 q 454 895 511 895 q 352 874 397 895 q 275 812 307 853 q 227 711 243 771 q 210 571 210 650 l 210 492 q 224 338 210 406 q 266 223 239 271 q 331 148 293 176 q 414 111 368 119 l 414 15 q 279 67 340 24 q 173 177 218 110 q 102 325 127 243 q 77 492 77 406 l 77 570 q 104 745 77 666 q 182 881 132 824 q 301 970 232 939 q 454 1001 370 1001 q 608 970 538 1001 q 728 881 677 939 q 805 745 778 824 q 833 570 833 666 l 833 492 q 808 326 833 407 q 739 177 783 244 q 633 67 694 111 q 500 15 572 24 l 500 111 q 582 148 545 120 q 646 224 619 176 q 686 339 672 272 q 701 492 701 406 m 500 0 l 500 106 l 828 106 l 828 0 l 500 0 m 80 0 l 80 106 l 414 106 l 414 0 l 80 0 z "},"α":{"ha":785,"x_min":68,"x_max":776,"o":"m 68 340 l 68 354 q 87 513 68 441 q 142 637 106 585 q 232 719 178 690 q 355 747 286 747 q 450 732 408 747 q 525 686 492 716 q 581 613 557 656 q 618 515 604 570 q 638 394 632 460 l 638 338 q 610 192 631 256 q 555 81 590 127 q 471 10 521 35 q 353 -14 420 -14 q 232 12 286 -14 q 142 85 179 38 q 87 198 106 133 q 68 340 68 262 m 194 354 l 194 340 q 205 242 194 288 q 238 162 216 197 q 297 108 261 127 q 385 89 334 89 q 469 109 434 89 q 529 164 505 130 q 569 244 553 199 q 595 337 585 289 l 595 382 q 572 478 587 431 q 532 563 557 525 q 471 622 507 600 q 386 644 435 644 q 298 621 334 644 q 239 558 262 598 q 205 466 216 518 q 194 354 194 413 m 576 734 l 683 734 l 683 200 q 687 149 683 169 q 699 118 691 130 q 716 103 707 107 q 737 98 726 98 q 750 100 744 98 q 760 102 755 101 l 776 9 q 734 -10 755 -6 q 692 -14 714 -14 q 635 -2 661 -14 q 593 35 610 9 q 566 101 575 60 q 557 200 557 142 l 557 574 l 576 734 z "},"β":{"ha":823,"x_min":109,"x_max":747,"o":"m 351 559 l 450 559 q 611 523 545 559 q 712 427 677 488 q 747 288 747 366 q 708 124 747 192 q 598 22 668 57 q 439 -14 529 -14 q 335 1 387 -14 q 240 47 283 16 q 172 127 197 78 q 146 243 146 176 l 196 271 q 225 180 196 221 q 306 114 254 138 q 427 89 358 89 q 532 114 489 89 q 598 184 576 140 q 621 286 621 229 q 601 377 621 333 q 543 450 581 422 q 448 479 504 479 l 351 479 l 351 559 m 411 1001 q 564 967 499 1001 q 665 873 629 933 q 701 735 701 813 q 665 617 701 671 q 564 532 629 564 q 411 500 498 500 l 351 500 l 351 582 l 408 582 q 505 602 468 582 q 558 657 541 622 q 575 738 575 692 q 557 815 575 779 q 502 875 538 852 q 411 898 466 898 q 321 876 361 898 q 258 815 281 854 q 235 728 235 777 l 235 -260 l 109 -260 l 109 728 q 151 865 109 803 q 260 964 192 927 q 411 1001 329 1001 z "},"γ":{"ha":696,"x_min":32,"x_max":673,"o":"m 415 90 l 415 -283 l 290 -283 l 290 90 l 415 90 m 349 170 l 544 734 l 673 734 l 401 0 l 317 0 l 349 170 m 160 734 l 361 170 l 389 0 l 305 0 l 32 734 l 160 734 z "},"δ":{"ha":787,"x_min":66,"x_max":722,"o":"m 150 861 q 181 967 150 922 q 270 1037 212 1013 q 407 1061 327 1061 q 503 1052 460 1061 q 591 1023 546 1043 l 591 916 q 510 941 559 927 q 404 956 460 956 q 337 944 366 956 q 293 912 309 933 q 277 864 277 892 q 284 835 277 850 q 308 803 291 819 q 355 770 325 787 q 434 737 386 753 q 595 651 531 704 q 690 525 659 597 q 722 360 722 452 l 722 345 q 700 203 722 269 q 635 89 677 138 q 532 14 593 41 q 395 -14 471 -14 q 256 14 317 -14 q 152 89 195 41 q 88 203 110 138 q 66 345 66 269 l 66 360 q 97 507 66 441 q 179 616 128 572 q 290 675 231 661 l 290 678 q 214 723 245 696 q 166 785 182 750 q 150 861 150 821 m 192 360 l 192 345 q 204 247 192 293 q 241 165 216 201 q 304 109 266 130 q 395 89 342 89 q 484 109 446 89 q 546 165 522 130 q 583 247 571 201 q 595 345 595 293 l 595 360 q 581 446 595 404 q 540 524 566 488 q 477 584 513 559 q 396 618 441 609 q 306 597 345 618 q 242 541 267 576 q 204 458 217 505 q 192 360 192 412 z "},"ε":{"ha":749,"x_min":68,"x_max":681,"o":"m 356 398 l 505 398 l 505 325 l 366 325 q 272 312 310 325 q 214 274 233 300 q 194 206 194 248 q 206 161 194 182 q 241 123 218 140 q 298 98 264 107 q 374 88 332 88 q 470 106 429 88 q 533 154 511 125 q 556 217 556 184 l 681 217 q 654 114 681 157 q 584 42 628 70 q 485 0 540 14 q 374 -14 431 -14 q 252 1 308 -14 q 155 45 196 16 q 91 114 113 73 q 68 207 68 155 q 87 289 68 253 q 143 349 106 324 q 234 386 180 373 q 356 398 288 398 m 505 351 l 356 351 q 243 365 294 351 q 156 405 192 379 q 100 463 119 430 q 81 534 81 496 q 101 626 81 586 q 161 692 122 665 q 254 733 199 719 q 374 747 308 747 q 488 732 435 747 q 582 688 541 717 q 646 620 623 660 q 669 530 669 580 l 544 530 q 521 588 544 562 q 460 630 498 614 q 374 645 422 645 q 279 629 317 645 q 224 588 242 613 q 206 534 206 562 q 215 490 206 510 q 243 455 224 470 q 293 433 262 441 q 366 425 323 425 l 505 425 l 505 351 z "},"ζ":{"ha":720,"x_min":74,"x_max":654,"o":"m 597 987 l 654 987 l 654 906 l 416 617 q 327 500 363 555 q 272 388 291 445 q 254 262 254 331 q 260 205 254 229 q 279 164 266 182 q 312 136 292 147 q 361 116 333 124 l 450 90 q 539 63 500 76 q 602 23 579 50 q 625 -60 625 -4 q 605 -135 625 -96 q 557 -207 585 -174 q 505 -260 530 -241 l 439 -203 q 474 -159 460 -179 q 497 -119 489 -138 q 505 -79 505 -100 q 494 -51 505 -64 q 460 -27 483 -38 q 401 -7 437 -16 l 340 9 q 240 46 281 25 q 175 96 200 67 q 139 165 150 125 q 127 258 127 205 q 146 374 127 309 q 207 514 165 439 q 317 670 249 589 l 597 987 m 74 987 l 614 987 l 614 885 l 74 885 l 74 987 z "},"η":{"ha":787,"x_min":99,"x_max":684,"o":"m 224 577 l 224 0 l 99 0 l 99 734 l 212 734 l 224 577 m 199 391 l 146 389 q 165 533 146 467 q 223 646 185 598 q 314 721 260 694 q 436 747 368 747 q 539 734 493 747 q 617 688 585 720 q 667 603 650 656 q 684 471 684 550 l 684 -281 l 559 -281 l 559 469 q 548 553 559 519 q 517 607 538 587 q 467 635 496 627 q 399 644 437 644 q 307 624 345 644 q 245 569 269 604 q 210 488 221 534 q 199 391 199 442 z "},"θ":{"ha":791,"x_min":83,"x_max":707,"o":"m 395 1001 q 500 984 452 1001 q 587 933 549 968 q 652 847 625 899 q 693 723 679 794 q 707 559 707 651 l 707 434 q 693 271 707 342 q 652 145 679 199 q 588 56 626 92 q 502 4 550 21 q 396 -14 454 -14 q 291 4 339 -14 q 204 56 243 21 q 139 145 166 92 q 98 271 112 199 q 83 434 83 342 l 83 559 q 98 723 83 651 q 139 847 112 794 q 203 933 165 899 q 290 984 241 968 q 395 1001 338 1001 m 395 899 q 315 878 350 899 q 257 816 280 857 q 221 716 233 775 q 209 581 209 657 l 209 543 l 581 543 l 581 581 q 573 692 581 642 q 551 781 566 742 q 513 845 536 819 q 461 885 490 871 q 395 899 431 899 m 396 90 q 462 104 433 90 q 514 145 492 118 q 551 212 536 172 q 574 302 566 252 q 581 414 581 353 l 581 441 l 209 441 l 209 414 q 217 302 209 353 q 240 212 224 252 q 278 145 256 172 q 331 104 301 118 q 396 90 360 90 z "},"ι":{"ha":450,"x_min":132,"x_max":399,"o":"m 132 734 l 258 734 l 258 187 q 270 131 258 150 q 300 105 281 112 q 339 99 318 99 q 372 102 355 99 q 398 107 389 105 l 399 5 q 360 -4 384 1 q 302 -9 336 -9 q 217 10 256 -9 q 155 72 178 28 q 132 188 132 115 l 132 734 z "},"λ":{"ha":770,"x_min":26,"x_max":734,"o":"m 366 547 l 165 0 l 26 0 l 311 747 l 399 739 l 366 547 m 178 1029 q 243 1021 216 1029 q 291 998 271 1013 q 325 960 311 982 q 348 911 338 939 l 637 159 q 656 123 647 136 q 677 104 666 110 q 705 98 689 98 q 719 99 711 98 q 730 100 726 99 l 734 -3 q 712 -9 727 -6 q 682 -12 698 -12 q 611 -2 641 -12 q 559 38 582 8 q 515 126 537 67 l 307 663 l 227 858 q 206 899 217 884 q 180 920 195 913 q 145 926 165 926 q 130 926 140 926 q 113 925 119 926 l 113 1021 q 143 1027 123 1025 q 178 1029 163 1029 z "},"ξ":{"ha":681,"x_min":69,"x_max":636,"o":"m 616 975 l 599 874 q 548 886 574 881 q 497 895 523 892 q 444 899 471 899 q 327 881 372 899 q 260 834 281 863 q 239 771 239 805 q 251 710 239 738 q 290 663 264 683 q 359 633 317 644 q 460 623 401 623 l 555 623 l 555 544 l 457 544 q 316 561 379 544 q 208 609 253 578 q 138 680 162 640 q 113 768 113 721 q 136 867 113 824 q 203 940 159 910 q 307 985 246 970 q 442 1001 367 1001 q 506 998 474 1001 q 567 988 538 994 q 616 975 595 982 m 457 595 l 555 595 l 555 519 l 460 519 q 316 496 376 519 q 226 424 257 473 q 195 301 195 376 q 222 199 195 241 q 292 133 249 158 q 385 96 336 109 l 460 79 q 555 50 516 65 q 615 7 594 34 q 636 -68 636 -20 q 615 -143 635 -104 q 568 -214 595 -181 q 517 -267 541 -248 l 444 -210 q 481 -168 465 -186 q 507 -130 497 -149 q 516 -83 516 -110 q 506 -54 516 -66 q 472 -33 495 -42 q 412 -15 450 -24 l 372 -5 q 250 33 305 10 q 154 89 194 55 q 91 176 113 123 q 69 304 69 228 q 98 430 69 376 q 178 521 126 484 q 301 577 230 558 q 457 595 372 595 z "},"π":{"ha":828,"x_min":28,"x_max":806,"o":"m 771 734 l 771 630 l 28 630 l 28 734 l 771 734 m 269 734 l 269 0 l 142 0 l 142 734 l 269 734 m 540 734 l 666 734 l 666 187 q 677 131 666 150 q 707 105 689 112 q 747 99 726 99 q 780 102 762 99 q 806 107 797 105 l 806 5 q 767 -4 791 1 q 709 -9 743 -9 q 625 10 663 -9 q 563 72 586 28 q 540 188 540 115 l 540 734 z "},"ρ":{"ha":787,"x_min":99,"x_max":716,"o":"m 99 -282 l 99 393 q 123 546 99 480 q 189 657 146 612 q 285 725 231 702 q 401 747 340 747 q 539 719 480 747 q 637 637 597 690 q 696 513 677 585 q 716 354 716 441 l 716 340 q 698 198 716 262 q 644 85 680 133 q 555 12 608 38 q 435 -14 503 -14 q 311 9 364 -14 q 220 76 257 33 q 160 182 182 120 q 131 321 138 243 q 147 308 132 321 q 177 283 162 296 q 192 271 192 271 q 230 182 205 224 q 294 115 254 140 q 397 90 335 90 q 484 109 448 90 q 544 162 521 128 q 579 242 568 197 q 590 340 590 288 l 590 354 q 580 466 590 413 q 547 558 570 518 q 489 621 525 598 q 401 644 453 644 q 320 621 354 644 q 266 559 287 597 q 235 477 245 522 q 225 391 225 433 l 224 -282 l 99 -282 z "},"ς":{"ha":747,"x_min":68,"x_max":674,"o":"m 389 747 q 536 716 471 747 q 637 626 600 685 q 674 481 674 566 l 555 481 q 536 564 555 527 q 481 623 518 601 q 389 644 444 644 q 301 622 338 644 q 240 561 264 599 q 206 476 217 522 q 195 381 195 429 l 195 353 q 221 243 195 292 q 302 159 248 195 q 435 102 355 124 q 531 73 489 88 q 598 29 574 58 q 623 -56 623 0 q 603 -130 623 -91 q 556 -201 583 -168 q 505 -254 528 -234 l 438 -197 q 473 -155 459 -173 q 495 -117 488 -136 q 503 -72 503 -98 q 492 -39 503 -52 q 458 -17 481 -26 q 397 0 435 -8 q 218 70 291 24 q 106 187 144 117 q 68 353 68 258 l 68 381 q 90 521 68 455 q 152 638 111 587 q 253 718 193 689 q 389 747 313 747 z "},"σ":{"ha":787,"x_min":66,"x_max":779,"o":"m 66 359 l 66 374 q 88 516 66 451 q 152 631 110 582 q 255 707 195 680 q 393 734 316 734 q 431 719 414 732 q 469 691 448 707 q 525 667 490 676 q 631 590 587 637 q 699 482 675 543 q 722 349 722 421 l 722 334 q 700 203 722 266 q 635 92 677 141 q 532 15 593 43 q 394 -14 471 -14 q 256 15 317 -14 q 153 93 195 43 q 88 212 110 144 q 66 359 66 279 m 191 374 l 191 359 q 203 255 191 304 q 240 170 216 207 q 303 111 265 132 q 394 90 342 90 q 484 111 446 90 q 547 170 522 132 q 583 255 571 207 q 595 359 595 304 l 595 374 q 583 471 595 425 q 546 553 571 517 q 483 610 522 589 q 393 630 445 630 q 303 610 341 630 q 240 553 264 589 q 203 471 216 517 q 191 374 191 425 m 779 734 l 779 630 l 392 630 l 392 734 l 779 734 z "},"τ":{"ha":724,"x_min":55,"x_max":669,"o":"m 669 734 l 669 632 l 55 632 l 55 734 l 669 734 m 291 734 l 416 734 l 416 183 q 426 127 416 146 q 452 100 436 107 q 488 93 469 93 q 523 98 507 93 q 551 111 539 104 l 578 22 q 517 -7 547 -1 q 456 -14 488 -14 q 367 7 404 -14 q 311 72 330 27 q 291 190 291 117 l 291 734 z "},"υ":{"ha":758,"x_min":98,"x_max":688,"o":"m 98 734 l 223 734 l 223 289 q 233 196 223 235 q 262 134 243 158 q 306 100 281 111 q 360 89 331 89 q 448 114 410 89 q 511 182 486 140 q 549 277 536 225 q 562 381 562 329 q 537 562 561 473 q 479 734 513 650 l 611 734 q 649 639 631 692 q 677 522 667 586 q 688 382 688 458 q 669 232 688 304 q 610 105 650 161 q 509 18 570 50 q 366 -14 449 -14 q 255 4 304 -14 q 170 59 205 22 q 116 153 135 96 q 98 290 98 211 l 98 734 z "},"φ":{"ha":979,"x_min":60,"x_max":920,"o":"m 421 -324 l 421 580 q 443 662 421 627 q 502 715 464 696 q 591 734 541 734 q 718 707 659 734 q 823 630 777 680 q 894 514 868 581 q 920 369 920 448 q 896 225 920 294 q 820 102 872 156 q 685 17 768 48 q 484 -14 602 -14 q 287 18 368 -14 q 156 106 206 50 q 83 233 106 161 q 60 382 60 304 q 79 524 60 458 q 138 642 99 589 q 233 734 176 695 l 301 644 q 236 566 261 609 q 199 475 211 522 q 185 382 187 429 q 201 278 185 330 q 251 183 216 226 q 343 115 286 140 q 484 89 400 89 q 666 131 598 89 q 764 238 734 174 q 794 369 794 302 q 780 465 793 418 q 741 549 766 512 q 678 609 715 587 q 591 631 641 631 q 558 616 570 631 q 547 585 547 602 l 547 -324 l 421 -324 z "},"ψ":{"ha":972,"x_min":65,"x_max":913,"o":"m 65 734 l 191 734 l 191 403 q 212 257 191 317 q 273 160 234 197 q 364 106 312 123 q 477 89 416 89 q 624 115 564 89 q 720 184 684 140 q 772 280 755 227 q 788 385 788 332 q 762 564 786 476 q 702 734 738 651 l 834 734 q 873 640 855 692 q 902 524 891 587 q 913 385 913 460 q 891 234 913 306 q 818 106 868 162 q 685 18 768 50 q 484 -14 603 -14 q 311 10 388 -14 q 178 85 233 35 q 94 216 123 136 q 65 404 65 295 l 65 734 m 415 734 l 541 734 l 541 -321 l 415 -321 l 415 734 z "},"ω":{"ha":1144,"x_min":83,"x_max":1059,"o":"m 836 734 l 967 734 q 1013 638 991 691 q 1046 521 1034 585 q 1059 380 1059 457 q 1045 231 1059 302 q 999 105 1030 160 q 916 18 967 50 q 791 -14 864 -14 q 687 8 732 -14 q 610 73 642 30 q 562 178 578 115 q 546 321 546 240 l 546 522 l 634 522 l 634 319 q 645 213 634 256 q 677 141 656 169 q 725 101 697 114 q 784 89 752 89 q 853 112 825 89 q 899 175 882 135 q 925 268 917 216 q 933 380 933 321 q 904 561 931 473 q 836 734 876 650 m 175 734 l 307 734 q 238 561 266 650 q 209 380 211 473 q 214 290 209 333 q 230 210 219 246 q 258 146 241 174 q 300 104 275 119 q 357 89 325 89 q 417 101 390 89 q 465 141 445 114 q 497 213 486 169 q 508 319 508 256 l 508 522 l 596 522 l 596 321 q 580 178 596 240 q 532 73 564 115 q 455 8 500 30 q 351 -14 410 -14 q 248 6 292 -14 q 172 64 203 27 q 121 152 140 102 q 92 260 101 201 q 83 380 83 318 q 96 521 83 457 q 130 638 109 585 q 175 734 151 691 z "},"ϑ":{"ha":804,"x_min":83,"x_max":777,"o":"m 772 527 l 777 426 q 711 408 748 415 q 638 401 674 401 q 420 448 513 401 q 276 576 327 495 q 225 757 225 656 l 225 768 q 255 895 225 842 q 335 975 284 947 q 451 1003 386 1003 q 546 986 504 1003 q 618 937 589 970 q 664 858 648 905 q 680 750 680 810 l 680 296 q 643 126 680 195 q 541 21 606 57 q 387 -14 475 -14 q 263 7 319 -14 q 166 70 207 29 q 104 168 126 111 q 83 296 83 224 l 83 522 l 208 523 l 208 296 q 230 186 208 232 q 292 117 252 141 q 387 93 332 93 q 477 115 440 93 q 535 181 515 136 q 555 296 555 227 l 555 750 q 548 815 555 788 q 529 861 542 843 q 496 887 515 879 q 451 896 477 896 q 400 883 422 896 q 364 843 377 871 q 351 768 351 814 l 351 755 q 384 633 351 690 q 480 543 416 577 q 638 509 545 509 q 708 514 673 509 q 772 527 743 519 z "},"ϒ":{"ha":740,"x_min":-26,"x_max":770,"o":"m 437 466 l 437 0 l 307 0 l 307 466 l 437 466 m 368 516 l 524 869 q 570 946 547 919 q 622 985 593 974 q 685 996 650 996 q 729 992 709 996 q 770 978 749 988 l 745 875 q 731 879 742 878 q 710 881 721 881 q 683 876 696 881 q 659 860 670 871 q 638 827 648 848 l 427 368 l 336 369 l 368 516 m 222 869 l 378 511 l 407 369 l 316 368 l 106 827 q 85 860 96 848 q 61 876 73 871 q 34 881 48 881 q 12 879 23 881 q -2 875 1 878 l -26 977 q 15 992 -5 987 q 58 996 35 996 q 121 986 92 996 q 174 948 149 976 q 222 869 199 921 z "},"ϖ":{"ha":1090,"x_min":51,"x_max":1060,"o":"m 1060 734 l 1060 631 l 51 631 l 51 734 l 1060 734 m 787 734 l 920 734 q 965 638 944 691 q 998 521 985 585 q 1011 380 1011 457 q 1003 260 1011 318 q 977 152 994 201 q 930 64 959 102 q 861 6 901 27 q 768 -14 821 -14 q 664 8 709 -14 q 587 73 618 30 q 540 178 556 115 q 524 321 524 240 l 524 490 l 612 490 l 612 319 q 623 213 612 256 q 654 141 634 169 q 702 101 675 114 q 762 89 729 89 q 809 104 789 89 q 844 146 829 119 q 868 210 859 173 q 881 290 877 246 q 886 380 886 333 q 856 561 883 473 q 787 734 828 650 m 178 734 l 310 734 q 241 561 269 650 q 212 380 214 473 q 216 290 212 333 q 230 210 220 246 q 253 146 239 174 q 288 104 268 119 q 336 89 309 89 q 395 101 368 89 q 443 141 422 114 q 474 213 463 169 q 486 319 486 256 l 486 490 l 574 490 l 574 321 q 557 178 574 240 q 510 73 541 115 q 433 8 478 30 q 329 -14 387 -14 q 236 6 276 -14 q 167 64 195 27 q 120 152 138 102 q 94 260 102 201 q 85 380 85 318 q 98 521 85 457 q 133 638 111 585 q 178 734 154 691 z "},"Ђ":{"ha":1042,"x_min":29,"x_max":989,"o":"m 389 441 l 389 554 q 470 580 425 568 q 559 598 515 591 q 637 605 603 605 q 825 569 747 605 q 946 463 904 532 q 989 294 989 393 q 967 167 989 223 q 904 72 946 111 q 799 13 862 33 q 651 -8 735 -8 l 650 94 q 748 109 708 94 q 812 149 788 123 q 847 212 836 176 q 858 293 858 249 q 833 401 858 357 q 759 469 808 446 q 636 492 709 492 q 551 486 593 492 q 467 468 508 479 q 389 441 426 457 m 441 987 l 441 0 l 311 0 l 311 987 l 441 987 m 795 987 l 795 880 l 29 880 l 29 987 l 795 987 z "},"Є":{"ha":937,"x_min":83,"x_max":844,"o":"m 601 552 l 601 446 l 196 446 l 196 552 l 601 552 m 713 314 l 844 314 q 790 146 834 220 q 667 30 747 73 q 470 -14 588 -14 q 311 19 382 -14 q 189 112 240 52 q 111 256 138 172 q 83 444 83 340 l 83 542 q 111 730 83 646 q 190 876 138 815 q 316 968 242 936 q 481 1001 389 1001 q 670 959 593 1001 q 791 843 747 917 q 844 671 834 768 l 713 671 q 678 790 704 740 q 605 867 652 840 q 481 894 557 894 q 366 869 416 894 q 282 797 316 844 q 232 686 249 751 q 215 543 215 622 l 215 444 q 225 333 215 386 q 254 237 235 281 q 304 160 274 193 q 376 111 335 128 q 470 93 417 93 q 602 119 553 93 q 677 195 652 145 q 713 314 703 244 z "},"Љ":{"ha":1488,"x_min":34,"x_max":1429,"o":"m 254 987 l 385 987 l 362 504 q 346 318 357 399 q 315 176 335 236 q 262 77 294 116 q 182 19 229 38 q 69 0 135 0 l 34 0 l 34 106 l 61 109 q 126 126 99 111 q 173 170 154 140 q 205 248 193 200 q 224 364 217 295 q 235 525 231 433 l 254 987 m 744 987 l 744 880 l 299 880 l 299 987 l 744 987 m 825 605 l 1095 605 q 1277 566 1203 605 q 1390 458 1352 526 q 1429 302 1429 389 q 1407 182 1429 237 q 1343 86 1385 127 q 1238 22 1300 45 q 1095 0 1176 0 l 726 0 l 726 987 l 857 987 l 857 106 l 1095 106 q 1212 135 1167 106 q 1278 209 1257 163 q 1299 303 1299 254 q 1278 397 1299 353 q 1212 470 1257 441 q 1095 498 1167 498 l 825 498 l 825 605 z "},"Њ":{"ha":1501,"x_min":121,"x_max":1441,"o":"m 756 559 l 756 453 l 231 453 l 231 559 l 756 559 m 252 987 l 252 0 l 121 0 l 121 987 l 252 987 m 838 574 l 1107 574 q 1290 538 1215 574 q 1402 438 1364 502 q 1441 290 1441 374 q 1419 174 1441 227 q 1355 82 1398 121 q 1250 22 1312 43 q 1107 0 1188 0 l 738 0 l 738 987 l 869 987 l 869 113 l 1107 113 q 1224 138 1179 113 q 1291 204 1270 163 q 1312 292 1312 245 q 1291 378 1312 338 q 1224 443 1270 418 q 1107 468 1179 468 l 838 468 l 838 574 z "},"Ћ":{"ha":1131,"x_min":42,"x_max":1012,"o":"m 1012 0 l 882 0 l 882 309 q 859 429 882 386 q 791 490 836 472 q 677 507 745 507 q 598 504 636 507 q 523 494 559 500 q 451 480 486 488 q 380 460 415 471 l 380 568 q 447 587 414 578 q 514 602 479 595 q 589 611 549 608 q 677 614 629 614 q 857 584 782 614 q 972 487 932 554 q 1012 309 1012 420 l 1012 0 m 450 987 l 450 0 l 319 0 l 319 987 l 450 987 m 808 987 l 808 880 l 42 880 l 42 987 l 808 987 z "},"Џ":{"ha":990,"x_min":119,"x_max":868,"o":"m 119 0 l 119 987 l 251 987 l 251 106 l 737 106 l 737 987 l 868 987 l 868 0 l 119 0 m 564 94 l 564 -243 l 433 -243 l 433 94 l 564 94 z "},"Б":{"ha":876,"x_min":111,"x_max":814,"o":"m 717 987 l 717 880 l 241 880 l 241 0 l 111 0 l 111 987 l 717 987 m 210 585 l 479 585 q 663 549 588 585 q 776 448 737 513 q 814 295 814 382 q 793 176 814 230 q 728 82 771 122 q 623 21 686 43 q 479 0 561 0 l 111 0 l 111 987 l 241 987 l 241 106 l 479 106 q 597 133 552 106 q 663 203 642 160 q 684 296 684 247 q 663 387 684 346 q 597 453 642 429 q 479 478 552 478 l 210 478 l 210 585 z "},"Д":{"ha":1044,"x_min":35,"x_max":1005,"o":"m 891 106 l 891 0 l 144 0 l 144 106 l 891 106 m 165 106 l 165 -243 l 35 -243 l 35 106 l 165 106 m 1005 106 l 1004 -242 l 874 -242 l 874 106 l 1005 106 m 763 987 l 763 880 l 330 880 l 330 987 l 763 987 m 876 987 l 876 0 l 745 0 l 745 987 l 876 987 m 286 987 l 416 987 l 396 590 q 379 425 392 500 q 347 287 366 349 q 304 175 328 224 q 252 91 279 126 q 194 32 224 55 q 133 0 163 9 l 73 0 l 73 106 l 115 106 q 156 161 133 125 q 201 255 178 197 q 241 395 224 312 q 264 590 258 477 l 286 987 z "},"Ж":{"ha":1261,"x_min":18,"x_max":1252,"o":"m 397 451 l 45 987 l 198 987 l 460 559 l 646 559 l 625 451 l 397 451 m 468 461 l 181 0 l 18 0 l 385 574 l 468 461 m 703 987 l 703 0 l 573 0 l 573 987 l 703 987 m 1226 987 l 872 451 l 651 451 l 631 559 l 810 559 l 1072 987 l 1226 987 m 1089 0 l 803 461 l 886 574 l 1252 0 l 1089 0 z "},"З":{"ha":825,"x_min":54,"x_max":767,"o":"m 417 474 l 300 474 l 300 557 l 412 557 q 533 578 487 557 q 600 637 579 600 q 621 723 621 674 q 598 809 621 770 q 527 871 575 848 q 403 895 479 895 q 300 873 346 895 q 227 814 254 852 q 199 728 199 777 l 68 728 q 95 841 68 791 q 168 927 121 892 q 274 982 214 963 q 403 1001 335 1001 q 547 983 482 1001 q 657 930 611 965 q 728 842 703 895 q 752 721 752 790 q 728 625 752 670 q 661 547 705 581 q 555 493 616 513 q 417 474 493 474 m 300 532 l 417 532 q 566 515 500 532 q 675 465 631 498 q 744 385 720 433 q 767 275 767 337 q 740 153 767 206 q 665 62 713 99 q 549 5 616 24 q 403 -14 482 -14 q 277 3 339 -14 q 165 55 215 20 q 84 144 115 90 q 54 274 54 198 l 185 274 q 213 183 185 224 q 289 117 240 142 q 403 92 338 92 q 529 116 477 92 q 609 180 581 139 q 636 273 636 221 q 622 352 636 318 q 579 407 607 385 q 509 439 551 429 q 412 450 467 450 l 300 450 l 300 532 z "},"И":{"ha":991,"x_min":121,"x_max":868,"o":"m 251 227 l 737 987 l 868 987 l 868 0 l 737 0 l 737 762 l 251 0 l 121 0 l 121 987 l 251 987 l 251 227 z "},"Л":{"ha":983,"x_min":33,"x_max":862,"o":"m 749 987 l 749 880 l 298 880 l 298 987 l 749 987 m 862 987 l 862 0 l 731 0 l 731 987 l 862 987 m 253 987 l 383 987 l 361 504 q 345 318 356 399 q 313 176 334 236 q 260 77 293 116 q 181 19 228 38 q 68 0 134 0 l 33 0 l 33 106 l 60 109 q 125 126 98 111 q 172 170 153 140 q 203 248 191 200 q 223 364 216 295 q 234 525 230 433 l 253 987 z "},"У":{"ha":873,"x_min":52,"x_max":832,"o":"m 420 328 l 682 987 l 832 987 l 483 165 q 450 98 468 130 q 405 41 431 66 q 339 1 378 16 q 243 -14 300 -14 q 204 -13 227 -14 q 175 -9 182 -11 l 179 96 q 208 93 186 94 q 240 92 230 92 q 301 108 279 92 q 337 148 323 123 q 363 197 351 172 l 420 328 m 199 987 l 473 372 l 506 251 l 396 243 l 52 987 l 199 987 z "},"Ф":{"ha":1072,"x_min":57,"x_max":1022,"o":"m 457 889 l 621 889 q 779 860 706 889 q 906 779 852 831 q 991 653 961 726 q 1022 492 1022 580 q 991 330 1022 404 q 906 204 961 257 q 779 122 852 151 q 621 93 706 93 l 457 93 q 299 122 372 93 q 172 203 227 151 q 87 329 117 256 q 57 490 57 402 q 87 651 57 578 q 172 778 117 724 q 299 860 227 831 q 457 889 372 889 m 457 786 q 307 749 368 786 q 213 646 245 712 q 181 490 181 579 q 199 369 181 423 q 252 276 217 315 q 339 216 288 237 q 457 195 391 195 l 622 195 q 771 232 710 195 q 865 336 833 269 q 897 492 897 403 q 879 612 897 558 q 826 705 861 667 q 740 765 791 744 q 622 786 688 786 l 457 786 m 602 1028 l 602 -41 l 477 -41 l 477 1028 l 602 1028 z "},"Ц":{"ha":1016,"x_min":119,"x_max":971,"o":"m 971 110 l 959 -238 l 842 -238 l 842 0 l 745 0 l 745 110 l 971 110 m 119 0 l 119 987 l 250 987 l 250 106 l 736 106 l 736 987 l 867 987 l 867 0 l 119 0 z "},"Ч":{"ha":951,"x_min":102,"x_max":831,"o":"m 102 987 l 233 987 l 233 679 q 256 559 233 602 q 323 498 278 515 q 437 480 369 480 q 516 484 477 480 q 591 493 554 487 q 663 508 627 499 q 733 527 699 517 l 733 420 q 667 401 700 410 q 599 386 634 392 q 525 376 564 380 q 437 373 485 373 q 257 403 332 373 q 142 500 182 433 q 102 679 102 568 l 102 987 m 700 987 l 831 987 l 831 0 l 700 0 l 700 987 z "},"Ш":{"ha":1307,"x_min":119,"x_max":1188,"o":"m 119 987 l 251 987 l 251 106 l 590 106 l 590 987 l 720 987 l 720 106 l 1057 106 l 1057 987 l 1188 987 l 1188 0 l 119 0 l 119 987 z "},"Щ":{"ha":1345,"x_min":119,"x_max":1288,"o":"m 1288 103 l 1276 -238 l 1163 -238 l 1163 0 l 1067 0 l 1067 103 l 1288 103 m 119 987 l 251 987 l 251 106 l 590 106 l 590 987 l 720 987 l 720 106 l 1057 106 l 1057 987 l 1188 987 l 1188 0 l 119 0 l 119 987 z "},"Ъ":{"ha":1054,"x_min":12,"x_max":994,"o":"m 12 884 l 12 987 l 321 987 l 321 884 l 12 884 m 389 585 l 658 585 q 841 549 766 585 q 955 448 916 513 q 994 295 994 382 q 971 176 994 230 q 907 82 949 122 q 802 21 864 43 q 658 0 739 0 l 290 0 l 290 987 l 420 987 l 420 106 l 658 106 q 775 133 730 106 q 842 203 821 160 q 863 296 863 247 q 842 387 863 346 q 775 453 821 429 q 658 478 730 478 l 389 478 l 389 585 z "},"Ы":{"ha":1201,"x_min":121,"x_max":1075,"o":"m 220 585 l 490 585 q 673 549 598 585 q 786 448 747 513 q 825 295 825 382 q 803 176 825 230 q 739 82 781 122 q 633 21 696 43 q 490 0 571 0 l 121 0 l 121 987 l 252 987 l 252 106 l 490 106 q 607 133 562 106 q 673 203 652 160 q 694 296 694 247 q 673 387 694 346 q 607 453 652 429 q 490 478 562 478 l 220 478 l 220 585 m 1075 987 l 1075 0 l 944 0 l 944 987 l 1075 987 z "},"Ь":{"ha":871,"x_min":111,"x_max":814,"o":"m 210 585 l 479 585 q 663 549 588 585 q 776 448 737 513 q 814 295 814 382 q 793 176 814 230 q 728 82 771 122 q 623 21 686 43 q 479 0 561 0 l 111 0 l 111 987 l 241 987 l 241 106 l 479 106 q 597 133 552 106 q 663 203 642 160 q 684 296 684 247 q 663 387 684 346 q 597 453 642 429 q 479 478 552 478 l 210 478 l 210 585 z "},"Э":{"ha":937,"x_min":100,"x_max":860,"o":"m 746 546 l 746 439 l 341 439 l 341 546 l 746 546 m 100 314 l 231 314 q 267 195 241 244 q 342 119 292 145 q 475 93 391 93 q 589 120 541 93 q 668 196 637 148 q 714 308 699 244 q 730 444 730 372 l 730 543 q 719 660 730 606 q 686 757 708 714 q 632 831 665 800 q 558 878 600 861 q 463 894 515 894 q 339 867 387 894 q 266 790 292 840 q 231 671 241 740 l 100 671 q 154 843 111 768 q 274 959 197 917 q 463 1001 351 1001 q 628 968 555 1001 q 753 876 701 936 q 832 730 805 815 q 860 542 860 646 l 860 444 q 832 256 860 340 q 754 112 805 172 q 632 19 703 52 q 475 -14 562 -14 q 277 30 356 -14 q 154 146 197 73 q 100 314 111 220 z "},"Ю":{"ha":1242,"x_min":124,"x_max":1190,"o":"m 255 987 l 255 0 l 124 0 l 124 987 l 255 987 m 481 535 l 481 432 l 247 432 l 247 535 l 481 535 m 1190 525 l 1190 463 q 1162 263 1190 351 q 1082 113 1135 175 q 957 19 1030 52 q 794 -14 884 -14 q 634 19 707 -14 q 508 113 561 52 q 425 263 454 175 q 396 463 396 351 l 396 525 q 425 724 396 636 q 507 874 454 812 q 632 968 559 936 q 793 1001 705 1001 q 956 968 883 1001 q 1081 874 1029 936 q 1162 724 1134 812 q 1190 525 1190 636 m 1061 463 l 1061 526 q 1043 682 1061 614 q 990 796 1025 750 q 906 866 956 842 q 793 890 856 890 q 683 866 732 890 q 598 796 633 842 q 545 682 564 750 q 526 526 526 614 l 526 463 q 545 306 526 374 q 599 191 564 237 q 684 121 635 144 q 794 97 733 97 q 907 121 858 97 q 991 191 957 144 q 1043 306 1025 237 q 1061 463 1061 374 z "},"Я":{"ha":884,"x_min":61,"x_max":763,"o":"m 663 385 l 385 385 l 321 411 q 156 515 214 445 q 98 690 98 585 q 141 852 98 785 q 261 953 183 918 q 447 987 340 987 l 763 987 l 763 0 l 632 0 l 632 880 l 447 880 q 284 829 338 880 q 229 690 229 777 q 253 588 229 633 q 325 517 277 543 q 443 492 372 492 l 663 492 l 663 385 m 440 452 l 200 0 l 61 0 l 308 452 l 440 452 z "},"б":{"ha":768,"x_min":66,"x_max":722,"o":"m 566 1053 l 669 1053 q 649 948 669 987 q 594 888 629 909 q 515 856 559 867 q 425 835 471 845 q 316 797 366 823 q 231 723 267 770 q 179 600 195 675 q 170 412 162 524 l 170 349 l 66 349 l 66 412 q 91 631 66 537 q 159 789 115 724 q 263 891 203 853 q 397 943 324 929 q 488 965 450 954 q 546 998 526 977 q 566 1053 566 1018 m 418 692 q 546 667 490 692 q 642 597 602 642 q 702 491 681 552 q 722 359 722 431 l 722 345 q 700 202 722 268 q 636 89 678 137 q 533 13 593 40 q 395 -14 472 -14 q 257 13 317 -14 q 153 89 196 40 q 89 202 111 137 q 66 345 66 268 l 66 359 q 73 393 66 376 q 88 426 79 409 q 104 462 97 443 q 173 575 130 523 q 278 660 217 627 q 418 692 340 692 m 393 589 q 280 557 324 589 q 214 473 235 526 q 192 359 192 420 l 192 345 q 204 247 192 293 q 241 165 216 201 q 304 109 266 130 q 395 89 342 89 q 485 109 447 89 q 547 165 523 130 q 584 247 572 201 q 596 345 596 293 l 596 359 q 584 447 596 406 q 547 520 572 488 q 484 571 522 552 q 393 589 446 589 z "},"в":{"ha":794,"x_min":107,"x_max":722,"o":"m 440 323 l 199 323 l 198 423 l 395 423 q 492 435 453 423 q 551 469 531 446 q 570 526 570 492 q 559 573 570 553 q 526 606 548 593 q 470 626 503 619 q 393 632 437 632 l 233 632 l 233 0 l 107 0 l 107 734 l 393 734 q 519 722 463 734 q 615 685 575 709 q 675 622 654 660 q 696 532 696 584 q 683 469 696 499 q 643 416 669 439 q 578 379 616 393 q 489 360 539 364 l 440 323 m 440 0 l 154 0 l 216 102 l 440 102 q 527 115 492 102 q 579 153 562 128 q 596 212 596 178 q 579 272 596 247 q 527 310 562 296 q 440 323 492 323 l 250 323 l 251 423 l 489 423 l 534 385 q 637 355 595 380 q 701 292 679 330 q 722 209 722 254 q 703 118 722 157 q 647 53 684 79 q 558 13 610 26 q 440 0 506 0 z "},"г":{"ha":583,"x_min":105,"x_max":570,"o":"m 570 734 l 570 630 l 231 630 l 231 0 l 105 0 l 105 734 l 570 734 z "},"д":{"ha":838,"x_min":31,"x_max":795,"o":"m 228 734 l 353 734 l 342 459 q 319 279 338 355 q 269 150 299 203 q 200 60 238 96 q 123 0 163 24 l 60 0 l 64 102 l 90 103 q 133 158 112 130 q 172 225 154 186 q 201 320 189 264 q 216 459 213 377 l 228 734 m 259 734 l 701 734 l 701 0 l 575 0 l 575 618 l 259 618 l 259 734 m 32 103 l 795 103 l 795 -216 l 669 -216 l 669 0 l 157 0 l 157 -216 l 31 -216 l 32 103 z "},"ж":{"ha":1064,"x_min":15,"x_max":1044,"o":"m 318 319 l 40 734 l 191 734 l 381 430 l 528 430 l 509 319 l 318 319 m 387 332 l 174 0 l 15 0 l 307 423 l 387 332 m 592 734 l 592 0 l 467 0 l 467 734 l 592 734 m 1020 734 l 742 319 l 551 319 l 531 430 l 678 430 l 868 734 l 1020 734 m 886 0 l 672 332 l 753 423 l 1044 0 l 886 0 z "},"з":{"ha":705,"x_min":60,"x_max":638,"o":"m 370 351 l 235 351 l 235 428 l 359 428 q 442 441 412 428 q 486 478 473 454 q 498 534 498 502 q 484 588 498 562 q 437 629 469 613 q 352 645 406 645 q 273 630 309 645 q 217 588 238 614 q 197 530 197 562 l 71 530 q 110 645 71 597 q 212 720 148 694 q 352 747 276 747 q 466 733 416 747 q 552 692 517 719 q 606 626 587 665 q 625 534 625 586 q 607 463 625 496 q 556 405 589 430 q 476 365 523 379 q 370 351 429 351 m 235 398 l 370 398 q 486 386 435 398 q 570 349 536 373 q 621 289 604 324 q 638 207 638 253 q 617 114 638 155 q 559 45 597 73 q 468 1 521 16 q 352 -14 416 -14 q 214 11 281 -14 q 103 86 146 35 q 60 217 60 138 l 185 217 q 206 154 185 184 q 265 106 227 124 q 352 87 302 87 q 440 104 405 87 q 493 147 475 120 q 511 206 511 174 q 495 273 511 248 q 445 310 479 298 q 359 321 412 321 l 235 321 l 235 398 z "},"и":{"ha":802,"x_min":106,"x_max":696,"o":"m 231 199 l 570 734 l 696 734 l 696 0 l 570 0 l 570 535 l 231 0 l 106 0 l 106 734 l 231 734 l 231 199 z "},"к":{"ha":751,"x_min":106,"x_max":738,"o":"m 232 734 l 232 0 l 106 0 l 106 734 l 232 734 m 713 734 l 366 313 l 190 313 l 171 423 l 315 423 l 561 734 l 713 734 m 578 0 l 309 332 l 389 423 l 738 0 l 578 0 z "},"л":{"ha":803,"x_min":30,"x_max":696,"o":"m 586 734 l 586 630 l 231 630 l 231 734 l 586 734 m 696 734 l 696 0 l 571 0 l 571 734 l 696 734 m 201 734 l 327 734 l 308 380 q 293 235 303 298 q 264 127 282 172 q 219 55 246 83 q 155 13 193 26 q 69 0 118 0 l 30 0 l 30 111 l 57 113 q 107 126 86 115 q 142 160 127 138 q 165 219 156 183 q 179 304 174 255 q 187 420 184 354 l 201 734 z "},"м":{"ha":1030,"x_min":107,"x_max":924,"o":"m 517 167 l 767 734 l 888 734 l 561 0 l 474 0 l 149 734 l 269 734 l 517 167 m 233 734 l 233 0 l 107 0 l 107 734 l 233 734 m 798 0 l 798 734 l 924 734 l 924 0 l 798 0 z "},"н":{"ha":801,"x_min":106,"x_max":695,"o":"m 593 416 l 593 314 l 205 314 l 205 416 l 593 416 m 232 734 l 232 0 l 106 0 l 106 734 l 232 734 m 695 734 l 695 0 l 569 0 l 569 734 l 695 734 z "},"п":{"ha":802,"x_min":106,"x_max":696,"o":"m 585 734 l 585 630 l 214 630 l 214 734 l 585 734 m 232 734 l 232 0 l 106 0 l 106 734 l 232 734 m 696 734 l 696 0 l 570 0 l 570 734 l 696 734 z "},"т":{"ha":668,"x_min":27,"x_max":641,"o":"m 395 734 l 395 0 l 269 0 l 269 734 l 395 734 m 641 734 l 641 632 l 27 632 l 27 734 l 641 734 z "},"ф":{"ha":1008,"x_min":68,"x_max":939,"o":"m 939 354 l 939 340 q 922 198 939 262 q 872 85 905 133 q 789 12 838 38 q 674 -14 739 -14 q 580 0 621 -14 q 511 43 539 15 q 466 110 483 71 q 444 197 450 149 l 444 523 q 466 616 450 575 q 511 687 483 658 q 579 732 539 716 q 673 747 619 747 q 768 729 726 747 q 843 675 810 710 q 896 592 875 641 q 928 484 918 544 q 939 354 939 423 m 814 340 l 814 354 q 807 445 814 401 q 788 524 801 488 q 753 587 774 560 q 703 629 732 614 q 635 644 673 644 q 568 634 595 644 q 526 607 541 624 q 505 572 511 591 l 505 147 q 528 119 513 132 q 570 97 544 106 q 637 89 597 89 q 718 108 684 89 q 773 162 751 127 q 804 242 794 197 q 814 340 814 288 m 68 340 l 68 354 q 79 484 68 423 q 111 592 90 544 q 165 675 133 641 q 240 729 197 710 q 335 747 282 747 q 426 732 387 747 q 492 687 465 716 q 536 616 519 658 q 559 523 552 575 l 559 210 q 536 117 553 159 q 493 46 520 76 q 426 1 466 17 q 334 -14 387 -14 q 219 12 269 -14 q 136 85 170 38 q 85 198 102 133 q 68 340 68 262 m 194 354 l 194 340 q 203 242 194 288 q 232 162 212 197 q 285 108 252 127 q 365 89 317 89 q 432 99 406 89 q 474 125 458 109 q 498 159 490 142 l 498 572 q 476 607 491 591 q 434 634 460 624 q 366 644 408 644 q 286 621 319 644 q 232 558 252 598 q 203 466 212 518 q 194 354 194 413 m 435 -282 l 435 1042 l 562 1042 l 562 -282 l 435 -282 z "},"ц":{"ha":823,"x_min":106,"x_max":783,"o":"m 106 0 l 106 734 l 232 734 l 232 103 l 570 103 l 570 734 l 696 734 l 696 0 l 106 0 m 783 103 l 770 -218 l 659 -218 l 659 0 l 563 0 l 563 103 l 783 103 z "},"ч":{"ha":755,"x_min":71,"x_max":649,"o":"m 649 734 l 649 0 l 524 0 l 524 734 l 649 734 m 606 397 l 606 294 q 529 268 568 279 q 447 251 490 257 q 354 244 404 244 q 203 274 267 244 q 105 366 140 304 q 71 521 71 427 l 71 735 l 196 735 l 196 521 q 214 422 196 460 q 268 366 233 384 q 354 348 303 348 q 446 354 403 348 q 529 372 489 361 q 606 397 568 382 z "},"ш":{"ha":1124,"x_min":106,"x_max":1020,"o":"m 106 734 l 232 734 l 232 103 l 500 103 l 500 734 l 627 734 l 627 103 l 895 103 l 895 734 l 1020 734 l 1020 0 l 106 0 l 106 734 z "},"щ":{"ha":1149,"x_min":99,"x_max":1116,"o":"m 1116 103 l 1103 -218 l 991 -218 l 991 0 l 896 0 l 896 103 l 1116 103 m 99 734 l 224 734 l 224 103 l 493 103 l 493 734 l 619 734 l 619 103 l 887 103 l 887 734 l 1013 734 l 1013 0 l 99 0 l 99 734 z "},"ъ":{"ha":862,"x_min":20,"x_max":825,"o":"m 342 734 l 342 631 l 20 631 l 20 734 l 342 734 m 330 481 l 551 481 q 701 451 640 481 q 793 366 762 420 q 825 243 825 312 q 807 148 825 193 q 754 71 789 104 q 668 19 720 37 q 551 0 617 0 l 238 0 l 238 734 l 364 734 l 364 103 l 551 103 q 637 123 605 103 q 684 174 669 142 q 698 239 698 205 q 684 304 698 272 q 637 357 669 336 q 551 378 605 378 l 330 378 l 330 481 z "},"ы":{"ha":1078,"x_min":107,"x_max":954,"o":"m 199 481 l 419 481 q 569 451 508 481 q 662 366 630 420 q 693 243 693 312 q 675 148 693 193 q 623 71 658 104 q 537 19 588 37 q 419 0 486 0 l 107 0 l 107 734 l 233 734 l 233 103 l 419 103 q 506 123 473 103 q 553 174 538 142 q 567 239 567 205 q 553 304 567 272 q 506 357 538 336 q 419 378 473 378 l 199 378 l 199 481 m 954 734 l 954 0 l 829 0 l 829 734 l 954 734 z "},"ь":{"ha":754,"x_min":107,"x_max":693,"o":"m 199 481 l 419 481 q 569 451 508 481 q 662 366 630 420 q 693 243 693 312 q 675 148 693 193 q 623 71 658 104 q 537 19 588 37 q 419 0 486 0 l 107 0 l 107 734 l 233 734 l 233 103 l 419 103 q 506 123 473 103 q 553 174 538 142 q 567 239 567 205 q 553 304 567 272 q 506 357 538 336 q 419 378 473 378 l 199 378 l 199 481 z "},"э":{"ha":747,"x_min":68,"x_max":673,"o":"m 353 644 q 274 626 311 644 q 212 575 236 608 q 188 501 188 543 l 68 501 q 109 623 68 567 q 214 713 149 679 q 353 747 279 747 q 490 718 430 747 q 590 638 549 689 q 652 521 631 587 q 673 381 673 455 l 673 353 q 652 213 673 279 q 590 95 631 146 q 489 15 549 44 q 353 -14 430 -14 q 207 21 271 -14 q 105 116 142 56 q 68 252 68 176 l 188 252 q 210 169 188 206 q 269 111 232 132 q 353 89 307 89 q 441 112 404 89 q 502 173 478 135 q 537 258 526 211 q 548 353 548 305 l 548 381 q 537 476 548 429 q 502 561 526 523 q 442 622 479 599 q 353 644 405 644 m 609 425 l 609 323 l 271 323 l 271 425 l 609 425 z "},"ю":{"ha":1134,"x_min":107,"x_max":1074,"o":"m 513 422 l 513 320 l 123 320 l 123 422 l 513 422 m 233 734 l 233 0 l 107 0 l 107 734 l 233 734 m 406 359 l 406 374 q 429 522 406 454 q 496 641 452 590 q 601 719 540 691 q 739 747 663 747 q 879 719 817 747 q 984 641 941 691 q 1051 522 1028 590 q 1074 374 1074 454 l 1074 359 q 1051 212 1074 279 q 985 93 1028 144 q 880 15 941 43 q 741 -14 818 -14 q 602 15 663 -14 q 496 93 540 43 q 429 212 452 144 q 406 359 406 279 m 532 374 l 532 359 q 545 255 532 304 q 584 170 558 207 q 649 111 610 132 q 741 90 688 90 q 832 111 793 90 q 897 170 871 132 q 936 255 922 207 q 949 359 949 304 l 949 374 q 936 477 949 429 q 896 563 922 526 q 831 623 870 601 q 739 644 791 644 q 649 623 688 644 q 584 563 610 601 q 545 477 558 526 q 532 374 532 429 z "},"я":{"ha":762,"x_min":32,"x_max":656,"o":"m 244 350 l 380 350 l 168 0 l 32 0 l 244 350 m 349 734 l 656 734 l 656 0 l 530 0 l 530 632 l 349 632 q 262 614 296 632 q 212 568 228 596 q 197 509 197 539 q 211 451 197 479 q 256 406 225 424 q 334 389 286 389 l 564 389 l 564 286 l 334 286 q 222 302 271 286 q 140 350 174 319 q 88 421 106 380 q 71 510 71 462 q 89 599 71 558 q 143 670 108 640 q 231 717 179 701 q 349 734 283 734 z "},"ђ":{"ha":765,"x_min":-17,"x_max":673,"o":"m 547 308 l 673 308 l 673 -60 q 647 -189 673 -136 q 572 -269 621 -242 q 454 -296 523 -296 q 415 -294 433 -296 q 376 -285 397 -292 l 387 -184 q 420 -191 397 -189 q 454 -193 444 -193 q 504 -177 484 -193 q 536 -132 525 -161 q 547 -60 547 -102 l 547 308 m 221 1042 l 221 0 l 96 0 l 96 1042 l 221 1042 m 191 395 l 139 397 q 161 536 140 472 q 222 648 183 600 q 316 721 262 695 q 437 747 371 747 q 535 733 492 747 q 609 686 578 718 q 656 604 640 654 q 673 481 673 553 l 673 0 l 547 0 l 547 482 q 530 575 547 540 q 480 626 513 610 q 400 642 448 642 q 315 622 353 642 q 249 568 277 602 q 207 489 222 533 q 191 395 191 444 m 415 923 l 415 820 l -17 820 l -17 923 l 415 923 z "},"є":{"ha":747,"x_min":70,"x_max":688,"o":"m 471 418 l 471 315 l 96 315 l 96 418 l 471 418 m 397 90 q 479 108 441 90 q 542 158 517 126 q 570 232 566 191 l 688 232 q 645 111 685 167 q 539 21 604 55 q 397 -14 475 -14 q 252 16 314 -14 q 150 96 191 45 q 90 213 110 146 q 70 353 70 279 l 70 381 q 90 521 70 455 q 151 638 110 587 q 253 718 191 689 q 396 747 314 747 q 547 712 482 747 q 648 617 611 677 q 688 481 685 557 l 570 481 q 544 564 566 527 q 485 622 522 600 q 396 644 447 644 q 299 622 338 644 q 238 561 260 599 q 205 476 215 522 q 195 381 195 429 l 195 353 q 205 258 195 304 q 238 173 215 211 q 299 112 260 135 q 397 90 338 90 z "},"љ":{"ha":1178,"x_min":26,"x_max":1133,"o":"m 198 734 l 323 734 l 304 380 q 290 235 300 298 q 261 127 279 172 q 216 55 243 83 q 152 13 189 26 q 66 0 115 0 l 26 0 l 26 111 l 54 113 q 103 126 83 115 q 138 160 124 138 q 162 219 153 183 q 176 304 171 255 q 184 420 182 354 l 198 734 m 562 734 l 562 630 l 224 630 l 224 734 l 562 734 m 638 454 l 859 454 q 1009 425 948 454 q 1101 345 1070 396 q 1133 230 1133 294 q 1115 140 1133 182 q 1062 67 1097 98 q 977 18 1027 35 q 859 0 926 0 l 547 0 l 547 734 l 672 734 l 672 102 l 859 102 q 946 121 913 102 q 992 171 978 141 q 1006 231 1006 201 q 992 289 1006 261 q 946 334 978 317 q 859 352 913 352 l 638 352 l 638 454 z "},"њ":{"ha":1196,"x_min":106,"x_max":1156,"o":"m 593 456 l 593 355 l 205 355 l 205 456 l 593 456 m 232 734 l 232 0 l 106 0 l 106 734 l 232 734 m 661 454 l 882 454 q 1031 425 970 454 q 1124 345 1093 396 q 1156 230 1156 294 q 1138 140 1156 182 q 1085 67 1120 98 q 999 18 1050 35 q 882 0 948 0 l 569 0 l 569 734 l 695 734 l 695 102 l 882 102 q 968 121 936 102 q 1015 171 1000 141 q 1029 231 1029 201 q 1015 289 1029 261 q 968 334 1000 317 q 882 352 936 352 l 661 352 l 661 454 z "},"ћ":{"ha":787,"x_min":-2,"x_max":673,"o":"m 221 1042 l 221 0 l 96 0 l 96 1042 l 221 1042 m 191 395 l 139 397 q 161 536 140 472 q 222 648 183 600 q 316 721 262 695 q 437 747 371 747 q 535 733 492 747 q 609 686 578 718 q 656 604 640 654 q 673 481 673 553 l 673 0 l 547 0 l 547 482 q 530 575 547 540 q 480 626 513 610 q 400 642 448 642 q 315 622 353 642 q 249 568 277 602 q 207 489 222 533 q 191 395 191 444 m 430 926 l 430 823 l -2 823 l -2 926 l 430 926 z "},"џ":{"ha":802,"x_min":106,"x_max":696,"o":"m 340 103 l 466 103 l 466 -241 l 340 -241 l 340 103 m 106 734 l 232 734 l 232 103 l 570 103 l 570 734 l 696 734 l 696 0 l 106 0 l 106 734 z "},"Ѡ":{"ha":1221,"x_min":106,"x_max":1122,"o":"m 547 987 l 652 987 l 652 270 q 632 145 652 199 q 575 56 612 92 q 489 3 538 21 q 380 -14 439 -14 q 271 3 321 -14 q 184 56 221 21 q 126 145 147 92 q 106 270 106 199 l 106 987 l 237 987 l 237 270 q 248 192 237 225 q 278 136 258 159 q 323 103 297 114 q 380 92 349 92 q 466 112 429 92 q 525 171 504 132 q 547 270 547 210 l 547 987 m 991 987 l 1122 987 l 1122 270 q 1084 112 1122 175 q 983 17 1047 48 q 836 -14 918 -14 q 733 3 781 -14 q 650 56 685 21 q 595 145 615 92 q 576 270 576 199 l 576 987 l 682 987 l 682 270 q 693 192 682 225 q 725 136 705 159 q 774 103 746 114 q 836 92 803 92 q 916 112 881 92 q 971 171 951 132 q 991 270 991 210 l 991 987 z "},"ѡ":{"ha":1072,"x_min":87,"x_max":986,"o":"m 473 734 l 575 734 l 575 240 q 557 129 575 176 q 506 49 539 81 q 429 1 473 17 q 332 -14 385 -14 q 234 1 279 -14 q 157 49 190 17 q 106 129 124 81 q 87 240 87 176 l 87 734 l 214 734 l 214 240 q 222 174 214 202 q 247 126 231 145 q 284 98 263 108 q 332 89 306 89 q 404 105 372 89 q 455 156 436 122 q 473 240 473 189 l 473 734 m 861 734 l 986 734 l 986 240 q 953 98 986 155 q 862 14 920 42 q 730 -14 804 -14 q 638 1 680 -14 q 564 49 595 17 q 516 129 533 81 q 498 240 498 176 l 498 734 l 600 734 l 600 240 q 610 174 600 202 q 637 126 619 145 q 678 98 654 108 q 730 89 702 89 q 782 98 758 89 q 823 126 806 108 q 851 174 841 145 q 861 240 861 202 l 861 734 z "},"ѣ":{"ha":753,"x_min":-25,"x_max":692,"o":"m 197 506 l 418 506 q 568 473 507 506 q 661 385 629 441 q 692 256 692 328 q 661 126 692 184 q 568 34 629 68 q 418 0 507 0 l 106 0 l 106 1057 l 231 1057 l 231 103 l 418 103 q 505 124 472 103 q 551 180 537 146 q 566 251 566 214 q 551 322 566 287 q 505 380 537 357 q 418 404 472 404 l 197 404 l 197 506 m 450 837 l 450 734 l -25 734 l -25 837 l 450 837 z "},"Ѥ":{"ha":1245,"x_min":125,"x_max":1151,"o":"m 888 565 l 888 462 l 205 462 l 205 565 l 888 565 m 1020 315 l 1151 315 q 1097 147 1141 221 q 974 30 1053 73 q 776 -13 895 -13 q 618 20 689 -13 q 496 112 547 52 q 418 257 446 172 q 391 445 391 341 l 391 543 q 418 731 391 647 q 497 876 446 816 q 623 969 549 937 q 787 1002 696 1002 q 977 960 899 1002 q 1097 843 1054 918 q 1151 671 1141 769 l 1020 671 q 985 790 1010 741 q 911 867 959 840 q 787 895 864 895 q 672 869 722 895 q 589 798 623 844 q 538 688 555 752 q 522 545 522 623 l 522 445 q 531 334 522 387 q 561 237 541 281 q 611 161 581 193 q 682 111 641 129 q 776 94 724 94 q 909 120 859 94 q 984 196 958 146 q 1020 315 1009 245 m 256 987 l 256 0 l 125 0 l 125 987 l 256 987 z "},"ѥ":{"ha":1037,"x_min":104,"x_max":977,"o":"m 783 418 l 783 315 l 185 315 l 185 418 l 783 418 m 686 90 q 768 108 730 90 q 831 158 806 126 q 859 232 855 191 l 977 232 q 933 111 974 167 q 828 21 893 55 q 686 -14 764 -14 q 541 16 603 -14 q 439 96 479 45 q 379 213 399 146 q 359 353 359 279 l 359 381 q 379 521 359 455 q 439 638 399 587 q 542 718 480 689 q 686 747 603 747 q 836 712 772 747 q 937 617 900 677 q 977 481 974 557 l 859 481 q 833 564 855 527 q 773 622 811 600 q 686 644 736 644 q 589 622 627 644 q 527 561 550 599 q 495 476 505 522 q 485 381 485 429 l 485 353 q 494 258 485 304 q 527 173 504 211 q 588 112 549 135 q 686 90 627 90 m 230 734 l 230 0 l 104 0 l 104 734 l 230 734 z "},"Ѧ":{"ha":838,"x_min":27,"x_max":850,"o":"m 468 882 l 161 0 l 27 0 l 383 987 l 467 987 l 468 882 m 715 0 l 414 887 l 417 987 l 500 987 l 850 0 l 715 0 m 677 408 l 677 298 l 198 298 l 198 408 l 677 408 m 499 374 l 499 0 l 371 0 l 371 374 l 499 374 z "},"ѧ":{"ha":743,"x_min":10,"x_max":720,"o":"m 347 519 l 139 0 l 10 0 l 311 734 l 406 734 l 347 519 m 591 0 l 379 519 l 322 734 l 418 734 l 720 0 l 591 0 m 570 304 l 570 201 l 167 201 l 167 304 l 570 304 m 429 279 l 429 0 l 304 0 l 304 279 l 429 279 z "},"Ѩ":{"ha":1223,"x_min":137,"x_max":1208,"o":"m 583 408 l 583 299 l 212 299 l 212 408 l 583 408 m 827 882 l 520 0 l 386 0 l 742 987 l 825 987 l 827 882 m 1074 0 l 772 887 l 776 987 l 859 987 l 1208 0 l 1074 0 m 1036 408 l 1036 298 l 557 298 l 557 408 l 1036 408 m 858 374 l 858 0 l 730 0 l 730 374 l 858 374 m 268 987 l 268 0 l 137 0 l 137 987 l 268 987 z "},"ѩ":{"ha":1050,"x_min":128,"x_max":1023,"o":"m 504 304 l 504 201 l 186 201 l 186 304 l 504 304 m 650 519 l 442 0 l 313 0 l 614 734 l 709 734 l 650 519 m 895 0 l 682 519 l 625 734 l 722 734 l 1023 0 l 895 0 m 873 304 l 873 201 l 470 201 l 470 304 l 873 304 m 732 279 l 732 0 l 607 0 l 607 279 l 732 279 m 254 734 l 254 0 l 128 0 l 128 734 l 254 734 z "},"Ѫ":{"ha":1184,"x_min":100,"x_max":1085,"o":"m 231 0 l 100 0 l 100 251 q 139 426 100 360 q 252 521 178 492 q 429 550 326 550 l 755 550 q 933 521 859 550 q 1046 426 1006 492 q 1085 251 1085 360 l 1085 0 l 954 0 l 954 251 q 932 367 954 326 q 867 426 911 409 q 755 443 823 443 l 429 443 q 280 403 329 443 q 231 251 231 363 l 231 0 m 871 987 l 871 880 l 329 880 l 329 987 l 871 987 m 554 467 l 857 987 l 1005 987 l 657 414 l 574 414 l 554 467 m 338 987 l 643 462 l 620 414 l 538 414 l 189 987 l 338 987 m 660 530 l 660 0 l 530 0 l 530 530 l 660 530 z "},"ѫ":{"ha":1021,"x_min":102,"x_max":919,"o":"m 228 0 l 102 0 l 102 111 q 138 286 102 220 q 242 380 174 351 q 404 410 310 410 l 617 410 q 779 380 711 410 q 883 286 846 351 q 919 111 919 220 l 919 0 l 793 0 l 793 111 q 774 230 793 188 q 716 290 755 273 q 617 307 677 307 l 404 307 q 306 290 345 307 q 247 230 267 273 q 228 111 228 188 l 228 0 m 760 734 l 760 631 l 292 631 l 292 734 l 760 734 m 478 339 l 699 734 l 840 734 l 572 287 l 496 287 l 478 339 m 331 734 l 554 336 l 534 287 l 458 287 l 190 734 l 331 734 m 576 394 l 576 0 l 450 0 l 450 394 l 576 394 z "},"Ѭ":{"ha":1566,"x_min":124,"x_max":1466,"o":"m 857 551 l 857 448 l 238 448 l 238 551 l 857 551 m 255 987 l 255 0 l 124 0 l 124 987 l 255 987 m 612 0 l 481 0 l 481 251 q 521 426 481 360 q 634 521 560 492 q 810 550 707 550 l 1137 550 q 1315 521 1241 550 q 1427 426 1388 492 q 1466 251 1466 360 l 1466 0 l 1336 0 l 1336 251 q 1314 367 1336 326 q 1249 426 1293 409 q 1137 443 1204 443 l 810 443 q 662 403 711 443 q 612 251 612 363 l 612 0 m 1253 987 l 1253 880 l 711 880 l 711 987 l 1253 987 m 936 467 l 1238 987 l 1387 987 l 1038 414 l 956 414 l 936 467 m 720 987 l 1025 462 l 1002 414 l 920 414 l 571 987 l 720 987 m 1042 530 l 1042 0 l 911 0 l 911 530 l 1042 530 z "},"ѭ":{"ha":1357,"x_min":106,"x_max":1255,"o":"m 846 410 l 846 307 l 172 307 l 172 410 l 846 410 m 231 734 l 231 0 l 106 0 l 106 734 l 231 734 m 564 0 l 439 0 l 439 111 q 475 286 439 220 q 578 380 511 351 q 741 410 646 410 l 954 410 q 1115 380 1048 410 q 1219 286 1183 351 q 1255 111 1255 220 l 1255 0 l 1130 0 l 1130 111 q 1111 230 1130 188 q 1052 290 1091 273 q 954 307 1013 307 l 741 307 q 642 290 681 307 q 584 230 603 273 q 564 111 564 188 l 564 0 m 1096 734 l 1096 631 l 628 631 l 628 734 l 1096 734 m 814 339 l 1035 734 l 1176 734 l 908 287 l 832 287 l 814 339 m 667 734 l 890 336 l 871 287 l 795 287 l 526 734 l 667 734 m 912 394 l 912 0 l 787 0 l 787 394 l 912 394 z "},"Ѯ":{"ha":719,"x_min":54,"x_max":636,"o":"m 90 987 l 297 987 q 427 969 368 987 q 530 917 486 951 q 597 833 573 882 q 621 721 621 783 q 597 626 621 670 q 530 550 574 583 q 424 498 486 517 q 286 480 362 480 l 188 480 l 188 558 l 283 558 q 406 579 359 558 q 474 637 452 600 q 495 724 495 675 q 474 804 495 768 q 409 863 453 841 q 297 884 366 884 l 90 884 l 90 987 m 188 532 l 286 532 q 435 515 370 532 q 545 465 500 498 q 613 385 590 433 q 636 275 636 337 q 612 153 636 206 q 544 62 587 99 q 440 6 500 25 q 311 -13 381 -13 l 275 -13 q 197 -34 220 -13 q 174 -90 174 -56 q 193 -150 174 -125 q 237 -191 212 -175 q 283 -216 263 -206 l 233 -300 q 151 -252 191 -282 q 82 -180 110 -222 q 54 -83 55 -138 q 82 15 54 -24 q 160 71 109 53 q 280 90 210 90 l 311 90 q 395 103 357 90 q 458 141 432 117 q 497 200 484 166 q 511 273 511 233 q 496 353 511 319 q 452 410 481 387 q 381 445 423 433 q 283 456 338 456 l 188 456 l 188 532 m 267 1306 l 369 1191 l 471 1306 l 580 1306 l 580 1299 l 408 1114 l 330 1114 l 160 1299 l 160 1306 l 267 1306 z "},"ѯ":{"ha":669,"x_min":52,"x_max":602,"o":"m 87 734 l 292 734 q 409 720 355 734 q 503 678 463 705 q 565 612 543 651 q 587 524 587 573 q 565 452 587 485 q 503 393 543 418 q 406 354 463 368 q 281 340 350 340 l 182 340 l 182 418 l 278 418 q 384 432 343 418 q 442 470 424 446 q 460 527 460 494 q 450 567 460 549 q 419 600 440 586 q 367 622 399 614 q 292 630 335 630 l 87 630 l 87 734 m 182 392 l 281 392 q 417 380 357 392 q 518 344 477 368 q 580 286 559 320 q 602 206 602 251 q 579 114 602 155 q 517 45 557 73 q 423 2 477 16 q 305 -13 369 -13 l 272 -13 q 194 -34 217 -13 q 171 -90 171 -56 q 190 -150 171 -125 q 235 -191 209 -175 q 281 -216 260 -206 l 230 -300 q 148 -252 189 -282 q 80 -180 107 -222 q 52 -83 52 -138 q 79 15 52 -24 q 157 71 106 53 q 277 90 208 90 l 305 90 q 377 98 345 90 q 430 122 408 106 q 464 158 452 137 q 475 203 475 178 q 463 253 475 232 q 425 288 450 274 q 363 309 399 302 q 278 316 326 316 l 182 316 l 182 392 m 212 1075 l 314 960 l 416 1075 l 525 1075 l 525 1067 l 353 882 l 275 882 l 105 1068 l 105 1075 l 212 1075 z "},"Ѳ":{"ha":945,"x_min":70,"x_max":864,"o":"m 467 1001 q 600 980 538 1001 q 710 919 662 959 q 793 820 759 878 q 846 688 828 762 q 864 525 864 614 l 864 463 q 836 263 864 351 q 756 113 808 175 q 631 19 704 52 q 468 -14 558 -14 q 337 7 398 -14 q 227 69 276 28 q 142 167 178 109 q 89 299 107 225 q 70 463 70 374 l 70 525 q 99 724 70 636 q 180 874 127 812 q 306 968 233 936 q 467 1001 379 1001 m 467 890 q 366 870 412 890 q 285 812 319 850 q 229 716 251 773 q 201 586 208 660 q 200 563 201 575 q 199 539 199 551 l 734 539 q 734 562 734 551 q 732 585 734 574 q 706 716 726 659 q 651 811 686 772 q 571 870 617 850 q 467 890 524 890 m 468 97 q 573 117 526 97 q 653 176 620 137 q 707 274 687 216 q 732 407 727 332 q 733 421 733 414 q 734 436 734 429 l 200 436 q 201 415 201 425 q 203 395 202 405 q 231 267 210 323 q 288 174 253 212 q 368 116 322 136 q 468 97 414 97 z "},"ѳ":{"ha":789,"x_min":62,"x_max":730,"o":"m 395 747 q 535 719 473 747 q 640 641 597 691 q 707 522 684 590 q 730 374 730 454 l 730 359 q 707 212 730 279 q 640 93 684 144 q 535 15 597 43 q 397 -14 474 -14 q 258 15 319 -14 q 152 93 196 43 q 85 212 109 144 q 62 359 62 279 l 62 374 q 85 522 62 454 q 152 641 109 590 q 257 719 195 691 q 395 747 319 747 m 395 644 q 313 627 349 644 q 252 579 277 610 q 211 508 227 549 q 191 422 196 468 l 602 422 q 581 508 597 468 q 540 579 566 549 q 478 627 514 610 q 395 644 441 644 m 397 90 q 480 107 444 90 q 542 156 516 125 q 583 230 568 188 q 602 319 598 271 l 190 319 q 209 230 194 271 q 250 156 224 188 q 313 107 276 125 q 397 90 349 90 z "},"Ѵ":{"ha":876,"x_min":15,"x_max":844,"o":"m 439 254 l 614 802 q 663 917 636 873 q 727 980 690 960 q 813 1000 763 1000 l 844 1000 l 844 884 l 836 884 q 795 875 812 884 q 764 845 778 866 q 736 787 750 824 l 473 0 l 372 0 l 439 254 m 157 987 l 393 254 l 459 0 l 358 0 l 15 987 l 157 987 z "},"ѵ":{"ha":697,"x_min":32,"x_max":703,"o":"m 355 214 l 462 583 q 507 678 481 642 q 565 731 533 714 q 630 747 596 747 q 668 745 650 747 q 703 730 686 742 l 688 630 q 677 634 685 632 q 659 635 669 635 q 632 628 646 635 q 606 607 618 621 q 587 573 595 593 l 385 0 l 302 0 l 355 214 m 160 734 l 323 214 l 373 0 l 290 0 l 32 734 l 160 734 z "},"Ѻ":{"ha":945,"x_min":70,"x_max":864,"o":"m 536 1078 l 536 816 l 410 816 l 410 1078 l 536 1078 m 536 172 l 536 -96 l 410 -96 l 410 172 l 536 172 m 864 525 l 864 463 q 836 263 864 351 q 756 113 808 175 q 631 19 704 52 q 468 -14 558 -14 q 337 7 398 -14 q 227 69 276 28 q 142 167 178 109 q 89 299 107 225 q 70 463 70 374 l 70 525 q 99 724 70 636 q 180 874 127 812 q 306 968 233 936 q 467 1001 379 1001 q 600 980 538 1001 q 710 919 662 959 q 793 820 759 878 q 846 688 828 762 q 864 525 864 614 m 734 463 l 734 526 q 723 654 734 597 q 689 755 711 711 q 634 829 667 800 q 559 874 602 859 q 467 890 517 890 q 357 866 406 890 q 273 796 308 842 q 218 682 237 750 q 199 526 199 614 l 199 463 q 212 334 199 391 q 247 232 224 276 q 303 157 271 187 q 378 112 336 127 q 468 97 420 97 q 581 121 532 97 q 665 191 631 144 q 717 306 699 237 q 734 463 734 374 z "},"ѻ":{"ha":787,"x_min":62,"x_max":730,"o":"m 457 818 l 457 568 l 331 568 l 331 818 l 457 818 m 457 168 l 457 -81 l 331 -81 l 331 168 l 457 168 m 62 359 l 62 374 q 85 522 62 454 q 152 641 109 590 q 257 719 195 691 q 395 747 319 747 q 535 719 473 747 q 640 641 597 691 q 707 522 684 590 q 730 374 730 454 l 730 359 q 707 212 730 279 q 640 93 684 144 q 535 15 597 43 q 397 -14 474 -14 q 258 15 319 -14 q 152 93 196 43 q 85 212 109 144 q 62 359 62 279 m 188 374 l 188 359 q 201 255 188 304 q 240 170 214 207 q 305 111 266 132 q 397 90 345 90 q 487 111 448 90 q 552 170 526 132 q 591 255 578 207 q 604 359 604 304 l 604 374 q 591 477 604 429 q 552 563 578 526 q 487 623 526 601 q 395 644 448 644 q 305 623 344 644 q 240 563 266 601 q 201 477 214 526 q 188 374 188 429 z "},"Ѽ":{"ha":1216,"x_min":106,"x_max":1117,"o":"m 886 1185 l 913 1185 l 913 1099 l 885 1099 q 780 1112 826 1099 q 697 1142 734 1125 q 628 1171 660 1158 q 566 1184 596 1184 q 510 1166 531 1184 q 489 1111 489 1148 l 489 1099 l 402 1099 l 402 1123 q 445 1234 402 1198 q 563 1271 488 1271 q 640 1258 604 1271 q 712 1228 675 1245 q 790 1198 748 1211 q 886 1185 833 1185 m 589 898 l 537 935 q 571 986 559 962 q 583 1037 583 1010 l 583 1101 l 690 1101 l 690 1032 q 674 980 690 1006 q 634 932 658 954 q 589 898 610 910 m 380 987 l 380 880 q 307 858 339 880 q 256 792 275 836 q 237 680 237 747 l 237 293 q 248 204 237 242 q 278 142 258 167 q 323 104 297 117 q 380 92 349 92 q 466 112 429 92 q 525 171 504 132 q 547 270 547 210 l 547 560 l 652 560 l 652 270 q 632 145 652 199 q 575 56 612 92 q 489 3 538 21 q 380 -14 439 -14 q 271 5 321 -14 q 184 62 221 24 q 126 158 147 100 q 106 293 106 216 l 106 680 q 142 851 106 783 q 240 953 178 919 q 380 987 302 987 m 843 880 l 843 987 q 952 968 902 987 q 1039 910 1002 949 q 1097 814 1076 872 q 1117 680 1117 757 l 1117 293 q 1097 158 1117 216 q 1039 62 1076 100 q 952 5 1002 24 q 843 -14 902 -14 q 735 3 785 -14 q 649 56 686 21 q 592 145 612 92 q 572 270 572 199 l 572 560 l 677 560 l 677 270 q 690 192 677 225 q 724 136 702 159 q 777 103 747 114 q 843 92 807 92 q 900 104 874 92 q 946 142 926 117 q 976 204 965 167 q 987 293 987 242 l 987 680 q 976 768 987 730 q 946 831 965 806 q 900 868 926 856 q 843 880 874 880 z "},"ѽ":{"ha":1066,"x_min":85,"x_max":983,"o":"m 827 946 l 855 946 l 855 860 l 825 860 q 720 873 766 860 q 637 903 674 886 q 569 932 600 920 q 507 945 537 945 q 451 927 472 945 q 429 871 429 909 l 429 859 l 342 859 l 342 884 q 386 995 342 958 q 504 1031 429 1031 q 580 1019 545 1031 q 652 989 616 1006 q 731 959 688 972 q 827 946 773 946 m 528 652 l 477 690 q 512 741 500 717 q 524 791 524 766 l 524 856 l 630 856 l 630 787 q 614 734 630 761 q 574 686 597 708 q 528 652 551 665 m 330 741 l 330 638 q 269 619 296 638 q 227 561 242 600 q 212 462 212 522 l 212 265 q 220 187 212 220 q 245 132 229 154 q 282 100 261 111 q 330 89 304 89 q 386 98 360 89 q 431 126 412 108 q 461 174 450 145 q 472 240 472 202 l 472 399 l 573 399 l 573 240 q 555 129 573 176 q 504 49 537 81 q 427 1 471 17 q 330 -14 382 -14 q 232 3 277 -14 q 155 55 188 20 q 104 143 122 90 q 85 265 85 195 l 85 462 q 117 617 85 555 q 204 710 149 680 q 330 741 259 741 m 739 638 l 739 741 q 837 723 792 741 q 915 671 882 706 q 965 585 947 637 q 983 462 983 532 l 983 265 q 965 143 983 195 q 915 55 947 90 q 837 3 882 20 q 739 -14 792 -14 q 643 1 687 -14 q 565 49 598 17 q 514 129 532 81 q 496 240 496 176 l 496 399 l 597 399 l 597 240 q 608 174 597 202 q 638 126 619 145 q 683 98 657 108 q 739 89 709 89 q 787 100 765 89 q 824 132 808 111 q 849 187 840 154 q 858 265 858 220 l 858 462 q 849 540 858 507 q 824 595 840 573 q 787 627 808 616 q 739 638 765 638 z "},"Ѿ":{"ha":1221,"x_min":106,"x_max":1122,"o":"m 554 1145 l 342 1145 l 342 1218 l 892 1218 l 892 1145 l 668 1145 l 668 1060 l 554 1060 l 554 1145 m 547 987 l 652 987 l 652 270 q 632 145 652 199 q 575 56 612 92 q 489 3 538 21 q 380 -14 439 -14 q 271 3 321 -14 q 184 56 221 21 q 126 145 147 92 q 106 270 106 199 l 106 987 l 237 987 l 237 270 q 248 192 237 225 q 278 136 258 159 q 323 103 297 114 q 380 92 349 92 q 466 112 429 92 q 525 171 504 132 q 547 270 547 210 l 547 987 m 991 987 l 1122 987 l 1122 270 q 1084 112 1122 175 q 983 17 1047 48 q 836 -14 918 -14 q 733 3 781 -14 q 650 56 685 21 q 595 145 615 92 q 576 270 576 199 l 576 987 l 682 987 l 682 270 q 693 192 682 225 q 725 136 705 159 q 774 103 746 114 q 836 92 803 92 q 916 112 881 92 q 971 171 951 132 q 991 270 991 210 l 991 987 z "},"ѿ":{"ha":1072,"x_min":87,"x_max":986,"o":"m 478 915 l 266 915 l 266 988 l 816 988 l 818 915 l 592 915 l 592 829 l 478 829 l 478 915 m 473 734 l 575 734 l 575 240 q 557 129 575 176 q 506 49 539 81 q 429 1 473 17 q 332 -14 385 -14 q 234 1 279 -14 q 157 49 190 17 q 106 129 124 81 q 87 240 87 176 l 87 734 l 214 734 l 214 240 q 222 174 214 202 q 247 126 231 145 q 284 98 263 108 q 332 89 306 89 q 404 105 372 89 q 455 156 436 122 q 473 240 473 189 l 473 734 m 861 734 l 986 734 l 986 240 q 953 98 986 155 q 862 14 920 42 q 730 -14 804 -14 q 638 1 680 -14 q 564 49 595 17 q 516 129 533 81 q 498 240 498 176 l 498 734 l 600 734 l 600 240 q 610 174 600 202 q 637 126 619 145 q 678 98 654 108 q 730 89 702 89 q 782 98 758 89 q 823 126 806 108 q 851 174 841 145 q 861 240 861 202 l 861 734 z "},"Ҁ":{"ha":902,"x_min":80,"x_max":822,"o":"m 457 92 l 457 -14 q 332 6 390 -14 q 228 64 274 26 q 148 155 181 102 q 98 271 115 207 q 80 409 80 336 l 80 578 q 107 747 80 670 q 185 881 134 824 q 305 970 235 939 q 458 1002 374 1002 q 651 962 570 1002 q 777 847 732 922 q 822 671 821 773 l 692 671 q 664 790 691 741 q 585 867 637 840 q 458 895 534 895 q 355 870 401 895 q 277 803 309 846 q 228 703 245 760 q 211 580 211 646 l 211 409 q 222 309 211 356 q 253 221 233 261 q 304 153 274 182 q 372 108 334 124 q 457 92 411 92 m 535 92 l 535 -258 l 405 -258 l 405 92 l 535 92 z "},"ҁ":{"ha":743,"x_min":68,"x_max":673,"o":"m 389 89 l 389 -14 q 252 15 312 -14 q 152 95 193 44 q 89 213 111 146 q 68 353 68 279 l 68 381 q 89 521 68 455 q 152 638 111 587 q 252 718 193 689 q 389 747 312 747 q 535 712 471 747 q 636 617 600 677 q 673 481 673 557 l 555 481 q 533 564 555 527 q 473 623 511 601 q 389 644 435 644 q 300 622 337 644 q 240 561 263 599 q 205 476 216 522 q 194 381 194 429 l 194 353 q 205 257 194 304 q 239 172 216 210 q 300 112 262 134 q 389 89 337 89 m 458 89 l 458 -259 l 332 -259 l 332 89 l 458 89 z "},"҂":{"ha":867,"x_min":79,"x_max":793,"o":"m 548 550 l 408 303 l 604 186 l 557 102 l 359 218 l 236 0 l 122 0 l 275 270 l 79 386 l 125 469 l 323 353 l 463 601 l 266 717 l 313 802 l 511 686 l 638 910 l 750 910 l 594 634 l 793 518 l 743 435 l 548 550 z "},"҃":{"ha":0,"x_min":-625,"x_max":-147,"o":"m -147 892 l -513 892 l -513 807 l -625 808 l -625 966 l -258 966 l -259 1039 l -147 1038 l -147 892 z "},"҄":{"ha":0,"x_min":-618,"x_max":-106,"o":"m -618 970 l -590 970 q -494 983 -536 970 q -415 1013 -452 996 q -343 1043 -379 1030 q -267 1056 -308 1056 q -149 1019 -192 1056 q -106 908 -106 983 l -106 884 l -193 884 l -193 896 q -214 951 -193 934 q -270 969 -235 969 q -332 956 -300 969 q -400 927 -363 943 q -484 897 -437 910 q -589 884 -530 884 l -618 884 l -618 970 z "},"҅":{"ha":0,"x_min":-452,"x_max":-290,"o":"m -343 884 l -452 1017 l -452 1101 l -330 1101 l -331 1006 l -290 928 l -343 884 z "},"҆":{"ha":0,"x_min":-410,"x_max":-248,"o":"m -248 1017 l -358 884 l -410 928 l -370 1006 l -371 1101 l -248 1101 l -248 1017 z "},"҈":{"ha":0,"x_min":-1024,"x_max":297,"o":"m -439 859 l -516 859 q -478 951 -516 916 q -374 987 -439 987 q -269 951 -307 987 q -231 859 -231 916 l -307 859 q -322 907 -307 886 q -374 928 -337 928 q -425 907 -410 928 q -439 859 -439 886 m -38 671 l -115 671 q -77 763 -115 728 q 27 799 -39 799 q 132 763 94 799 q 171 671 171 728 l 94 671 q 79 719 94 699 q 27 740 64 740 q -23 719 -8 740 q -38 671 -38 699 m 88 330 l 12 330 q 50 422 12 387 q 154 458 88 458 q 259 422 220 458 q 297 330 297 387 l 221 330 q 206 378 221 357 q 154 399 191 399 q 103 378 119 399 q 88 330 88 357 m -45 -22 l -122 -22 q -84 70 -122 35 q 20 106 -45 106 q 125 70 87 106 q 163 -22 163 35 l 87 -22 q 73 26 87 5 q 20 47 58 47 q -30 26 -15 47 q -45 -22 -45 5 m -436 -214 l -513 -214 q -474 -122 -513 -158 q -370 -87 -436 -87 q -266 -122 -304 -87 q -227 -214 -227 -158 l -303 -214 q -318 -166 -303 -187 q -370 -146 -334 -146 q -421 -166 -406 -146 q -436 -214 -436 -187 m -827 671 l -905 671 q -866 763 -905 728 q -762 799 -827 799 q -657 763 -695 799 q -618 671 -618 728 l -694 671 q -710 719 -694 699 q -762 740 -725 740 q -812 719 -798 740 q -827 671 -827 699 m -947 330 l -1024 330 q -986 422 -1024 387 q -882 458 -947 458 q -777 422 -815 458 q -739 330 -739 387 l -814 330 q -829 378 -814 357 q -882 399 -844 399 q -932 378 -917 399 q -947 330 -947 357 m -834 -22 l -911 -22 q -873 70 -911 35 q -769 106 -835 106 q -664 70 -703 106 q -625 -22 -625 35 l -702 -22 q -717 26 -702 5 q -769 47 -732 47 q -819 26 -804 47 q -834 -22 -834 5 z "},"҉":{"ha":0,"x_min":-1013,"x_max":246,"o":"m -409 -41 l -316 -41 l -309 -50 l -391 -280 l -456 -280 l -409 -41 m -356 764 l -448 764 l -456 773 l -374 1002 l -309 1002 l -356 764 m 12 334 l 12 428 l 20 436 l 246 352 l 246 286 l 12 334 m -778 388 l -778 294 l -787 286 l -1013 370 l -1013 436 l -778 388 m -85 612 l -151 680 l -150 690 l 68 794 l 114 748 l -85 612 m -681 81 l -615 14 l -616 3 l -833 -101 l -880 -54 l -681 81 m -644 650 l -710 583 l -722 585 l -822 806 l -778 852 l -644 650 m -123 42 l -58 109 l -46 108 l 55 -113 l 10 -161 l -123 42 z "},"Ҋ":{"ha":1048,"x_min":121,"x_max":990,"o":"m 251 227 l 737 987 l 868 987 l 868 0 l 737 0 l 737 762 l 251 0 l 121 0 l 121 987 l 251 987 l 251 227 m 599 1232 l 701 1232 q 676 1138 701 1179 q 606 1074 652 1097 q 498 1051 561 1051 q 350 1102 404 1051 q 295 1232 295 1152 l 397 1232 q 420 1162 397 1192 q 498 1131 443 1131 q 576 1162 553 1131 q 599 1232 599 1192 m 990 103 l 990 2 q 959 -129 990 -60 q 871 -243 928 -197 l 800 -194 q 837 -133 822 -164 q 860 -70 852 -102 q 867 0 867 -37 l 867 103 l 990 103 z "},"ҋ":{"ha":855,"x_min":106,"x_max":819,"o":"m 231 199 l 570 734 l 696 734 l 696 0 l 570 0 l 570 535 l 231 0 l 106 0 l 106 734 l 231 734 l 231 199 m 501 1000 l 603 1000 q 578 906 603 947 q 509 842 554 865 q 401 819 463 819 q 252 869 307 819 q 197 1000 197 920 l 299 1000 q 322 929 299 960 q 401 899 345 899 q 478 929 455 899 q 501 1000 501 960 m 819 103 l 819 2 q 787 -129 819 -60 q 700 -243 756 -197 l 629 -194 q 665 -133 650 -164 q 688 -70 680 -102 q 696 0 696 -37 l 696 103 l 819 103 z "},"ҍ":{"ha":753,"x_min":-25,"x_max":692,"o":"m 197 506 l 418 506 q 568 473 507 506 q 661 385 629 441 q 692 256 692 328 q 661 126 692 184 q 568 34 629 68 q 418 0 507 0 l 106 0 l 106 1119 l 231 1119 l 231 103 l 418 103 q 505 124 472 103 q 551 180 537 146 q 566 251 566 214 q 551 322 566 287 q 505 380 537 357 q 418 404 472 404 l 197 404 l 197 506 m 450 987 l 450 884 l -25 884 l -25 987 l 450 987 z "},"Ҏ":{"ha":886,"x_min":115,"x_max":841,"o":"m 591 665 l 841 390 l 766 321 l 517 595 l 591 665 m 479 387 l 215 387 l 215 494 l 479 494 q 603 518 555 494 q 672 586 650 543 q 694 685 694 629 q 672 781 694 736 q 603 853 650 825 q 479 880 555 880 l 245 880 l 245 0 l 115 0 l 115 987 l 479 987 q 668 949 591 987 q 785 842 745 910 q 825 686 825 774 q 785 524 825 591 q 668 422 745 457 q 479 387 591 387 z "},"ҏ":{"ha":788,"x_min":95,"x_max":718,"o":"m 494 264 l 718 10 l 644 -60 l 420 194 l 494 264 m 221 593 l 221 -282 l 95 -282 l 95 734 l 210 734 l 221 593 m 715 373 l 715 359 q 696 211 715 279 q 641 92 677 142 q 552 14 605 42 q 431 -14 499 -14 q 307 9 361 -14 q 216 77 254 33 q 157 182 179 121 q 127 321 135 244 l 127 397 q 157 543 135 479 q 217 653 180 608 q 307 723 254 699 q 429 747 359 747 q 551 721 498 747 q 642 644 605 694 q 697 526 678 595 q 715 373 715 457 m 589 359 l 589 373 q 578 476 589 428 q 542 562 566 525 q 481 620 518 599 q 392 642 444 642 q 310 625 345 642 q 250 582 275 609 q 211 519 226 554 q 188 447 195 484 l 188 271 q 214 203 198 235 q 254 145 230 170 q 312 104 278 119 q 393 90 347 90 q 481 111 444 90 q 542 170 518 132 q 578 255 566 207 q 589 359 589 304 z "},"Ґ":{"ha":762,"x_min":110,"x_max":719,"o":"m 719 1215 l 719 884 l 593 884 l 593 1215 l 719 1215 m 717 987 l 717 880 l 241 880 l 241 0 l 110 0 l 110 987 l 717 987 z "},"ґ":{"ha":619,"x_min":99,"x_max":566,"o":"m 566 949 l 566 630 l 440 630 l 440 949 l 566 949 m 564 734 l 564 630 l 224 630 l 224 0 l 99 0 l 99 734 l 564 734 z "},"Ҕ":{"ha":843,"x_min":121,"x_max":779,"o":"m 727 987 l 727 880 l 251 880 l 251 0 l 121 0 l 121 987 l 727 987 m 229 456 l 229 565 l 374 565 q 544 538 469 565 q 672 461 619 512 q 751 338 724 411 q 779 174 779 266 q 758 17 779 85 q 697 -100 738 -52 q 597 -172 657 -147 q 458 -197 537 -197 l 456 -97 q 549 -78 511 -97 q 610 -23 587 -58 q 643 63 633 13 q 653 174 653 113 q 635 295 652 242 q 583 383 617 347 q 496 437 548 419 q 374 456 444 456 l 229 456 z "},"ҕ":{"ha":699,"x_min":99,"x_max":650,"o":"m 124 328 l 124 438 l 303 438 q 482 400 404 438 q 605 290 560 361 q 650 115 650 218 q 636 31 650 78 q 591 -63 622 -17 q 511 -144 561 -109 q 389 -193 462 -179 l 356 -94 q 457 -46 420 -77 q 509 26 494 -16 q 524 115 525 68 q 496 232 524 184 q 418 304 467 279 q 303 328 368 328 l 124 328 m 564 734 l 564 630 l 224 630 l 224 0 l 99 0 l 99 734 l 564 734 z "},"Җ":{"ha":1325,"x_min":18,"x_max":1303,"o":"m 397 451 l 45 987 l 198 987 l 460 559 l 646 559 l 625 451 l 397 451 m 468 461 l 181 0 l 18 0 l 385 574 l 468 461 m 703 987 l 703 0 l 573 0 l 573 987 l 703 987 m 1226 987 l 872 451 l 651 451 l 631 559 l 810 559 l 1072 987 l 1226 987 m 1089 0 l 803 461 l 886 574 l 1252 0 l 1089 0 m 1303 104 l 1303 -243 l 1178 -243 l 1178 104 l 1303 104 z "},"җ":{"ha":1107,"x_min":15,"x_max":1083,"o":"m 318 319 l 40 734 l 191 734 l 381 430 l 528 430 l 509 319 l 318 319 m 387 332 l 174 0 l 15 0 l 307 423 l 387 332 m 592 734 l 592 0 l 467 0 l 467 734 l 592 734 m 1020 734 l 742 319 l 551 319 l 531 430 l 678 430 l 868 734 l 1020 734 m 886 0 l 672 332 l 753 423 l 1044 0 l 886 0 m 1083 104 l 1083 -243 l 958 -243 l 958 104 l 1083 104 z "},"Қ":{"ha":972,"x_min":121,"x_max":914,"o":"m 252 987 l 252 0 l 121 0 l 121 987 l 252 987 m 860 987 l 431 444 l 199 444 l 179 553 l 353 553 l 698 987 l 860 987 m 728 0 l 357 461 l 431 576 l 888 0 l 728 0 m 914 102 l 914 -245 l 789 -245 l 789 102 l 914 102 z "},"қ":{"ha":819,"x_min":106,"x_max":782,"o":"m 232 734 l 232 0 l 106 0 l 106 734 l 232 734 m 713 734 l 366 313 l 190 313 l 171 423 l 315 423 l 561 734 l 713 734 m 578 0 l 309 332 l 389 423 l 738 0 l 578 0 m 782 104 l 782 -243 l 656 -243 l 656 104 l 782 104 z "},"Ҝ":{"ha":875,"x_min":111,"x_max":867,"o":"m 111 987 l 241 987 l 241 0 l 111 0 l 111 987 m 312 727 l 413 727 l 413 279 l 312 279 l 312 727 m 684 987 l 838 987 l 522 444 l 189 444 l 170 553 l 465 553 l 684 987 m 458 461 l 535 574 l 867 0 l 704 0 l 458 461 z "},"ҝ":{"ha":780,"x_min":105,"x_max":781,"o":"m 105 734 l 231 734 l 231 0 l 105 0 l 105 734 m 299 568 l 400 568 l 400 181 l 299 181 l 299 568 m 604 734 l 756 734 l 479 313 l 189 313 l 170 423 l 429 423 l 604 734 m 422 332 l 503 423 l 781 0 l 622 0 l 422 332 z "},"Ҡ":{"ha":1137,"x_min":47,"x_max":1136,"o":"m 408 987 l 408 884 l 47 884 l 47 987 l 408 987 m 499 987 l 499 0 l 369 0 l 369 987 l 499 987 m 1108 987 l 679 444 l 447 444 l 427 553 l 601 553 l 945 987 l 1108 987 m 976 0 l 605 461 l 678 576 l 1136 0 l 976 0 z "},"ҡ":{"ha":958,"x_min":43,"x_max":953,"o":"m 387 734 l 387 631 l 43 631 l 43 734 l 387 734 m 448 734 l 448 0 l 321 0 l 321 734 l 448 734 m 928 734 l 581 313 l 405 313 l 386 423 l 530 423 l 776 734 l 928 734 m 793 0 l 524 332 l 604 423 l 953 0 l 793 0 z "},"Ң":{"ha":1041,"x_min":115,"x_max":983,"o":"m 760 563 l 760 456 l 225 456 l 225 563 l 760 563 m 245 987 l 245 0 l 115 0 l 115 987 l 245 987 m 873 987 l 873 0 l 743 0 l 743 987 l 873 987 m 983 104 l 983 -243 l 857 -243 l 857 104 l 983 104 z "},"ң":{"ha":842,"x_min":106,"x_max":804,"o":"m 593 416 l 593 314 l 205 314 l 205 416 l 593 416 m 232 734 l 232 0 l 106 0 l 106 734 l 232 734 m 695 734 l 695 0 l 569 0 l 569 734 l 695 734 m 804 104 l 804 -243 l 679 -243 l 679 104 l 804 104 z "},"Ҥ":{"ha":1356,"x_min":115,"x_max":1305,"o":"m 1305 987 l 1305 884 l 864 884 l 784 987 l 1305 987 m 759 563 l 759 456 l 225 456 l 225 563 l 759 563 m 245 987 l 245 0 l 115 0 l 115 987 l 245 987 m 873 987 l 873 0 l 743 0 l 743 987 l 873 987 z "},"ҥ":{"ha":990,"x_min":99,"x_max":940,"o":"m 940 734 l 940 630 l 624 630 l 624 734 l 940 734 m 587 416 l 587 314 l 198 314 l 198 416 l 587 416 m 224 734 l 224 0 l 99 0 l 99 734 l 224 734 m 688 734 l 688 0 l 562 0 l 562 734 l 688 734 z "},"Ҧ":{"ha":1422,"x_min":119,"x_max":1354,"o":"m 867 987 l 867 0 l 737 0 l 737 880 l 250 880 l 250 0 l 119 0 l 119 987 l 867 987 m 804 456 l 804 565 l 949 565 q 1120 538 1045 565 q 1247 461 1195 512 q 1327 338 1300 411 q 1354 174 1354 266 q 1334 17 1354 85 q 1273 -100 1314 -52 q 1173 -172 1233 -147 q 1034 -197 1113 -197 l 1032 -97 q 1125 -78 1087 -97 q 1185 -23 1162 -58 q 1219 63 1208 13 q 1229 174 1229 113 q 1211 295 1228 242 q 1158 383 1193 347 q 1072 437 1124 419 q 949 456 1019 456 l 804 456 z "},"ҧ":{"ha":1207,"x_min":99,"x_max":1161,"o":"m 616 328 l 616 438 l 802 438 q 987 400 906 438 q 1115 290 1068 361 q 1161 115 1161 218 q 1147 31 1161 78 q 1103 -63 1133 -17 q 1022 -144 1072 -109 q 901 -193 972 -179 l 867 -94 q 968 -46 931 -77 q 1020 26 1004 -16 q 1036 115 1036 68 q 1005 232 1036 184 q 923 304 975 279 q 802 328 870 328 l 616 328 m 577 734 l 577 630 l 206 630 l 206 734 l 577 734 m 224 734 l 224 0 l 99 0 l 99 734 l 224 734 m 688 734 l 688 0 l 562 0 l 562 734 l 688 734 z "},"Ҩ":{"ha":1030,"x_min":77,"x_max":979,"o":"m 979 90 l 979 -19 q 748 17 852 -19 q 568 119 644 53 q 453 275 493 184 q 412 474 412 366 l 412 628 q 432 775 412 707 q 489 893 452 842 q 577 971 526 943 q 690 1000 628 1000 q 805 972 753 1000 q 893 895 856 945 q 950 776 930 844 q 970 625 970 707 l 970 460 q 937 273 970 359 q 840 122 903 186 q 691 22 778 58 q 498 -14 604 -14 q 325 22 403 -14 q 192 122 248 58 q 106 272 136 186 q 77 458 77 358 l 77 574 q 99 743 77 665 q 163 879 121 821 q 261 969 204 937 q 389 1002 319 1002 l 389 890 q 313 867 347 890 q 257 800 280 843 q 221 700 233 758 q 209 576 209 643 l 209 458 q 229 315 209 380 q 287 200 249 249 q 377 124 324 151 q 498 96 431 96 q 643 124 579 96 q 750 201 706 152 q 817 317 793 251 q 840 460 840 383 l 840 629 q 829 734 840 687 q 800 817 819 782 q 753 870 781 852 q 690 889 726 889 q 628 870 656 889 q 582 815 601 850 q 553 733 563 780 q 543 630 543 686 l 543 473 q 571 317 543 387 q 655 196 600 246 q 792 118 711 145 q 979 90 873 90 z "},"ҩ":{"ha":838,"x_min":75,"x_max":801,"o":"m 801 98 l 801 -8 q 609 22 694 -8 q 463 106 523 52 q 370 232 402 160 q 338 389 338 304 l 338 458 q 353 575 338 522 q 395 667 368 628 q 463 727 423 706 q 553 749 503 749 q 642 726 602 749 q 710 661 682 703 q 753 564 739 620 q 768 444 768 509 l 768 373 q 743 220 768 291 q 669 97 717 150 q 555 15 621 44 q 408 -14 489 -14 q 272 16 334 -14 q 167 101 211 47 q 99 229 123 156 q 75 387 75 302 l 75 425 q 92 553 75 494 q 141 655 109 612 q 216 723 172 699 q 313 747 260 747 l 313 641 q 267 625 288 641 q 231 580 246 609 q 208 512 216 551 q 200 427 200 473 l 200 387 q 214 271 200 324 q 256 177 229 217 q 321 115 283 137 q 408 93 359 93 q 506 114 463 93 q 580 174 549 136 q 626 262 610 212 q 642 373 642 313 l 642 446 q 636 523 642 487 q 619 585 631 558 q 591 627 608 612 q 553 642 574 642 q 514 629 531 642 q 486 591 497 616 q 469 533 475 567 q 463 460 463 500 l 463 387 q 486 270 463 323 q 552 179 509 217 q 658 119 595 140 q 801 98 721 98 z "},"Ҳ":{"ha":884,"x_min":39,"x_max":863,"o":"m 199 987 l 437 609 l 674 987 l 827 987 l 515 498 l 834 0 l 680 0 l 437 386 l 193 0 l 39 0 l 359 498 l 47 987 l 199 987 m 863 104 l 863 -243 l 737 -243 l 737 104 l 863 104 z "},"ҳ":{"ha":723,"x_min":28,"x_max":699,"o":"m 180 734 l 341 467 l 504 734 l 651 734 l 411 372 l 659 0 l 513 0 l 344 275 l 174 0 l 28 0 l 275 372 l 36 734 l 180 734 m 699 104 l 699 -243 l 573 -243 l 573 104 l 699 104 z "},"Ҵ":{"ha":1246,"x_min":35,"x_max":1142,"o":"m 682 987 l 682 884 l 35 884 l 35 987 l 682 987 m 1142 110 l 1130 -238 l 1013 -238 l 1013 0 l 916 0 l 916 110 l 1142 110 m 290 0 l 290 987 l 421 987 l 421 106 l 908 106 l 908 987 l 1038 987 l 1038 0 l 290 0 z "},"ҵ":{"ha":931,"x_min":21,"x_max":884,"o":"m 501 734 l 501 631 l 21 631 l 21 734 l 501 734 m 207 0 l 207 734 l 333 734 l 333 103 l 671 103 l 671 734 l 796 734 l 796 0 l 207 0 m 884 103 l 871 -218 l 759 -218 l 759 0 l 663 0 l 663 103 l 884 103 z "},"Ҷ":{"ha":996,"x_min":102,"x_max":938,"o":"m 102 987 l 233 987 l 233 679 q 256 559 233 602 q 323 498 278 515 q 437 480 369 480 q 516 484 477 480 q 591 493 554 487 q 663 508 627 499 q 733 527 699 517 l 733 420 q 667 401 700 410 q 599 386 634 392 q 525 376 564 380 q 437 373 485 373 q 257 403 332 373 q 142 500 182 433 q 102 679 102 568 l 102 987 m 700 987 l 831 987 l 831 0 l 700 0 l 700 987 m 938 104 l 938 -243 l 812 -243 l 812 104 l 938 104 z "},"ҷ":{"ha":796,"x_min":71,"x_max":759,"o":"m 649 734 l 649 0 l 524 0 l 524 734 l 649 734 m 606 397 l 606 294 q 529 268 568 279 q 447 251 490 257 q 354 244 404 244 q 203 274 267 244 q 105 366 140 304 q 71 521 71 427 l 71 735 l 196 735 l 196 521 q 214 422 196 460 q 268 366 233 384 q 354 348 303 348 q 446 354 403 348 q 529 372 489 361 q 606 397 568 382 m 759 104 l 759 -243 l 633 -243 l 633 104 l 759 104 z "},"Ҹ":{"ha":944,"x_min":102,"x_max":831,"o":"m 536 691 l 536 216 l 435 216 l 435 691 l 536 691 m 102 987 l 233 987 l 233 679 q 256 559 233 602 q 323 498 278 515 q 437 480 369 480 q 516 484 477 480 q 591 493 554 487 q 663 508 627 499 q 733 527 699 517 l 733 420 q 667 401 700 410 q 599 386 634 392 q 525 376 564 380 q 437 373 485 373 q 257 403 332 373 q 142 500 182 433 q 102 679 102 568 l 102 987 m 700 987 l 831 987 l 831 0 l 700 0 l 700 987 z "},"ҹ":{"ha":767,"x_min":90,"x_max":668,"o":"m 438 539 l 438 155 l 337 155 l 337 539 l 438 539 m 668 734 l 668 0 l 543 0 l 543 734 l 668 734 m 625 397 l 625 294 q 548 268 587 279 q 466 251 509 257 q 373 244 423 244 q 222 274 286 244 q 124 366 159 304 q 90 521 90 427 l 90 735 l 215 735 l 215 521 q 233 422 215 460 q 287 366 252 384 q 373 348 322 348 q 465 354 422 348 q 548 372 508 361 q 625 397 587 382 z "},"Һ":{"ha":944,"x_min":93,"x_max":821,"o":"m 821 0 l 690 0 l 690 309 q 668 429 690 386 q 601 490 646 472 q 487 507 555 507 q 408 504 446 507 q 333 494 370 500 q 261 479 296 488 q 191 460 225 471 l 191 568 q 257 587 224 578 q 325 602 290 595 q 399 611 359 608 q 487 614 439 614 q 667 584 592 614 q 781 487 741 554 q 821 309 821 420 l 821 0 m 224 0 l 93 0 l 93 987 l 224 987 l 224 0 z "},"Ҽ":{"ha":1074,"x_min":43,"x_max":997,"o":"m 43 733 l 146 733 q 163 647 146 684 q 218 589 181 610 q 314 568 256 568 l 314 473 q 164 505 225 473 q 73 596 104 537 q 43 733 43 654 m 679 -16 q 500 16 578 -16 q 368 104 422 47 q 287 238 315 161 q 260 409 260 316 l 260 578 q 288 748 260 671 q 367 883 317 826 q 485 970 418 939 q 629 1000 551 1001 q 788 969 720 1000 q 904 878 857 937 q 974 736 950 819 q 997 549 997 652 l 997 473 l 339 473 l 339 567 l 866 567 l 866 589 q 853 707 866 652 q 813 804 841 762 q 740 868 785 845 q 629 892 694 892 q 527 867 572 892 q 452 800 483 843 q 406 700 422 756 q 390 578 390 643 l 390 409 q 406 286 390 343 q 457 185 422 229 q 547 117 492 142 q 679 92 602 92 q 819 111 763 92 q 913 149 876 130 l 945 52 q 895 25 929 41 q 808 -3 861 9 q 679 -16 754 -16 z "},"ҽ":{"ha":823,"x_min":-24,"x_max":762,"o":"m -24 581 l 77 581 q 111 475 77 515 q 218 435 144 435 l 218 343 q 85 372 139 343 q 4 454 31 401 q -24 581 -24 508 m 476 -14 q 337 13 399 -14 q 231 86 275 39 q 163 199 186 134 q 139 341 139 264 l 139 370 q 165 529 139 459 q 237 648 192 600 q 340 722 283 697 q 460 747 398 747 q 596 720 539 747 q 690 645 653 693 q 745 531 727 596 q 762 388 762 465 l 762 332 l 214 332 l 214 434 l 636 434 l 636 444 q 624 516 634 480 q 594 581 614 551 q 541 627 574 610 q 460 644 508 644 q 381 626 417 644 q 319 573 345 608 q 279 487 294 538 q 265 370 265 436 l 265 341 q 280 243 265 289 q 322 163 294 197 q 391 109 351 128 q 483 89 431 89 q 595 116 549 89 q 676 189 642 143 l 753 128 q 692 60 729 92 q 602 7 655 27 q 476 -14 549 -14 z "},"Ӄ":{"ha":875,"x_min":111,"x_max":833,"o":"m 241 987 l 241 0 l 111 0 l 111 987 l 241 987 m 833 987 l 389 448 l 189 448 l 170 564 l 332 564 l 680 987 l 833 987 m 277 448 l 277 562 l 426 562 q 596 535 521 562 q 724 459 671 509 q 803 335 776 408 q 831 170 831 262 q 810 15 831 83 q 749 -103 790 -54 q 648 -177 709 -151 q 507 -202 587 -202 l 505 -99 q 597 -79 560 -99 q 658 -24 635 -60 q 691 61 681 12 q 701 169 701 110 q 683 289 700 237 q 631 377 665 341 q 545 430 596 412 q 426 448 494 448 l 277 448 z "},"ӄ":{"ha":755,"x_min":105,"x_max":712,"o":"m 231 734 l 231 0 l 105 0 l 105 734 l 231 734 m 712 734 l 345 313 l 189 313 l 170 423 l 293 423 l 559 734 l 712 734 m 159 313 l 159 422 l 347 422 q 532 389 451 422 q 660 289 613 356 q 706 119 706 221 q 691 38 705 83 q 647 -52 677 -7 q 567 -129 617 -96 q 446 -176 517 -163 l 412 -77 q 513 -32 476 -61 q 565 35 549 -3 q 581 119 581 74 q 550 231 581 189 q 468 294 520 274 q 347 313 416 313 l 159 313 z "},"Ӆ":{"ha":1040,"x_min":33,"x_max":983,"o":"m 749 987 l 749 880 l 298 880 l 298 987 l 749 987 m 862 987 l 862 0 l 731 0 l 731 987 l 862 987 m 253 987 l 383 987 l 361 504 q 345 318 356 399 q 313 176 334 236 q 260 77 293 116 q 181 19 228 38 q 68 0 134 0 l 33 0 l 33 106 l 60 109 q 125 126 98 111 q 172 170 153 140 q 203 248 191 200 q 223 364 216 295 q 234 525 230 433 l 253 987 m 983 103 l 983 2 q 951 -129 983 -60 q 864 -243 920 -197 l 793 -194 q 829 -133 814 -164 q 852 -70 844 -102 q 860 0 860 -37 l 860 103 l 983 103 z "},"ӆ":{"ha":857,"x_min":30,"x_max":819,"o":"m 586 734 l 586 630 l 231 630 l 231 734 l 586 734 m 696 734 l 696 0 l 571 0 l 571 734 l 696 734 m 201 734 l 327 734 l 308 380 q 293 235 303 298 q 264 127 282 172 q 219 55 246 83 q 155 13 193 26 q 69 0 118 0 l 30 0 l 30 111 l 57 113 q 107 126 86 115 q 142 160 127 138 q 165 219 156 183 q 179 304 174 255 q 187 420 184 354 l 201 734 m 819 103 l 819 2 q 788 -129 819 -60 q 701 -243 757 -197 l 629 -194 q 666 -133 651 -164 q 689 -70 681 -102 q 696 0 696 -37 l 696 103 l 819 103 z "},"Ӈ":{"ha":989,"x_min":121,"x_max":867,"o":"m 121 987 l 252 987 l 252 542 l 736 542 l 736 987 l 867 987 l 867 -57 q 841 -188 867 -134 q 764 -269 814 -241 q 646 -296 715 -296 q 607 -294 625 -296 q 568 -285 589 -292 l 578 -180 q 611 -187 589 -184 q 644 -189 634 -189 q 694 -173 673 -189 q 726 -128 715 -157 q 736 -57 736 -98 l 736 435 l 252 435 l 252 0 l 121 0 l 121 987 z "},"ӈ":{"ha":787,"x_min":99,"x_max":688,"o":"m 99 734 l 224 734 l 224 416 l 562 416 l 562 734 l 688 734 l 688 -60 q 662 -189 688 -136 q 586 -269 635 -242 q 469 -296 537 -296 q 430 -294 448 -296 q 393 -285 412 -292 l 403 -184 q 436 -191 413 -189 q 469 -193 460 -193 q 519 -177 498 -193 q 551 -132 540 -161 q 562 -60 562 -102 l 562 314 l 224 314 l 224 0 l 99 0 l 99 734 z "},"Ӊ":{"ha":1054,"x_min":115,"x_max":996,"o":"m 760 563 l 760 456 l 225 456 l 225 563 l 760 563 m 245 987 l 245 0 l 115 0 l 115 987 l 245 987 m 873 987 l 873 0 l 743 0 l 743 987 l 873 987 m 996 103 l 996 2 q 965 -129 996 -60 q 878 -243 934 -197 l 806 -194 q 843 -133 828 -164 q 866 -70 858 -102 q 873 0 873 -37 l 873 103 l 996 103 z "},"ӊ":{"ha":854,"x_min":106,"x_max":818,"o":"m 593 416 l 593 314 l 205 314 l 205 416 l 593 416 m 232 734 l 232 0 l 106 0 l 106 734 l 232 734 m 695 734 l 695 0 l 569 0 l 569 734 l 695 734 m 818 103 l 818 2 q 787 -129 818 -60 q 699 -243 755 -197 l 628 -194 q 665 -133 650 -164 q 687 -70 680 -102 q 695 0 695 -37 l 695 103 l 818 103 z "},"Ӎ":{"ha":1269,"x_min":115,"x_max":1211,"o":"m 156 987 l 283 987 l 606 182 l 929 987 l 1057 987 l 655 0 l 556 0 l 156 987 m 115 987 l 227 987 l 245 385 l 245 0 l 115 0 l 115 987 m 985 987 l 1097 987 l 1097 0 l 967 0 l 967 385 l 985 987 m 1211 103 l 1211 2 q 1180 -129 1211 -60 q 1093 -243 1149 -197 l 1021 -194 q 1058 -133 1043 -164 q 1081 -70 1073 -102 q 1088 0 1088 -37 l 1088 103 l 1211 103 z "},"ӎ":{"ha":1084,"x_min":107,"x_max":1047,"o":"m 517 167 l 767 734 l 888 734 l 561 0 l 474 0 l 149 734 l 269 734 l 517 167 m 233 734 l 233 0 l 107 0 l 107 734 l 233 734 m 798 0 l 798 734 l 924 734 l 924 0 l 798 0 m 1047 103 l 1047 2 q 1016 -129 1047 -60 q 928 -243 985 -197 l 857 -194 q 894 -133 879 -164 q 917 -70 909 -102 q 924 0 924 -37 l 924 103 l 1047 103 z "},"Ә":{"ha":960,"x_min":64,"x_max":880,"o":"m 435 1001 q 626 966 543 1001 q 765 868 709 931 q 851 717 822 804 q 880 525 880 630 l 880 461 q 849 269 880 356 q 761 118 817 181 q 631 20 705 55 q 473 -14 557 -14 q 296 18 372 -14 q 168 108 219 49 q 90 250 116 167 q 64 436 64 333 l 64 520 l 800 520 l 800 419 l 195 419 l 195 396 q 209 278 195 333 q 256 182 224 223 q 342 118 289 141 q 473 94 395 94 q 591 123 539 94 q 678 202 642 151 q 732 319 713 252 q 750 461 750 385 l 750 525 q 732 668 750 602 q 676 785 714 734 q 578 864 638 836 q 435 892 519 892 q 287 873 347 892 q 187 836 227 854 l 155 932 q 208 960 172 943 q 300 988 243 976 q 435 1001 357 1001 z "},"Ӡ":{"ha":808,"x_min":71,"x_max":724,"o":"m 100 987 l 694 987 l 694 903 l 355 499 l 278 499 l 278 578 l 541 880 l 100 880 l 100 987 m 278 577 l 380 578 q 566 543 489 578 q 684 440 643 507 q 724 275 724 372 q 700 152 724 206 q 630 61 675 98 q 524 5 585 24 q 391 -14 463 -14 q 275 2 332 -14 q 172 54 218 19 q 98 143 125 89 q 71 274 71 198 l 201 274 q 225 183 201 224 q 291 117 249 142 q 391 92 334 92 q 500 116 455 92 q 570 180 546 139 q 594 273 594 221 q 569 389 594 344 q 495 455 544 434 q 374 476 446 476 l 278 476 l 278 577 z "},"ӡ":{"ha":808,"x_min":72,"x_max":722,"o":"m 100 734 l 690 734 l 691 654 l 361 245 l 277 245 l 277 323 l 529 630 l 100 630 l 100 734 m 277 320 l 376 320 q 563 286 485 320 q 681 184 640 251 q 722 21 722 117 q 697 -102 722 -48 q 628 -192 673 -155 q 523 -249 584 -229 q 390 -268 463 -268 q 275 -251 332 -268 q 173 -200 218 -235 q 99 -110 127 -165 q 72 20 72 -56 l 197 20 q 221 -73 197 -31 q 289 -140 245 -115 q 390 -165 332 -165 q 502 -141 456 -165 q 572 -76 547 -117 q 596 18 596 -35 q 570 135 596 90 q 495 200 545 180 q 373 221 445 221 l 277 221 l 277 320 z "},"Ӻ":{"ha":819,"x_min":39,"x_max":773,"o":"m 773 987 l 773 880 l 297 880 l 297 0 l 167 0 l 167 987 l 773 987 m 471 588 l 471 485 l 39 485 l 39 588 l 471 588 m 281 104 l 408 104 l 408 -60 q 381 -189 408 -136 q 307 -269 355 -242 q 189 -296 258 -296 q 151 -294 168 -296 q 113 -285 133 -292 l 123 -178 q 156 -184 133 -182 q 189 -186 180 -186 q 239 -172 218 -186 q 271 -130 260 -158 q 281 -60 281 -102 l 281 104 z "},"ӻ":{"ha":637,"x_min":39,"x_max":623,"o":"m 623 734 l 623 630 l 284 630 l 284 0 l 159 0 l 159 734 l 623 734 m 471 467 l 471 363 l 39 363 l 39 467 l 471 467 m 271 104 l 397 104 l 397 -60 q 371 -189 397 -136 q 296 -269 345 -242 q 178 -296 247 -296 q 140 -294 157 -296 q 102 -285 122 -292 l 112 -178 q 145 -184 122 -182 q 178 -186 169 -186 q 228 -172 208 -186 q 260 -130 249 -158 q 271 -60 271 -102 l 271 104 z "},"Ӽ":{"ha":899,"x_min":39,"x_max":878,"o":"m 199 987 l 437 609 l 674 987 l 827 987 l 515 498 l 834 0 l 680 0 l 437 386 l 193 0 l 39 0 l 359 498 l 47 987 l 199 987 m 752 104 l 878 104 l 878 -60 q 852 -189 878 -136 q 777 -269 826 -242 q 660 -296 728 -296 q 621 -294 639 -296 q 584 -285 604 -292 l 593 -178 q 627 -184 604 -182 q 660 -186 650 -186 q 710 -172 689 -186 q 741 -130 730 -158 q 752 -60 752 -102 l 752 104 z "},"ӽ":{"ha":738,"x_min":28,"x_max":714,"o":"m 180 734 l 341 467 l 504 734 l 651 734 l 411 372 l 659 0 l 513 0 l 344 275 l 174 0 l 28 0 l 275 372 l 36 734 l 180 734 m 588 104 l 714 104 l 714 -60 q 688 -189 714 -136 q 613 -269 662 -242 q 496 -296 564 -296 q 457 -294 475 -296 q 420 -285 439 -292 l 429 -178 q 463 -184 439 -182 q 496 -186 486 -186 q 546 -172 525 -186 q 577 -130 566 -158 q 588 -60 588 -102 l 588 104 z "},"Ԁ":{"ha":862,"x_min":59,"x_max":763,"o":"m 394 599 l 663 599 l 663 492 l 394 492 q 276 465 321 492 q 211 396 231 439 q 190 303 190 353 q 211 209 190 254 q 276 135 231 163 q 394 106 321 106 l 632 106 l 632 987 l 763 987 l 763 0 l 394 0 q 211 39 286 0 q 98 147 136 79 q 59 302 59 215 q 81 422 59 368 q 145 516 102 476 q 250 577 188 555 q 394 599 313 599 z "},"Ԃ":{"ha":1143,"x_min":61,"x_max":1112,"o":"m 396 599 l 665 599 l 665 492 l 396 492 q 279 465 323 492 q 213 396 234 439 q 193 303 193 353 q 213 209 193 254 q 279 135 234 163 q 396 106 323 106 l 635 106 l 635 987 l 765 987 l 765 0 l 396 0 q 213 39 288 0 q 100 147 138 79 q 61 302 61 215 q 83 422 61 368 q 147 516 104 476 q 252 577 190 555 q 396 599 315 599 m 825 0 l 730 0 l 730 106 l 825 106 q 909 130 876 107 q 960 194 943 153 q 979 290 978 235 q 977 344 980 316 q 969 401 975 372 q 957 459 964 431 q 939 513 949 487 l 1065 513 q 1087 440 1077 478 q 1105 365 1098 403 q 1110 290 1112 326 q 1069 129 1109 193 q 965 32 1029 64 q 825 0 901 0 z "},"ԃ":{"ha":1197,"x_min":68,"x_max":1117,"o":"m 68 340 l 68 354 q 87 513 68 441 q 142 637 106 585 q 232 719 178 690 q 355 747 286 747 q 450 732 408 747 q 525 686 492 716 q 581 614 557 656 q 618 517 604 571 q 638 397 632 463 l 638 335 q 610 190 631 254 q 555 80 590 125 q 471 10 521 34 q 353 -14 420 -14 q 232 12 286 -14 q 142 85 179 38 q 87 198 106 133 q 68 340 68 262 m 194 354 l 194 340 q 205 242 194 288 q 238 164 216 197 q 297 111 261 130 q 385 92 334 92 q 487 119 447 92 q 552 189 528 146 q 590 283 576 233 l 590 447 q 567 519 582 484 q 527 582 551 554 q 468 625 503 609 q 386 642 433 642 q 298 619 334 642 q 239 557 262 597 q 205 465 216 517 q 194 354 194 413 m 550 234 l 550 1058 l 676 1058 l 676 234 q 690 158 675 191 q 730 107 704 125 q 792 89 756 89 q 876 109 840 90 q 937 163 912 127 q 976 248 962 198 q 989 359 989 297 q 980 495 991 427 q 948 632 968 564 l 1070 632 q 1103 497 1088 566 q 1116 359 1117 429 q 1088 194 1114 264 q 1017 78 1062 124 q 914 9 972 32 q 792 -14 857 -14 q 667 9 720 -16 q 584 90 614 35 q 550 234 554 145 z "},"Ԅ":{"ha":1101,"x_min":37,"x_max":1012,"o":"m 305 429 l 173 429 l 173 536 l 271 536 q 395 556 348 536 q 464 614 442 575 q 486 710 486 652 q 474 780 486 749 q 438 834 463 811 q 374 868 413 857 q 280 880 335 880 l 37 880 l 37 987 l 280 987 q 424 969 361 987 q 529 916 487 951 q 594 829 572 881 q 616 709 616 777 q 606 637 616 671 q 576 576 595 604 q 527 526 556 548 q 460 487 498 504 q 376 460 422 471 q 371 455 374 460 q 367 447 369 451 q 362 442 364 443 q 327 434 335 435 q 305 429 319 433 m 477 207 l 477 208 l 477 252 q 456 345 477 305 q 397 407 435 385 q 305 429 359 429 l 317 503 q 457 485 401 503 q 546 433 513 467 q 593 354 579 399 q 608 254 608 308 l 608 207 q 620 148 608 174 q 654 107 631 122 q 708 92 677 92 q 781 112 749 93 q 834 166 812 131 q 868 250 856 201 q 880 359 880 299 q 870 495 882 427 q 838 632 859 564 l 965 632 q 997 497 983 566 q 1010 359 1012 429 q 984 195 1009 265 q 918 79 960 125 q 821 9 876 33 q 707 -14 767 -14 q 588 7 638 -16 q 509 78 537 29 q 477 207 481 127 z "},"ԅ":{"ha":898,"x_min":33,"x_max":852,"o":"m 252 300 l 92 300 l 91 401 l 218 401 q 311 415 275 401 q 362 454 346 429 q 379 512 379 479 q 362 574 379 547 q 309 617 345 601 q 215 633 273 633 l 37 633 l 33 734 l 215 734 q 373 708 308 734 q 471 633 437 682 q 505 516 505 585 q 493 454 505 482 q 456 405 480 427 q 395 367 431 383 q 312 339 359 351 q 309 332 311 338 q 306 318 307 325 q 302 310 304 311 q 273 304 279 305 q 252 300 268 303 m 504 144 l 504 145 q 517 102 503 119 q 568 85 530 85 q 634 99 606 85 q 683 139 663 113 q 714 201 703 165 q 726 284 725 238 q 716 392 727 336 q 683 500 705 448 l 805 500 q 838 393 823 448 q 851 284 852 338 q 826 151 850 208 q 763 57 803 94 q 673 0 724 19 q 568 -18 623 -18 q 488 -10 522 -19 q 429 18 453 -1 q 393 70 406 38 q 378 145 380 101 l 378 197 q 362 252 378 229 q 314 288 346 275 q 235 300 282 300 l 259 372 q 407 350 353 372 q 482 288 460 327 q 504 197 504 248 l 504 144 z "},"Ԇ":{"ha":745,"x_min":56,"x_max":688,"o":"m 269 429 l 119 429 l 119 532 l 229 532 q 358 553 310 532 q 428 612 406 573 q 450 708 450 652 q 429 802 450 762 q 362 863 408 841 q 243 884 317 884 l 56 884 l 56 987 l 243 987 q 425 956 351 987 q 537 861 498 924 q 575 707 575 799 q 565 636 575 669 q 536 575 555 603 q 488 525 517 547 q 421 486 459 503 q 338 458 384 469 q 333 454 336 458 q 328 447 330 450 q 323 442 326 443 q 297 436 306 438 q 283 433 289 434 q 269 429 277 432 m 268 429 l 279 503 q 456 471 392 503 q 546 382 519 439 q 572 252 572 325 l 572 159 q 577 105 572 132 q 591 56 581 79 q 618 17 602 34 l 618 0 l 490 0 q 460 50 469 19 q 449 112 451 81 q 447 161 447 143 l 447 250 q 425 344 447 304 q 363 407 404 385 q 268 429 323 429 m 688 144 l 688 43 q 656 -87 688 -18 q 569 -202 625 -156 l 498 -153 q 534 -92 519 -123 q 557 -28 549 -61 q 565 41 565 5 l 565 144 l 688 144 z "},"ԇ":{"ha":700,"x_min":82,"x_max":668,"o":"m 312 299 l 132 299 l 132 401 l 275 401 q 370 414 334 401 q 422 453 406 428 q 438 512 438 478 q 422 574 438 547 q 370 617 406 602 q 275 632 334 632 l 82 632 l 83 734 l 275 734 q 398 719 345 734 q 489 676 452 705 q 545 608 526 648 q 564 516 564 568 q 552 454 564 481 q 515 404 539 426 q 454 366 490 382 q 370 338 418 349 q 365 325 368 338 q 359 310 361 311 q 337 305 344 307 q 327 302 331 303 q 312 299 322 300 m 295 299 l 320 372 q 467 347 414 372 q 542 280 520 323 q 564 182 564 237 l 564 117 q 568 80 564 100 q 580 42 571 60 q 604 13 589 24 l 604 0 l 475 0 q 449 36 456 12 q 440 83 441 60 q 438 117 438 106 l 438 182 q 422 244 438 218 q 374 285 406 271 q 295 299 342 299 m 668 134 l 668 33 q 637 -98 668 -29 q 550 -213 606 -167 l 478 -163 q 515 -103 500 -134 q 537 -39 530 -72 q 545 31 545 -6 l 545 134 l 668 134 z "},"Ԉ":{"ha":1347,"x_min":47,"x_max":1292,"o":"m 267 987 l 397 987 l 375 504 q 359 318 370 399 q 328 176 348 236 q 275 77 307 116 q 195 19 242 38 q 82 0 148 0 l 47 0 l 47 106 l 74 109 q 139 126 112 111 q 186 170 167 140 q 218 248 205 200 q 237 364 230 295 q 248 525 244 433 l 267 987 m 747 987 l 747 880 l 314 880 l 314 987 l 747 987 m 722 235 l 722 987 l 852 987 l 852 235 q 860 177 852 203 q 883 132 868 151 q 919 102 898 113 q 966 92 940 92 q 1048 111 1013 92 q 1108 165 1084 130 q 1146 249 1133 200 q 1160 359 1159 298 q 1150 495 1161 427 q 1118 632 1139 564 l 1245 632 q 1278 497 1263 566 q 1291 359 1292 429 q 1263 194 1289 264 q 1192 78 1236 124 q 1089 9 1147 32 q 966 -14 1031 -14 q 838 11 892 -14 q 752 91 783 36 q 722 235 722 146 z "},"ԉ":{"ha":1122,"x_min":43,"x_max":1081,"o":"m 214 734 l 340 734 l 321 380 q 306 235 316 298 q 277 127 296 172 q 232 55 259 83 q 168 13 205 26 q 82 0 131 0 l 43 0 l 43 111 l 71 113 q 120 126 99 115 q 155 160 140 138 q 178 219 169 183 q 193 304 187 255 q 201 420 198 354 l 214 734 m 576 734 l 576 630 l 242 630 l 242 734 l 576 734 m 554 234 l 554 734 l 680 734 l 680 234 q 688 175 680 201 q 711 129 696 148 q 747 99 726 109 q 795 89 768 89 q 862 106 833 89 q 911 154 891 123 q 942 229 931 185 q 954 328 953 273 q 944 458 955 393 q 913 587 932 523 l 1034 587 q 1066 459 1052 524 q 1080 328 1081 394 q 1055 178 1078 242 q 992 71 1031 113 q 902 7 953 28 q 795 -14 851 -14 q 696 0 741 -14 q 621 43 652 14 q 571 120 589 73 q 554 234 554 168 z "},"Ԋ":{"ha":1385,"x_min":115,"x_max":1292,"o":"m 226 542 l 741 542 l 741 435 l 226 435 l 226 542 m 115 987 l 245 987 l 245 0 l 115 0 l 115 987 m 722 987 l 852 987 l 852 235 q 866 161 852 193 q 905 110 880 128 q 966 92 931 92 q 1048 112 1013 93 q 1108 165 1084 130 q 1146 249 1133 200 q 1160 359 1160 298 q 1150 495 1162 427 q 1118 632 1139 564 l 1244 632 q 1277 497 1263 566 q 1291 359 1292 429 q 1263 194 1289 264 q 1192 78 1236 124 q 1089 9 1147 32 q 966 -14 1031 -14 q 840 9 893 -16 q 756 90 786 35 q 722 235 726 146 l 722 987 z "},"ԋ":{"ha":1152,"x_min":98,"x_max":1094,"o":"m 584 415 l 584 313 l 197 313 l 197 415 l 584 415 m 224 734 l 224 0 l 98 0 l 98 734 l 224 734 m 566 234 l 566 734 l 692 734 l 692 234 q 700 175 692 201 q 723 129 708 148 q 759 99 738 110 q 807 89 781 89 q 874 106 845 90 q 924 154 904 123 q 955 229 944 185 q 966 328 966 273 q 956 458 968 393 q 925 587 945 523 l 1046 587 q 1079 459 1064 524 q 1093 328 1094 394 q 1068 178 1091 242 q 1005 71 1045 113 q 915 7 966 28 q 807 -14 864 -14 q 710 -1 753 -15 q 635 42 667 12 q 587 120 604 72 q 566 234 570 168 z "},"Ԍ":{"ha":862,"x_min":80,"x_max":804,"o":"m 473 -14 q 313 17 385 -14 q 189 105 241 49 q 108 238 136 162 q 80 405 80 315 l 80 583 q 108 749 80 673 q 189 882 136 825 q 313 970 241 939 q 473 1002 385 1002 q 610 987 551 1002 q 713 943 669 972 l 673 848 q 581 883 630 871 q 473 895 532 895 q 362 870 411 895 q 280 803 314 846 q 229 704 246 760 q 211 584 211 648 l 211 405 q 229 284 211 340 q 280 184 246 227 q 362 117 314 141 q 473 92 411 92 q 581 117 536 93 q 648 185 625 141 q 672 289 671 229 q 664 411 673 349 q 638 533 654 473 l 765 533 q 791 412 778 473 q 803 289 804 351 q 755 119 802 186 q 635 19 709 52 q 473 -14 560 -14 z "},"ԍ":{"ha":715,"x_min":69,"x_max":656,"o":"m 402 89 q 478 104 450 90 q 517 143 505 118 q 530 204 529 169 q 527 284 530 242 q 516 364 524 326 l 637 364 q 650 284 644 325 q 655 204 656 244 q 621 82 654 130 q 531 9 587 33 q 402 -14 474 -14 q 260 15 322 -14 q 155 96 198 45 q 91 213 113 147 q 69 353 69 279 l 69 381 q 90 520 69 454 q 152 637 111 587 q 252 718 193 688 q 388 747 311 747 q 501 736 453 747 q 578 703 549 724 l 549 606 q 476 634 517 624 q 388 644 435 644 q 300 621 336 644 q 240 560 263 598 q 205 475 216 522 q 195 381 195 428 l 195 353 q 207 258 195 305 q 243 173 218 212 q 308 112 268 135 q 402 89 347 89 z "},"Ԏ":{"ha":986,"x_min":24,"x_max":917,"o":"m 806 987 l 806 880 l 24 880 l 24 987 l 806 987 m 347 235 l 347 987 l 477 987 l 477 235 q 485 177 477 203 q 507 132 492 151 q 543 103 522 113 q 591 92 564 92 q 673 112 637 93 q 733 165 709 130 q 770 249 758 200 q 785 359 783 298 q 774 495 786 427 q 743 632 763 564 l 869 632 q 902 497 888 566 q 915 359 917 429 q 887 194 913 264 q 817 78 861 124 q 714 9 772 32 q 591 -14 656 -14 q 464 9 517 -16 q 381 90 411 35 q 347 235 351 146 z "},"ԏ":{"ha":890,"x_min":47,"x_max":819,"o":"m 663 734 l 663 632 l 47 632 l 47 734 l 663 734 m 291 234 l 291 734 l 416 734 l 416 234 q 430 158 416 191 q 471 107 444 125 q 533 89 497 89 q 600 103 571 90 q 650 143 629 117 q 681 207 670 170 q 692 290 692 243 q 682 400 694 343 q 651 510 671 456 l 772 510 q 804 401 789 456 q 818 290 819 345 q 793 156 817 213 q 730 61 770 98 q 640 4 691 23 q 533 -14 589 -14 q 435 -1 479 -15 q 361 42 392 12 q 312 120 330 72 q 291 234 294 168 z "},"Ԑ":{"ha":937,"x_min":102,"x_max":867,"o":"m 479 532 l 609 532 l 609 450 l 484 450 q 376 439 422 450 q 297 407 329 429 q 250 352 266 385 q 233 273 233 318 q 251 201 233 234 q 301 144 268 168 q 383 106 334 119 q 493 92 431 92 q 621 117 566 92 q 707 183 676 142 q 737 274 737 224 l 867 274 q 836 143 867 198 q 750 54 804 89 q 629 2 696 19 q 493 -14 562 -14 q 336 5 408 -14 q 213 61 265 24 q 131 152 160 98 q 102 275 102 206 q 127 385 102 337 q 201 465 153 433 q 319 515 249 498 q 479 532 389 532 m 609 474 l 479 474 q 331 493 397 474 q 217 547 264 513 q 143 625 169 581 q 117 721 117 670 q 144 842 117 790 q 220 930 170 895 q 338 984 269 966 q 493 1002 408 1002 q 673 968 591 1002 q 805 874 755 935 q 854 728 854 812 l 724 728 q 693 814 724 777 q 610 873 662 852 q 493 895 557 895 q 354 871 408 895 q 274 809 300 848 q 248 723 248 770 q 261 656 248 686 q 303 604 275 626 q 376 569 332 581 q 484 557 421 557 l 609 557 l 609 474 z "},"Ԓ":{"ha":1043,"x_min":33,"x_max":985,"o":"m 749 987 l 749 880 l 298 880 l 298 987 l 749 987 m 862 987 l 862 0 l 731 0 l 731 987 l 862 987 m 253 987 l 383 987 l 361 504 q 345 318 356 399 q 313 176 334 236 q 260 77 293 116 q 181 19 228 38 q 68 0 134 0 l 33 0 l 33 106 l 60 109 q 125 126 98 111 q 172 170 153 140 q 203 248 191 200 q 223 364 216 295 q 234 525 230 433 l 253 987 m 859 104 l 985 104 l 985 -60 q 959 -189 985 -136 q 884 -269 933 -242 q 767 -296 836 -296 q 728 -294 746 -296 q 691 -285 711 -292 l 701 -178 q 734 -184 711 -182 q 767 -186 758 -186 q 817 -172 796 -186 q 848 -130 838 -158 q 859 -60 859 -102 l 859 104 z "},"ԓ":{"ha":859,"x_min":30,"x_max":822,"o":"m 586 734 l 586 630 l 231 630 l 231 734 l 586 734 m 696 734 l 696 0 l 571 0 l 571 734 l 696 734 m 201 734 l 327 734 l 308 380 q 293 235 303 298 q 264 127 282 172 q 219 55 246 83 q 155 13 193 26 q 69 0 118 0 l 30 0 l 30 111 l 57 113 q 107 126 86 115 q 142 160 127 138 q 165 219 156 183 q 179 304 174 255 q 187 420 184 354 l 201 734 m 696 104 l 822 104 l 822 -60 q 796 -189 822 -136 q 721 -269 770 -242 q 604 -296 672 -296 q 565 -294 583 -296 q 528 -285 547 -292 l 537 -178 q 571 -184 547 -182 q 604 -186 594 -186 q 653 -172 633 -186 q 685 -130 674 -158 q 696 -60 696 -102 l 696 104 z "},"ẞ":{"ha":897,"x_min":97,"x_max":835,"o":"m 222 652 l 222 0 l 97 0 l 97 652 l 222 652 m 222 650 l 97 650 q 116 803 97 737 q 172 913 134 869 q 267 979 210 957 q 402 1001 325 1001 q 595 956 513 1001 q 743 849 677 911 l 454 496 l 385 496 l 385 577 l 594 830 q 516 877 562 856 q 402 898 471 898 q 311 878 347 898 q 257 824 276 859 q 230 745 237 790 q 222 650 222 701 m 311 20 l 347 123 q 414 100 375 111 q 501 89 452 89 q 613 113 567 89 q 685 178 660 136 q 709 274 709 220 q 684 388 709 344 q 609 454 659 433 q 486 475 559 475 l 385 475 l 385 574 l 488 574 q 676 540 598 574 q 794 439 753 505 q 835 277 835 372 q 792 119 835 184 q 674 20 749 54 q 501 -14 599 -14 q 407 -6 454 -14 q 311 20 359 2 z "}," ":{"ha":708,"x_min":0,"x_max":0,"o":""}," ":{"ha":1417,"x_min":0,"x_max":0,"o":""}," ":{"ha":708,"x_min":0,"x_max":0,"o":""}," ":{"ha":1417,"x_min":0,"x_max":0,"o":""}," ":{"ha":473,"x_min":0,"x_max":0,"o":""}," ":{"ha":354,"x_min":0,"x_max":0,"o":""}," ":{"ha":236,"x_min":0,"x_max":0,"o":""}," ":{"ha":781,"x_min":0,"x_max":0,"o":""}," ":{"ha":380,"x_min":0,"x_max":0,"o":""}," ":{"ha":283,"x_min":0,"x_max":0,"o":""}," ":{"ha":142,"x_min":0,"x_max":0,"o":""},"​":{"ha":0,"x_min":0,"x_max":0,"o":""},"‐":{"ha":382,"x_min":26,"x_max":357,"o":"m 357 471 l 357 368 l 26 368 l 26 471 l 357 471 z "},"‑":{"ha":382,"x_min":26,"x_max":357,"o":"m 357 471 l 357 368 l 26 368 l 26 471 l 357 471 z "},"–":{"ha":911,"x_min":110,"x_max":789,"o":"m 789 545 l 789 441 l 110 441 l 110 545 l 789 545 z "},"—":{"ha":1084,"x_min":98,"x_max":1004,"o":"m 1004 545 l 1004 441 l 98 441 l 98 545 l 1004 545 z "},"‗":{"ha":633,"x_min":9,"x_max":630,"o":"m 630 -172 l 630 -275 l 9 -275 l 9 -172 l 630 -172 m 630 0 l 630 -103 l 9 -103 l 9 0 l 630 0 z "},"‘":{"ha":278,"x_min":66,"x_max":255,"o":"m 66 728 l 66 810 q 80 896 66 851 q 120 983 94 941 q 184 1055 146 1025 l 255 1006 q 207 914 224 961 q 190 812 190 867 l 190 728 l 66 728 z "},"’":{"ha":278,"x_min":33,"x_max":222,"o":"m 222 1042 l 222 955 q 209 869 222 914 q 168 782 195 824 q 104 709 142 741 l 33 759 q 81 851 64 804 q 98 953 98 898 l 98 1042 l 222 1042 z "},"‚":{"ha":277,"x_min":24,"x_max":214,"o":"m 214 123 l 214 54 q 200 -32 214 13 q 160 -119 186 -77 q 96 -192 134 -161 l 24 -143 q 73 -51 56 -98 q 89 52 89 -3 l 89 123 l 214 123 z "},"‛":{"ha":278,"x_min":54,"x_max":243,"o":"m 54 1042 l 178 1042 l 178 953 q 195 851 178 898 q 243 759 212 804 l 172 709 q 108 782 135 741 q 67 869 81 824 q 54 955 54 914 l 54 1042 z "},"“":{"ha":491,"x_min":71,"x_max":474,"o":"m 71 728 l 71 810 q 85 896 71 851 q 125 983 99 941 q 189 1055 152 1025 l 260 1006 q 212 914 229 961 q 195 812 195 867 l 195 728 l 71 728 m 285 728 l 285 810 q 299 896 285 851 q 339 983 313 941 q 403 1055 366 1025 l 474 1006 q 426 914 443 961 q 409 812 409 867 l 409 728 l 285 728 z "},"”":{"ha":496,"x_min":41,"x_max":439,"o":"m 231 1042 l 231 955 q 217 869 231 914 q 176 782 203 824 q 113 709 150 741 l 41 759 q 89 851 73 804 q 106 953 106 898 l 106 1042 l 231 1042 m 439 1042 l 439 955 q 425 869 439 914 q 385 782 411 824 q 321 709 358 741 l 249 759 q 297 851 281 804 q 314 953 314 898 l 314 1042 l 439 1042 z "},"„":{"ha":479,"x_min":24,"x_max":415,"o":"m 214 167 l 214 54 q 200 -37 214 10 q 160 -129 186 -85 q 96 -205 134 -172 l 24 -155 q 73 -57 56 -107 q 89 52 89 -7 l 89 167 l 214 167 m 415 167 l 415 54 q 401 -37 415 10 q 361 -129 387 -85 q 297 -205 334 -172 l 225 -155 q 273 -57 257 -107 q 290 52 290 -7 l 290 167 l 415 167 z "},"†":{"ha":766,"x_min":47,"x_max":719,"o":"m 445 987 l 445 0 l 319 0 l 319 987 l 445 987 m 719 734 l 719 630 l 47 630 l 47 734 l 719 734 z "},"‡":{"ha":792,"x_min":59,"x_max":730,"o":"m 454 987 l 454 -282 l 329 -282 l 329 987 l 454 987 m 730 734 l 730 630 l 59 630 l 59 734 l 730 734 m 730 103 l 730 0 l 59 0 l 59 103 l 730 103 z "},"•":{"ha":469,"x_min":94,"x_max":371,"o":"m 94 496 l 94 524 q 131 621 94 583 q 232 659 168 659 q 334 621 296 659 q 371 524 371 583 l 371 496 q 334 401 371 439 q 233 363 297 363 q 132 401 169 363 q 94 496 94 439 z "},"‥":{"ha":654,"x_min":100,"x_max":553,"o":"m 100 66 q 120 120 100 98 q 178 142 140 142 q 236 120 216 142 q 256 66 256 98 q 236 14 256 35 q 178 -8 216 -8 q 120 14 140 -8 q 100 66 100 35 m 397 66 q 417 120 397 98 q 475 142 437 142 q 533 120 513 142 q 553 66 553 98 q 533 14 553 35 q 475 -8 513 -8 q 417 14 437 -8 q 397 66 397 35 z "},"…":{"ha":929,"x_min":100,"x_max":834,"o":"m 100 66 q 120 120 100 98 q 178 142 140 142 q 236 120 216 142 q 256 66 256 98 q 236 14 256 35 q 178 -8 216 -8 q 120 14 140 -8 q 100 66 100 35 m 397 66 q 417 120 397 98 q 475 142 437 142 q 533 120 513 142 q 553 66 553 98 q 533 14 553 35 q 475 -8 513 -8 q 417 14 437 -8 q 397 66 397 35 m 678 66 q 698 120 678 98 q 756 142 718 142 q 814 120 794 142 q 834 66 834 98 q 814 14 834 35 q 756 -8 794 -8 q 698 14 718 -8 q 678 66 678 35 z "},"‧":{"ha":260,"x_min":56,"x_max":204,"o":"m 56 420 q 75 471 56 450 q 130 492 94 492 q 185 471 166 492 q 204 420 204 450 q 185 369 204 390 q 130 349 166 349 q 75 369 94 349 q 56 420 56 390 z "},"‰":{"ha":1331,"x_min":46,"x_max":1274,"o":"m 46 745 l 46 798 q 71 900 46 854 q 140 974 95 946 q 248 1002 186 1002 q 357 974 312 1002 q 427 900 403 946 q 451 798 451 854 l 451 745 q 427 644 451 690 q 358 570 403 598 q 250 543 313 543 q 141 570 186 543 q 71 644 96 598 q 46 745 46 690 m 140 798 l 140 745 q 152 686 140 714 q 189 641 164 659 q 250 624 213 624 q 310 641 286 624 q 346 686 334 659 q 357 745 357 714 l 357 798 q 346 858 357 829 q 310 903 334 886 q 248 920 286 920 q 188 903 212 920 q 152 858 164 886 q 140 798 140 829 m 558 189 l 558 242 q 583 344 558 298 q 652 418 607 390 q 760 446 698 446 q 862 418 820 446 q 927 344 905 390 q 950 242 950 298 l 950 189 q 927 87 950 134 q 863 14 905 41 q 762 -14 821 -14 q 653 14 699 -14 q 583 87 608 41 q 558 189 558 134 m 652 242 l 652 189 q 664 130 652 158 q 701 84 676 102 q 762 67 725 67 q 822 84 798 67 q 858 130 846 102 q 869 189 869 157 l 869 242 q 858 302 869 274 q 822 347 846 330 q 760 364 798 364 q 700 347 724 364 q 664 302 676 330 q 652 242 652 274 m 882 189 l 882 242 q 905 344 882 298 q 970 418 928 390 q 1072 446 1013 446 q 1180 418 1135 446 q 1250 344 1225 390 q 1274 242 1274 298 l 1274 189 q 1250 87 1274 134 q 1181 14 1226 41 q 1073 -14 1136 -14 q 971 14 1014 -14 q 905 87 928 41 q 882 189 882 134 m 963 242 l 963 189 q 975 130 963 158 q 1011 84 987 102 q 1072 67 1036 67 q 1133 84 1109 67 q 1168 130 1156 102 q 1180 189 1180 157 l 1180 242 q 1168 302 1180 274 q 1132 347 1156 330 q 1071 364 1108 364 q 1011 347 1035 364 q 975 302 987 330 q 963 242 963 274 m 774 847 l 292 75 l 220 120 l 703 892 l 774 847 z "},"‹":{"ha":417,"x_min":73,"x_max":370,"o":"m 370 644 l 193 371 l 73 372 l 73 380 l 273 644 l 370 644 m 193 377 l 370 104 l 273 104 l 73 368 l 73 376 l 193 377 z "},"›":{"ha":417,"x_min":61,"x_max":357,"o":"m 61 104 l 238 376 l 357 376 l 357 367 l 157 104 l 61 104 m 61 644 l 157 644 l 357 380 l 357 371 l 238 370 l 61 644 z "},"⁄":{"ha":631,"x_min":41,"x_max":593,"o":"m 593 847 l 111 75 l 41 120 l 523 892 l 593 847 z "},"⁰":{"ha":509,"x_min":55,"x_max":454,"o":"m 454 767 l 454 673 q 430 545 454 595 q 360 470 405 494 q 256 445 315 445 q 150 470 195 445 q 80 545 105 494 q 55 673 55 595 l 55 767 q 80 895 55 844 q 150 970 104 945 q 254 995 195 995 q 359 970 315 995 q 429 895 404 945 q 454 767 454 844 m 347 664 l 347 777 q 336 851 347 822 q 305 893 326 880 q 254 907 284 907 q 204 893 224 907 q 172 851 183 880 q 161 777 161 822 l 161 664 q 172 589 161 618 q 204 546 183 560 q 256 532 226 532 q 306 546 286 532 q 337 589 326 560 q 347 664 347 618 z "},"⁴":{"ha":509,"x_min":37,"x_max":475,"o":"m 475 656 l 475 568 l 41 568 l 37 637 l 293 987 l 377 987 l 284 832 l 144 656 l 475 656 m 401 987 l 401 452 l 295 452 l 295 987 l 401 987 z "},"⁵":{"ha":509,"x_min":62,"x_max":461,"o":"m 161 694 l 77 715 l 110 987 l 435 987 l 435 899 l 198 899 l 182 783 q 221 795 195 788 q 277 803 246 803 q 376 782 335 803 q 439 722 417 761 q 461 627 461 682 q 439 537 461 579 q 374 470 418 496 q 262 445 330 445 q 167 463 212 445 q 94 515 122 481 q 62 599 65 550 l 168 599 q 197 548 171 564 q 262 532 222 532 q 333 559 311 532 q 354 629 354 587 q 328 697 354 671 q 252 724 301 724 q 195 714 214 724 q 161 694 176 705 z "},"⁶":{"ha":509,"x_min":58,"x_max":464,"o":"m 360 994 l 375 994 l 375 905 l 368 905 q 256 886 301 905 q 188 827 210 867 q 165 726 165 787 l 165 647 q 178 583 165 609 q 213 545 191 557 q 264 532 235 532 q 313 545 292 532 q 346 579 334 557 q 357 628 357 601 q 333 695 357 670 q 263 721 309 721 q 210 710 234 721 q 172 681 186 699 q 157 644 158 663 l 128 676 q 150 735 130 705 q 207 787 170 766 q 292 808 243 808 q 388 784 349 808 q 445 720 426 760 q 464 629 464 679 q 440 535 464 576 q 371 469 416 493 q 266 445 327 445 q 156 471 202 445 q 84 545 109 497 q 58 658 58 593 l 58 695 q 78 821 58 766 q 135 915 97 876 q 230 974 174 954 q 360 994 286 994 z "},"⁷":{"ha":509,"x_min":40,"x_max":460,"o":"m 460 987 l 460 926 l 222 452 l 110 452 l 347 900 l 40 900 l 40 987 l 460 987 z "},"⁸":{"ha":509,"x_min":54,"x_max":455,"o":"m 455 599 q 429 514 455 548 q 357 462 403 479 q 255 445 312 445 q 153 462 198 445 q 80 514 107 479 q 54 599 54 548 q 80 678 54 645 q 151 730 106 711 q 254 748 197 748 q 357 730 312 748 q 429 678 403 711 q 455 599 455 645 m 349 607 q 337 647 349 631 q 303 673 325 664 q 254 682 282 682 q 205 673 226 682 q 172 647 184 664 q 161 607 161 631 q 172 567 161 584 q 205 541 184 550 q 255 532 227 532 q 304 541 283 532 q 337 567 326 550 q 349 607 349 584 m 442 846 q 418 772 442 804 q 352 723 394 741 q 255 706 310 706 q 158 723 200 706 q 91 772 115 741 q 67 846 67 804 q 91 927 67 894 q 158 978 115 960 q 254 995 200 995 q 351 978 309 995 q 418 927 393 960 q 442 846 442 894 m 335 839 q 325 875 335 860 q 297 899 315 890 q 254 908 279 908 q 195 890 217 908 q 174 839 174 871 q 183 803 174 819 q 212 779 193 787 q 255 770 230 770 q 314 789 292 770 q 335 839 335 808 z "},"⁹":{"ha":509,"x_min":50,"x_max":448,"o":"m 142 534 l 151 534 q 261 551 219 534 q 323 606 303 569 q 342 698 342 642 l 342 797 q 330 859 342 834 q 296 895 317 883 q 248 907 275 907 q 199 893 220 907 q 167 856 178 879 q 156 804 156 832 q 166 755 156 777 q 198 721 177 734 q 250 708 219 708 q 302 720 280 708 q 337 749 325 731 q 351 784 350 766 l 382 753 q 361 693 381 722 q 306 644 340 663 q 226 625 271 625 q 130 648 169 625 q 70 711 90 671 q 50 804 50 751 q 74 900 50 857 q 143 969 98 943 q 248 995 187 995 q 356 969 311 995 q 425 894 401 943 q 448 777 448 845 l 448 742 q 431 616 448 671 q 376 524 413 562 q 284 467 340 486 q 152 448 229 448 l 142 448 l 142 534 z "},"⁺":{"ha":559,"x_min":54,"x_max":505,"o":"m 505 727 l 505 639 l 54 639 l 54 727 l 505 727 m 324 922 l 324 444 l 235 444 l 235 922 l 324 922 z "},"⁻":{"ha":515,"x_min":54,"x_max":461,"o":"m 461 730 l 461 642 l 54 642 l 54 730 l 461 730 z "},"⁼":{"ha":515,"x_min":54,"x_max":461,"o":"m 461 646 l 461 557 l 54 557 l 54 646 l 461 646 m 461 806 l 461 718 l 54 718 l 54 806 l 461 806 z "},"⁽":{"ha":337,"x_min":57,"x_max":283,"o":"m 57 676 l 57 688 q 89 884 57 801 q 166 1020 121 967 q 248 1094 211 1073 l 283 1015 q 229 948 256 990 q 184 842 202 905 q 167 688 167 778 l 167 675 q 177 551 167 604 q 204 459 187 498 q 242 393 221 420 q 283 345 262 366 l 248 271 q 187 319 220 286 q 124 404 154 353 q 76 523 95 455 q 57 676 57 591 z "},"⁾":{"ha":337,"x_min":54,"x_max":280,"o":"m 280 688 l 280 676 q 248 479 280 563 q 171 344 216 396 q 89 271 126 292 l 54 345 q 109 413 82 372 q 153 516 135 453 q 170 675 170 580 l 170 688 q 160 808 170 755 q 133 900 150 861 q 95 968 116 939 q 54 1015 75 996 l 89 1094 q 150 1044 117 1078 q 212 960 182 1010 q 261 841 242 909 q 280 688 280 772 z "},"ⁿ":{"ha":587,"x_min":83,"x_max":516,"o":"m 198 868 l 198 441 l 83 441 l 83 984 l 170 984 l 198 868 m 182 731 l 151 730 q 164 836 151 787 q 202 919 177 884 q 261 975 227 955 q 340 994 296 994 q 433 973 393 994 q 494 905 473 951 q 516 786 516 859 l 516 441 l 401 441 l 401 764 q 389 843 401 814 q 354 884 376 871 q 302 897 332 897 q 234 874 261 897 q 195 815 208 852 q 182 731 182 778 z "},"₀":{"ha":509,"x_min":55,"x_max":454,"o":"m 454 65 l 454 -29 q 430 -157 454 -106 q 360 -232 405 -208 q 256 -257 315 -257 q 150 -232 195 -257 q 80 -157 105 -208 q 55 -29 55 -106 l 55 65 q 80 193 55 142 q 150 268 104 243 q 254 293 195 293 q 359 268 315 293 q 429 193 404 243 q 454 65 454 142 m 347 -38 l 347 75 q 336 149 347 120 q 305 192 326 178 q 254 205 284 205 q 204 192 224 205 q 172 149 183 178 q 161 75 161 120 l 161 -38 q 172 -113 161 -83 q 204 -156 183 -142 q 256 -170 226 -170 q 306 -156 286 -170 q 337 -113 326 -142 q 347 -38 347 -83 z "},"₁":{"ha":509,"x_min":83,"x_max":336,"o":"m 336 286 l 336 -249 l 230 -249 l 230 159 l 83 120 l 83 208 l 323 286 l 336 286 z "},"₂":{"ha":509,"x_min":45,"x_max":463,"o":"m 463 -162 l 463 -249 l 58 -249 l 58 -176 l 253 8 q 301 59 283 37 q 327 99 319 81 q 334 132 334 117 q 313 186 334 165 q 251 207 291 207 q 176 181 200 207 q 152 117 152 155 l 45 117 q 69 205 45 165 q 139 270 94 245 q 248 294 184 294 q 353 274 309 294 q 419 219 396 254 q 442 134 442 183 q 426 66 442 98 q 381 4 410 35 q 312 -63 352 -27 l 193 -162 l 463 -162 z "},"₃":{"ha":509,"x_min":43,"x_max":452,"o":"m 180 62 l 237 62 q 292 72 271 62 q 325 98 314 81 q 336 136 336 115 q 315 186 336 166 q 246 207 293 207 q 182 190 208 207 q 157 144 157 173 l 50 144 q 76 223 50 190 q 146 275 102 257 q 244 294 190 294 q 348 276 303 294 q 418 225 393 259 q 443 142 443 191 q 421 76 443 106 q 357 27 399 45 q 256 9 315 9 l 180 9 l 180 62 m 180 -16 l 180 37 l 256 37 q 367 21 323 37 q 431 -26 410 5 q 452 -100 452 -56 q 425 -184 452 -149 q 351 -238 398 -220 q 245 -256 304 -256 q 148 -240 194 -256 q 72 -188 101 -223 q 43 -98 43 -153 l 149 -98 q 176 -149 149 -128 q 248 -170 203 -170 q 320 -149 296 -170 q 345 -94 345 -127 q 332 -48 345 -66 q 295 -23 319 -31 q 237 -16 271 -16 l 180 -16 z "},"₄":{"ha":509,"x_min":37,"x_max":475,"o":"m 475 -45 l 475 -134 l 41 -134 l 37 -64 l 293 286 l 377 286 l 284 131 l 144 -45 l 475 -45 m 401 286 l 401 -249 l 295 -249 l 295 286 l 401 286 z "},"₅":{"ha":509,"x_min":62,"x_max":461,"o":"m 161 -7 l 77 14 l 110 286 l 435 286 l 435 197 l 198 197 l 182 81 q 221 94 195 87 q 277 102 246 102 q 376 81 335 102 q 439 20 417 60 q 461 -74 461 -19 q 439 -164 461 -122 q 374 -231 418 -205 q 262 -256 330 -256 q 167 -238 212 -256 q 94 -186 122 -220 q 62 -102 65 -151 l 168 -102 q 197 -153 171 -137 q 262 -170 222 -170 q 333 -142 311 -170 q 354 -73 354 -114 q 328 -4 354 -31 q 252 22 301 22 q 195 13 214 22 q 161 -7 176 3 z "},"₆":{"ha":509,"x_min":58,"x_max":464,"o":"m 360 293 l 375 293 l 375 204 l 368 204 q 256 185 301 204 q 188 125 210 165 q 165 24 165 85 l 165 -54 q 178 -118 165 -92 q 213 -157 191 -144 q 264 -170 235 -170 q 313 -157 292 -170 q 346 -122 334 -144 q 357 -73 357 -100 q 333 -6 357 -31 q 263 20 309 20 q 210 8 234 20 q 172 -20 186 -3 q 157 -57 158 -38 l 128 -25 q 150 34 130 4 q 207 85 170 64 q 292 106 243 106 q 388 83 349 106 q 445 18 426 59 q 464 -73 464 -22 q 440 -166 464 -125 q 371 -232 416 -208 q 266 -256 327 -256 q 156 -230 202 -256 q 84 -156 109 -204 q 58 -43 58 -109 l 58 -6 q 78 120 58 64 q 135 214 97 175 q 230 273 174 252 q 360 293 286 293 z "},"₇":{"ha":509,"x_min":40,"x_max":460,"o":"m 460 286 l 460 225 l 222 -249 l 110 -249 l 347 199 l 40 199 l 40 286 l 460 286 z "},"₈":{"ha":509,"x_min":54,"x_max":455,"o":"m 455 -102 q 429 -188 455 -153 q 357 -239 403 -222 q 255 -256 312 -256 q 153 -239 198 -256 q 80 -188 107 -222 q 54 -102 54 -153 q 80 -23 54 -56 q 151 28 106 10 q 254 47 197 47 q 357 28 312 47 q 429 -23 403 10 q 455 -102 455 -56 m 349 -94 q 337 -54 349 -71 q 303 -28 325 -37 q 254 -19 282 -19 q 205 -28 226 -19 q 172 -54 184 -37 q 161 -94 161 -71 q 172 -134 161 -117 q 205 -160 184 -151 q 255 -170 227 -170 q 304 -160 283 -170 q 337 -134 326 -151 q 349 -94 349 -117 m 442 144 q 418 71 442 102 q 352 22 394 39 q 255 5 310 5 q 158 22 200 5 q 91 71 115 39 q 67 144 67 102 q 91 226 67 193 q 158 276 115 259 q 254 294 200 294 q 351 276 309 294 q 418 226 393 259 q 442 144 442 193 m 335 138 q 325 174 335 159 q 297 198 315 189 q 254 207 279 207 q 195 189 217 207 q 174 138 174 170 q 183 102 174 117 q 212 77 193 86 q 255 68 230 68 q 314 87 292 68 q 335 138 335 106 z "},"₉":{"ha":509,"x_min":50,"x_max":448,"o":"m 142 -168 l 151 -168 q 261 -150 219 -168 q 323 -96 303 -132 q 342 -3 342 -59 l 342 96 q 330 157 342 133 q 296 194 317 182 q 248 206 275 206 q 199 192 220 206 q 167 154 178 178 q 156 103 156 131 q 166 54 156 76 q 198 20 177 33 q 250 7 219 7 q 302 18 280 7 q 337 47 325 30 q 351 83 350 65 l 382 52 q 361 -8 381 21 q 306 -57 340 -38 q 226 -76 271 -76 q 130 -53 169 -76 q 70 10 90 -31 q 50 103 50 50 q 74 198 50 155 q 143 268 98 241 q 248 294 187 294 q 356 268 311 294 q 425 193 401 241 q 448 75 448 144 l 448 41 q 431 -85 448 -31 q 376 -177 413 -140 q 284 -234 340 -215 q 152 -254 229 -254 l 142 -254 l 142 -168 z "},"₊":{"ha":559,"x_min":54,"x_max":505,"o":"m 505 50 l 505 -38 l 54 -38 l 54 50 l 505 50 m 324 245 l 324 -233 l 235 -233 l 235 245 l 324 245 z "},"₋":{"ha":515,"x_min":54,"x_max":461,"o":"m 461 53 l 461 -35 l 54 -35 l 54 53 l 461 53 z "},"₌":{"ha":515,"x_min":54,"x_max":461,"o":"m 461 -31 l 461 -119 l 54 -119 l 54 -31 l 461 -31 m 461 130 l 461 41 l 54 41 l 54 130 l 461 130 z "},"₍":{"ha":337,"x_min":57,"x_max":283,"o":"m 57 20 l 57 32 q 89 218 57 139 q 166 347 121 297 q 248 416 211 397 l 283 338 q 229 275 256 315 q 184 176 202 235 q 167 33 167 117 l 167 20 q 184 -129 167 -70 q 229 -225 202 -188 q 283 -289 256 -263 l 248 -364 q 187 -317 220 -349 q 124 -237 154 -286 q 76 -125 95 -189 q 57 20 57 -60 z "},"₎":{"ha":337,"x_min":54,"x_max":280,"o":"m 280 39 l 280 28 q 248 -162 280 -81 q 171 -293 216 -242 q 89 -363 126 -343 l 54 -288 q 109 -223 82 -262 q 153 -125 135 -185 q 170 27 170 -64 l 170 40 q 153 180 170 122 q 109 277 135 238 q 54 338 82 315 l 89 416 q 150 371 117 402 q 213 292 183 340 q 261 181 242 245 q 280 39 280 118 z "},"₤":{"ha":808,"x_min":62,"x_max":765,"o":"m 765 0 l 64 0 l 64 106 l 765 106 l 765 0 m 295 705 l 310 273 q 292 154 311 209 q 235 71 273 98 l 117 106 q 154 141 140 113 q 174 205 168 169 q 180 272 180 242 l 165 705 q 204 864 165 798 q 312 966 243 930 q 466 1001 380 1001 q 617 968 555 1001 q 713 875 680 935 q 746 737 746 816 l 616 737 q 593 829 616 794 q 534 879 570 863 q 455 895 497 895 q 374 872 410 895 q 316 808 338 850 q 295 705 295 766 m 536 581 l 536 496 l 62 496 l 62 581 l 536 581 m 536 404 l 536 319 l 62 319 l 62 404 l 536 404 z "},"₦":{"ha":1100,"x_min":21,"x_max":1079,"o":"m 1079 638 l 1079 535 l 21 535 l 21 638 l 1079 638 m 1079 435 l 1079 332 l 21 332 l 21 435 l 1079 435 m 927 987 l 927 0 l 796 0 l 299 762 l 299 0 l 168 0 l 168 987 l 299 987 l 798 224 l 798 987 l 927 987 z "},"₧":{"ha":1140,"x_min":113,"x_max":1044,"o":"m 370 383 l 211 383 l 211 486 l 370 486 q 489 515 448 486 q 543 589 529 543 q 557 684 557 634 q 543 781 557 735 q 489 856 529 827 q 370 884 448 884 l 239 884 l 239 0 l 113 0 l 113 987 l 370 987 q 551 948 481 987 q 652 841 620 909 q 684 686 684 772 q 652 530 684 599 q 551 422 620 462 q 370 383 481 383 m 1040 734 l 1040 637 l 644 637 l 644 734 l 1040 734 m 778 912 l 903 912 l 903 182 q 915 125 903 144 q 945 100 926 106 q 984 94 963 94 q 1017 97 1000 94 q 1043 102 1034 100 l 1044 0 q 1005 -9 1029 -5 q 947 -14 981 -14 q 863 5 901 -14 q 801 66 824 23 q 778 182 778 109 l 778 912 z "},"₨":{"ha":1469,"x_min":115,"x_max":1400,"o":"m 115 987 l 441 987 q 630 954 553 987 q 747 853 707 920 q 787 691 787 787 q 760 567 787 623 q 681 472 732 511 q 559 414 630 433 l 522 400 l 215 400 l 214 507 l 446 507 q 563 531 516 507 q 633 598 610 556 q 657 691 657 640 q 635 791 657 748 q 565 857 612 833 q 441 880 517 880 l 245 880 l 245 0 l 115 0 l 115 987 m 692 0 l 452 448 l 588 448 l 831 8 l 831 0 l 692 0 m 1275 195 q 1263 245 1275 222 q 1215 288 1251 269 q 1106 321 1179 307 q 996 352 1045 334 q 912 395 947 370 q 860 454 878 420 q 842 533 842 488 q 861 615 842 576 q 916 684 880 654 q 1002 730 951 713 q 1114 747 1052 747 q 1264 716 1202 747 q 1360 633 1326 685 q 1393 518 1393 581 l 1267 518 q 1250 577 1267 549 q 1197 625 1232 606 q 1114 644 1163 644 q 1029 628 1061 644 q 982 588 997 612 q 968 536 968 564 q 975 500 968 516 q 1000 471 982 484 q 1052 446 1019 458 q 1137 423 1085 435 q 1285 374 1227 403 q 1372 304 1343 346 q 1400 204 1400 263 q 1380 116 1400 156 q 1323 47 1360 76 q 1233 2 1285 18 q 1117 -14 1181 -14 q 953 21 1020 -14 q 851 111 886 56 q 817 227 817 165 l 943 227 q 972 145 945 175 q 1039 102 1000 115 q 1117 90 1078 90 q 1203 103 1168 90 q 1257 140 1238 117 q 1275 195 1275 164 z "},"₩":{"ha":1027,"x_min":21,"x_max":1006,"o":"m 1006 665 l 1006 562 l 21 562 l 21 665 l 1006 665 m 1006 430 l 1006 328 l 21 328 l 21 430 l 1006 430 m 289 0 l 334 320 l 454 987 l 543 987 l 498 667 l 376 0 l 289 0 m 172 987 l 298 323 l 334 0 l 251 0 l 41 987 l 172 987 m 694 0 l 730 323 l 853 987 l 984 987 l 774 0 l 694 0 m 576 987 l 696 322 l 740 0 l 649 0 l 531 669 l 488 987 l 576 987 z "},"₪":{"ha":1071,"x_min":95,"x_max":976,"o":"m 95 734 l 474 734 q 572 719 528 734 q 646 673 615 705 q 693 588 677 641 q 709 460 709 536 l 709 237 l 583 237 l 583 461 q 574 541 583 508 q 546 593 564 573 q 500 622 527 613 q 437 631 473 631 l 221 631 l 221 0 l 95 0 l 95 734 m 741 0 l 362 0 l 362 498 l 488 498 l 488 103 l 703 103 q 784 119 751 103 q 833 173 817 136 q 850 273 850 210 l 850 734 l 976 734 l 976 274 q 960 145 976 198 q 912 61 943 93 q 838 15 882 29 q 741 0 795 0 z "},"€":{"ha":781,"x_min":64,"x_max":714,"o":"m 553 92 q 629 98 592 92 q 701 115 667 104 l 714 7 q 635 -8 676 -3 q 551 -14 593 -14 q 404 11 471 -14 q 288 85 336 36 q 212 208 239 134 q 185 380 185 281 l 185 606 q 212 779 185 705 q 287 902 238 852 q 402 976 336 951 q 551 1001 469 1001 q 633 995 593 1001 q 714 980 673 989 l 701 871 q 629 888 667 882 q 552 895 591 895 q 454 877 498 895 q 379 824 410 859 q 332 734 349 789 q 316 607 316 680 l 316 380 q 333 252 316 307 q 380 163 349 198 q 455 110 412 127 q 553 92 499 92 m 576 629 l 576 544 l 64 544 l 64 629 l 576 629 m 576 452 l 576 368 l 64 368 l 64 452 l 576 452 z "},"₱":{"ha":1016,"x_min":21,"x_max":996,"o":"m 996 823 l 996 720 l 21 720 l 21 823 l 996 823 m 996 656 l 996 553 l 21 553 l 21 656 l 996 656 m 519 387 l 256 387 l 256 494 l 519 494 q 644 518 596 494 q 713 586 691 543 q 735 685 735 629 q 713 781 735 736 q 644 853 691 825 q 519 880 596 880 l 286 880 l 286 0 l 155 0 l 155 987 l 519 987 q 709 949 631 987 q 826 842 786 910 q 866 686 866 774 q 826 524 866 591 q 709 422 786 457 q 519 387 631 387 z "},"₹":{"ha":718,"x_min":29,"x_max":690,"o":"m 690 746 l 659 639 l 29 639 l 60 746 l 690 746 m 408 0 l 49 419 l 48 503 l 214 503 q 333 527 286 503 q 404 593 380 551 q 427 686 427 634 q 405 787 427 743 q 335 856 382 831 q 210 880 287 880 l 31 880 l 62 987 l 210 987 q 405 952 328 987 q 519 848 481 916 q 557 684 557 781 q 526 536 557 602 q 422 433 494 471 q 228 396 350 396 l 562 8 l 562 0 l 408 0 m 690 987 l 659 880 l 151 880 l 182 987 l 690 987 z "},"₺":{"ha":773,"x_min":22,"x_max":713,"o":"m 318 987 l 318 0 l 188 0 l 188 987 l 318 987 m 583 523 l 713 523 l 713 463 q 685 264 713 353 q 604 114 656 176 q 479 20 552 52 q 315 -13 406 -13 q 252 -9 283 -13 q 188 0 220 -5 l 315 98 q 430 122 380 98 q 514 191 480 145 q 566 306 548 237 q 583 463 583 374 l 583 523 m 488 892 l 488 771 l 22 558 l 22 679 l 488 892 m 488 667 l 488 547 l 22 334 l 22 454 l 488 667 z "},"₼":{"ha":917,"x_min":63,"x_max":854,"o":"m 854 0 l 728 0 l 728 127 q 717 257 728 199 q 683 358 705 315 q 627 432 660 402 q 552 477 594 462 q 458 492 509 492 q 347 468 397 492 q 262 399 298 445 q 208 285 227 353 q 189 127 189 217 l 189 0 l 63 0 l 63 126 q 92 326 63 237 q 173 475 121 414 q 298 570 226 537 q 458 602 370 602 q 591 581 530 602 q 701 520 652 560 q 784 421 749 479 q 836 289 818 363 q 854 126 854 215 l 854 0 m 521 734 l 521 0 l 395 0 l 395 734 l 521 734 z "},"₽":{"ha":922,"x_min":21,"x_max":871,"o":"m 526 387 l 21 387 l 21 494 l 526 494 q 648 517 600 494 q 718 585 695 541 q 741 687 741 628 q 719 779 741 735 q 651 852 698 823 q 526 880 604 880 l 292 880 l 292 0 l 161 0 l 161 987 l 526 987 q 715 949 638 987 q 831 843 791 911 q 871 688 871 776 q 831 526 871 593 q 715 423 791 458 q 526 387 638 387 m 518 294 l 518 187 l 21 187 l 21 294 l 518 294 z "},"℅":{"ha":1025,"x_min":83,"x_max":957,"o":"m 368 715 l 462 715 q 439 629 462 668 q 375 566 417 589 q 275 543 334 543 q 173 570 216 543 q 107 644 130 598 q 83 745 83 690 l 83 798 q 106 900 83 854 q 172 974 130 946 q 273 1002 215 1002 q 374 978 332 1002 q 439 915 416 954 q 462 828 462 876 l 368 828 q 345 892 368 864 q 273 920 321 920 q 220 903 241 920 q 188 858 199 886 q 178 798 178 829 l 178 745 q 189 686 178 714 q 221 641 199 659 q 275 624 243 624 q 345 653 323 624 q 368 715 368 683 m 552 189 l 552 242 q 576 344 552 298 q 646 418 601 390 q 754 446 692 446 q 863 418 818 446 q 932 344 908 390 q 957 242 957 298 l 957 189 q 933 87 957 134 q 864 14 909 41 q 755 -14 819 -14 q 647 14 692 -14 q 577 87 602 41 q 552 189 552 134 m 646 242 l 646 189 q 658 130 646 158 q 694 84 670 102 q 755 67 719 67 q 816 84 792 67 q 852 130 840 102 q 863 189 863 157 l 863 242 q 851 302 863 274 q 815 347 840 330 q 754 364 791 364 q 694 347 718 364 q 658 302 670 330 q 646 242 646 274 m 785 847 l 302 75 l 232 120 l 714 892 l 785 847 z "},"ℓ":{"ha":661,"x_min":71,"x_max":593,"o":"m 486 93 l 486 -14 q 365 7 416 -14 q 279 70 313 29 q 229 166 245 110 q 212 292 212 223 l 212 798 q 225 905 212 858 q 264 986 239 953 q 327 1037 290 1019 q 410 1055 363 1055 q 483 1040 450 1055 q 541 997 516 1025 q 580 930 566 969 q 593 840 593 890 l 593 812 q 571 669 593 743 q 505 527 549 595 q 398 404 462 458 q 253 317 335 349 q 71 285 171 285 l 71 404 q 250 444 175 404 q 373 546 326 484 q 444 680 421 609 q 467 811 467 750 l 467 840 q 463 888 467 868 q 451 922 459 909 q 433 941 444 935 q 410 947 422 947 q 378 938 391 947 q 356 910 365 929 q 342 863 347 891 q 338 798 338 836 l 338 292 q 345 209 338 245 q 370 146 353 172 q 415 106 387 120 q 486 93 444 93 z "}}}
